<?xml version="1.0" encoding="utf-8"?>
<!-- Generator: Adobe Illustrator 17.0.0, SVG Export Plug-In . SVG Version: 6.00 Build 0)  -->
<!DOCTYPE svg PUBLIC "-//W3C//DTD SVG 1.1//EN" "http://www.w3.org/Graphics/SVG/1.1/DTD/svg11.dtd">
<svg version="1.1" id="Layer_1" xmlns="http://www.w3.org/2000/svg" xmlns:xlink="http://www.w3.org/1999/xlink" x="0px" y="0px"
	 width="486.088px" height="462.536px" viewBox="0 0 486.088 462.536" enable-background="new 0 0 486.088 462.536"
	 xml:space="preserve">
<path fill-rule="evenodd" clip-rule="evenodd" d="M471.136,266.608c-1.371-1.525-2.71-3.071-4.16-4.526
	c-7.614-7.628-15.545-14.939-23.162-22.561c-1.632-1.635-3.402-3.18-4.956-4.888c-0.656-0.722,0.037-1.936-0.603-2.957
	c1.471-1.655,2.336-3.248,3.765-4.686c8.321-8.373,16.662-16.724,24.998-25.082c1.451-1.452,2.262-3.507,3.647-5.021
	c1.517-1.658,1.581-2.376,0.181-3.925c-1.547-1.713-3.257-3.227-4.888-4.859c-12.512-12.53-24.672-25.41-37.189-37.934
	c-1.451-1.453-2.65-3.155-4.043-4.661c-1.567-1.692-2.197-3.488-0.732-5.176c1.178-1.354,2.96-2.182,4.135-3.539
	c0.876-1.017,1.188-2.771,0.347-3.691c-1.899-2.083-4.434-3.554-6.426-5.548c-23.757-23.783-46.564-48.519-70.336-72.287
	c-10.342-10.344-20.92-20.455-31.292-30.77c-1.628-1.619-3.705-2.797-5.523-4.194c-0.466-0.358-1.586-0.385-2.11-0.055
	c-1.284,0.812-2.616,1.679-3.704,2.748c-4.392,4.318-8.843,8.577-13.223,12.907c-1.456,1.438-2.833,2.948-4.357,4.317
	c-0.716,0.646-1.75,0.518-2.421-0.087c-1.716-1.541-3.914-2.565-5.546-4.194c-11.088-11.05-22.168-22.106-33.251-33.162
	c-1.633-1.629-3.649-2.821-5.361-4.367c-1.235-1.118-2.227-1.589-3.565-0.361c-1.701,1.559-3.932,2.589-5.566,4.221
	c-11.08,11.057-21.506,22.768-32.601,33.812c-1.628,1.621-3.656,2.801-5.467,4.211c-0.454,0.355-1.064,0.086-1.578-0.249
	c-1.273-0.83-3.065-1.06-4.155-2.134c-4.568-4.504-9.314-8.829-13.878-13.337c-1.273-1.257-2.505-2.502-3.859-3.674
	c-0.678-0.587-2.082-1.375-2.727-0.811c-1.544,1.345-2.546,3.277-3.995,4.721c-13.265,13.226-26.993,25.991-40.251,39.224
	c-16.345,16.315-33.05,32.271-49.399,48.582c-5.269,5.256-9.513,11.531-14.747,16.819c-1.44,1.455-3.2,2.583-4.539,4.132
	c-0.589,0.685-0.724,2.174-0.129,2.882c1.48,1.768,3.627,2.97,5.112,4.731c0.643,0.765-0.159,2.312-0.788,3.013
	c-1.54,1.715-2.883,3.6-4.51,5.23c-12.688,12.716-25.146,25.663-37.828,38.384c-1.806,1.811-3.721,3.525-5.42,5.44
	c-0.573,0.645-0.566,2.424-0.009,3.07c1.336,1.549,2.958,2.834,4.399,4.283c8.687,8.732,17.081,17.756,25.762,26.494
	c1.424,1.434,2.596,2.531,3.211,4.644c-0.529,2.135-1.541,3.382-2.965,4.815c-8.503,8.551-17.204,16.909-25.714,25.456
	c-1.624,1.63-2.434,4.012-3.966,5.73c-0.585,0.657-0.69,1.269-0.132,1.905c1.516,1.731,2.12,4.315,3.743,5.942
	c12.863,12.903,26.69,24.845,39.558,37.743c1.628,1.633,2.734,3.799,4.281,5.508c0.643,0.711,0.401,2.154-0.223,2.886
	c-1.331,1.558-2.231,3.486-3.562,5.045c-1.197,1.4-1.989,2.874-0.867,4.124c1.37,1.525,2.84,2.993,4.29,4.443
	c34.464,34.488,69.475,68.432,103.954,102.906c1.45,1.449,2.311,3.543,3.847,4.899c1.268,1.117,3.626,0.982,4.851-0.156
	c2.254-2.094,4.717-3.996,6.914-6.152c4.396-4.309,8.011-9.417,12.422-13.712c1.1-1.072,2.306-0.558,3.356,0.395
	c1.709,1.548,4.197,2.292,5.829,3.923c10.714,10.695,20.494,22.329,31.201,33.034c1.631,1.635,4.171,2.334,5.851,3.916
	c0.553,0.523,0.459,2.374,1.156,2.593c0.67,0.211,1.941-0.16,2.608-0.398c0.692-0.246,1.17-1.238,1.721-1.762
	c1.674-1.592,3.293-3.242,4.926-4.873c10.891-10.887,21.479-22.07,32.379-32.944c1.45-1.448,3.02-2.806,4.544-4.175
	c0.842-0.755,2.777-1.104,3.554-0.435c1.162,1.005,1.858,2.559,2.947,3.639c4.195,4.153,7.843,8.857,12.034,13.014
	c1.456,1.441,3.211,2.613,4.745,3.976c1.223,1.088,3.086,0.788,4.421-0.385c1.347-1.186,3.098-1.972,4.371-3.235
	c3.826-3.794,7.503-7.744,11.313-11.556c30.483-30.486,61.115-60.824,91.589-91.318c1.812-1.812,2.871-4.362,4.599-6.255
	c0.956-1.046,1.724-2.725,0.874-3.735c-1.32-1.568-2.811-2.993-4.139-4.555c-1.14-1.342-1.039-1.955,0.251-3.362
	c1.386-1.513,2.492-3.271,3.944-4.723c12.513-12.526,24.423-25.658,36.936-38.184c1.632-1.632,3.136-3.351,4.702-5.047
	C472.049,269.034,472.528,268.156,471.136,266.608z M466.192,191.809c0.536,0.536,0.95,1.254,1.366,1.893
	c0.461,0.701,0.7,1.893,0.248,2.533c-0.587,0.831-1.226,1.779-1.946,2.499c-9.051,9.064-19.037,17.195-28.12,26.229
	c-1.072,1.066-1.931,2.163-3.093,3.14c-0.879-0.435-1.438-0.571-1.98-1.052c-1.534-1.354-3.591-2.18-5.04-3.628
	c-12.325-12.313-24.655-24.624-36.962-36.958c-1.442-1.448-2.952-2.9-4.309-4.43c-0.613-0.693-0.203-2.881,0.397-3.597
	c0.823-0.979,1.909-1.735,2.807-2.642c4.689-4.732,8.831-10.011,13.542-14.721c3.988-3.983,8.47-7.475,12.487-11.429
	c0.907-0.893,2.122-1.432,3.124-2.221c0.669-0.525,1.628-1.197,2.286-0.777c0.855,0.545,0.802,2.243,1.52,2.96
	C436.849,163.905,451.887,177.489,466.192,191.809z M243.315,281.355c-1.467-0.167-4.405-2.384-4.766-3.992
	c-0.098-0.438,0.034-1.612,0.307-1.959c0.779-0.992,2.632-1.045,3.534-1.929c0.728-0.717,1.506-1.1,2.162-0.459
	c1.076,1.049,2.066,2.163,3.062,3.289c0.148,0.168,0.941,0.272,1.007,0.509c-0.033,0.253-0.068,0.921-0.189,1.119
	c-0.931,1.543-2.518,2.796-4.284,3.437C243.921,281.452,243.555,281.384,243.315,281.355z M247.894,291.5
	c7.446,7.405,14.786,14.916,22.21,22.342c3.621,3.621,7.561,6.936,11.139,10.603c1.052,1.077,2.186,2.513,3.04,3.559
	c-0.293,0.773-1.445,1.125-1.767,1.45c-12.244,12.38-24.241,25.001-36.527,37.337c-0.704,0.706-1.448,1.133-2.157,1.637
	c-2.376-0.534-4.048-1.589-5.477-3.011c-7.808-7.767-15.592-15.561-23.38-23.349c-3.079-3.077-6.321-6.01-9.358-9.129
	c-1.051-1.079-1.63-2.864-2.438-3.862c0.399-2.263,2.206-3.382,3.45-4.634c7.587-7.627,14.632-15.793,22.237-23.402
	c3.441-3.44,7.376-6.388,10.824-9.821c1.086-1.081,2.214-1.851,3.603-2.332C245.348,289.257,246.645,290.256,247.894,291.5z
	 M243.073,182.05c0.478,0.09,1.22,0.168,1.529,0.445c1.109,0.996,2.496,1.803,3.46,2.938c0.253,0.299,0.494,1.614,0.335,2.014
	c-0.678,1.704-2.856,2.093-4.489,2.872c-0.387,0.186-0.641,0.504-1.027,0.306c-1.602-0.822-2.751-1.913-3.51-3.576
	c-0.096-0.208-0.953-0.438-0.932-0.674C238.561,185.03,241.506,182.446,243.073,182.05z M238.142,171.171
	c-10.349-10.327-20.605-20.744-30.944-31.085c-0.905-0.905-2.118-1.544-2.981-2.489c-1.516-1.66-1.549-3.643,0.119-5.489
	c0.343-0.381,1.638,0.14,2.001-0.222c11.425-11.428,22.586-23.117,34.026-34.529c0.72-0.72,1.485-1.353,2.322-1.935
	c0.686-0.478,1.718-1.042,2.359-0.569c0.82,0.608,1.689,1.323,2.412,2.043c11.256,11.234,22.63,22.351,33.858,33.611
	c1.073,1.076,1.683,2.78,2.569,3.829c-0.188,0.736-0.507,1.389-0.782,1.761c-0.763,1.023-1.009,2.576-1.911,3.479
	c-10.872,10.892-22.259,21.27-33.154,32.138c-0.905,0.903-2.094,1.498-3.062,2.335c-1.019,0.883-2.607,1.5-3.684,0.541
	C240.143,173.566,239.229,172.256,238.142,171.171z M248.041,239.876c-4.501-4.387-4.626-4.481-8.989-0.227
	c-3.12,3.037-5.895,6.427-9.015,9.464c-0.952,0.929-3.32,1.001-4.325,0.005c-5.1-5.046-9.248-11.045-14.305-16.134
	c-0.942-0.946-1.167-1.84-0.191-2.818c4.884-4.9,9.754-9.811,14.694-14.652c1.532-1.503,3.249-2.023,4.967-0.38
	c2.778,2.658,5.476,5.398,8.243,8.068c1.1,1.062,2.363,1.87,3.542,2.846c0.668,0.555,1.467,0.911,2.157,0.326
	c1.168-0.992,2.581-1.71,3.672-2.781c2.559-2.515,4.493-5.656,7.037-8.187c0.54-0.538,1.654-0.508,2.246-0.993
	c0.674-0.552,1.973-0.261,2.658,0.428c5.236,5.265,11.085,9.925,16.28,15.23c0.31,0.318-0.874,1.298-0.721,1.771
	c-0.198,0.468,0.19,0.777-0.143,1.11c-5.248,5.252-10.178,10.821-15.462,16.037c-0.682,0.671-2.105,0.561-2.839-0.156
	C254.429,245.796,251.158,242.913,248.041,239.876z M256.04,253.065c-0.673,0.936-1.319,1.924-2.006,2.634
	c-2.49,2.574-4.725,5.42-7.289,7.92c-2.439,2.38-4.092,2.477-6.567,0.079c-2.572-2.492-4.175-5.959-6.665-8.534
	c-0.685-0.707-1.353-1.181-2.007-2.119c0.665-0.946,1.062-1.699,1.75-2.415c2.482-2.582,4.397-5.74,6.966-8.237
	c2.44-2.374,4.122-2.376,6.597,0.027c2.568,2.497,5.229,4.939,7.715,7.517C255.223,250.651,255.373,252.123,256.04,253.065z
	 M182.276,221.656c-2.389-2.314-4.677-4.73-7.108-6.997c-1.242-1.16-2.471-0.878-3.7,0.267c-2.805,2.616-5.458,5.374-8.202,8.054
	c-7.736,7.556-6.087,6.504-13.42-0.771c-12.354-12.258-24.891-24.331-37.18-36.653c-1.44-1.444-2.783-2.966-4.12-4.509
	c-0.559-0.644-1.191-1.616-0.772-2.304c0.396-0.647,0.944-1.4,1.478-1.938c5.773-5.81,11.437-11.736,17.251-17.501
	c0.706-0.698,2.187-0.909,2.862-1.394c2.139,0.508,3.185,2.343,4.44,3.589c6.171,6.135,12.882,11.729,19.035,17.884
	c12.486,12.487,24.479,25.47,36.961,37.961c1.266,1.268,2.286,2.767,3.495,4.086c1.716,1.876,2.224,3.401,0.213,5.499
	c-0.178,0.184-1.303-0.595-1.488-0.419c-1.41,1.322-1.978,1.705-3.219,0.532C186.759,225.109,184.297,223.613,182.276,221.656z
	 M185.079,234.937c-3.03,3.107-6.195,6.089-9.304,9.116c-1.78,1.732-3.521,2.121-5.085,0.587
	c-3.643-3.577-7.337-7.119-10.921-10.756c-0.897-0.909,0.088-2.54,1.03-3.495c3.588-3.633,6.918-7.514,10.567-11.084
	c0.501-0.491,1.118-0.625,1.829-0.973c0.712,0.403,1.926-0.025,2.446,0.48c3.29,3.208,6.581,6.44,9.788,9.732
	C187.717,230.893,187.417,232.539,185.079,234.937z M153.753,236.322c1.653-1.371,2.899-1.948,4.473-0.471
	c3.168,2.981,6.292,6.024,9.411,9.055c1.465,1.421,2.099,3.747,3.634,5.091c0.65,0.57,2.828,0.27,3.482-0.299
	c1.347-1.172,2.688-2.377,3.964-3.625c3.291-3.221,5.926-7.114,9.222-10.327c1.2-1.17,3.581-1.055,4.956,0.297
	c0.721,0.71,1.744,1.588,2.171,2.479c0.284,0.593-0.171,2.188-0.528,2.665c-1.213,1.631-2.859,2.947-4.295,4.393
	c-9.382,9.437-18.225,19.415-27.636,28.823c-9.229,9.23-18.958,17.961-28.213,27.165c-1.428,1.421-2.738,2.774-5.005,3.438
	c-0.778-0.561-2.091-0.354-2.798-1.054c-5.817-5.766-10.637-12.529-16.41-18.334c-0.533-0.536-1.137-0.87-1.524-1.523
	c-0.422-0.711-0.777-1.291-0.263-1.934c0.798-0.996,1.647-1.959,2.546-2.859c13.916-13.953,27.67-28.069,41.6-42.008
	C152.898,236.933,153.36,236.65,153.753,236.322z M193.903,232.433c-0.153-0.423-0.007-1.186,0.196-1.584
	c0.818-1.597,1.901-3.313,3.572-4.059c0.222-0.1,0.776-0.275,1.023-0.322c0.235,0.09,0.039,1.269,0.212,1.427
	c1.106,1.006,2.473,1.702,3.489,2.795c0.512,0.551,0.686,1.069,0.255,1.787c-0.919,1.533-1.645,3.557-3.343,4.244
	c-0.422,0.172-1.643,0.184-1.999-0.031C195.788,235.77,194.536,234.163,193.903,232.433z M202.158,222.479
	c0.012-0.22,0.382-0.534,0.559-0.713c5.039-5.065,9.773-10.438,14.84-15.477c1.067-1.061,3.155-1.179,4.263-0.242
	c0.584,0.494,0.256,1.98,0.79,2.525c1.665,1.693,2.001,2.266,0.321,3.959c-4.853,4.895-9.728,9.763-14.654,14.582
	c-0.493,0.483-1.091,1.412-1.644,1.659c-0.412-0.145-1.217-0.321-1.386-0.481c-1.102-1.043-2.487-2.001-3.405-3.191
	C201.489,224.643,202.12,223.196,202.158,222.479z M203.033,237.612c0.515-0.568,1.165-1.028,1.723-1.556
	c0.181-0.175,0.232-0.696,0.455-0.817c0.697-0.384,2.008-0.625,2.748-0.227c0.224,0.12-0.294,1.276-0.118,1.451
	c5.078,5.061,10.424,9.849,15.459,14.952c0.491,0.5,0.615,1.169,0.882,1.727c-0.129,0.404,0.549,1.108,0.39,1.277
	c-1.043,1.108-2.101,2.362-3.29,3.294c-0.467,0.366-1.8,0.49-2.516,0.479c-0.216-0.004-0.655-0.829-0.833-1.007
	c-5.078-5.058-9.915-10.357-14.957-15.449C201.69,240.437,201.599,239.192,203.033,237.612z M254.841,211.422
	c-3.384,3.47-6.785,6.921-10.233,10.327c-0.727,0.719-2.311,1.289-3.072,0.543c-3.28-3.223-6.559-6.463-9.778-9.746
	c-0.926-0.945-0.551-3.033,0.467-4.06c3.241-3.265,6.589-6.426,9.899-9.62c0.532-0.514,1.854-1.178,2.549-0.621
	c3.996,3.2,7.727,6.853,10.995,10.788c0.157,0.189-0.942,0.869-0.839,1.105C254.692,210.622,255.15,211.103,254.841,211.422z
	 M263.219,208.589c0.684-0.749,1.519-1.381,2.277-2.055c0.819-0.727,2.509-1.159,3.227-0.612c0.201,0.153,0.599,0.21,0.774,0.385
	c5.04,5.028,9.159,10.974,14.149,16.049c0.475,0.483,0.775,0.899,1,1.444c-0.161,0.422-0.1,0.539-0.262,0.704
	c-1.058,1.08-1.529,2.816-2.675,3.798c-0.306,0.264-1.496,0.412-1.952,0.321c-0.47-0.096-1.425-0.408-1.767-0.748
	c-5.054-5.017-9.735-10.414-14.748-15.474C262.271,211.419,262.313,209.58,263.219,208.589z M263.074,251.405
	c0.165-0.195,0.405-0.34,0.583-0.521c4.693-4.72,9.082-9.747,13.796-14.445c0.534-0.531,1.286-1.219,1.963-1.535
	c0.399-0.184,1.048,1,1.439,1.202c1.633,0.834,2.913,1.679,3.733,3.328c0.105,0.21,0.085,0.319,0.122,0.563
	c-0.189,0.463,0.413,1.536,0.088,1.861c-5.225,5.265-10.473,10.518-15.74,15.74c-0.751,0.746-2.847,0.852-3.748,0.092
	c-0.779-0.658-1.237-1.758-1.939-2.495C262.297,254.066,262.232,252.396,263.074,251.405z M286.702,227.757
	c1.056-0.89,2.471-0.764,3.607,0.168c1.173,0.96,2.604,2.026,3.219,3.196c-0.136,0.73-0.075,1.882-0.339,2.22
	c-0.765,0.975-2.578,1.014-3.484,1.861c-0.987,0.921-1.637,1.086-2.771,0.134C283.242,232.243,282.936,230.93,286.702,227.757z
	 M295.397,235.882c0.588-0.311,1.773-0.25,2.34,0.05c1.107,0.589,2.447,1.138,3.353,2.019c2.941,2.857,5.897,5.707,8.819,8.585
	c0.91,0.895,1.01,2.688,1.989,3.511c0.622,0.521,2.897,0.289,3.492-0.234c1.537-1.35,3.055-2.738,4.528-4.157
	c3.324-3.194,6.005-7.055,9.326-10.254c0.721-0.692,2.871-0.664,3.668-0.004c0.196,0.162,0.579,0.185,0.763,0.358
	c0.559,0.526,0.758,1.447,1.301,1.99c13.59,13.596,26.929,27.441,40.512,41.046c0.904,0.905,2.372,1.304,3.229,2.257
	c1.036,1.154,0.582,2.91-0.283,3.954c-0.164,0.197-0.517,0.206-0.697,0.386c-6.16,6.161-11.7,12.949-17.89,19.08
	c-0.525,0.521-1.726-0.395-2.43,0.03c-0.697-0.374-1.135-0.188-1.7-0.664c-1.171-0.992-2.581-1.712-3.667-2.8
	c-18.489-18.482-36.94-37.005-55.424-55.494c-0.905-0.906-1.652-1.96-2.515-2.905C291.78,240.088,292.018,237.663,295.397,235.882z
	 M326.602,233.203c-3.788,3.791-7.58,7.577-11.42,11.316c-0.975,0.949-2.582,1.478-3.679,0.395
	c-3.629-3.592-7.245-7.209-10.816-10.858c-0.987-1.008-0.728-3.083,0.231-4.065c3.741-3.839,7.598-7.564,11.387-11.354
	c0.719-0.721,2.586-1.056,3.284-0.361c3.978,3.95,8.037,7.836,11.961,11.843c0.294,0.3-0.87,1.351-0.757,1.831
	C326.586,232.413,326.936,232.866,326.602,233.203z M334.625,225.325c-0.895,0.893-1.626,2.036-2.676,2.745
	c-0.347,0.235-1.266,0.179-1.63-0.026c-0.879-0.494-2.048-0.818-2.774-1.521c-2.762-2.674-5.548-5.328-8.3-8.012
	c-1.282-1.252-1.729-3.415-3.083-4.589c-0.958-0.833-3.262-0.634-4.136,0.108c-1.173,0.992-2.331,2.032-3.426,3.108
	c-2.927,2.872-5.202,6.407-8.127,9.282c-0.727,0.712-1.646,1.598-2.538,2.031c-0.576,0.281-2.302,0.382-2.827,0.045
	c-1.058-0.679-1.723-2.109-2.621-3.014c-0.72-0.727-0.553-2.324,0.033-2.996c1.008-1.154,1.436-2.889,2.519-3.972
	c19.022-19.044,38.547-37.584,57.6-56.597c1.426-1.424,2.676-2.87,5.074-3.429c0.689,0.51,1.995,0.316,2.703,1.021
	c5.82,5.777,10.645,12.555,16.425,18.373c0.536,0.539,1.189,0.831,1.566,1.49c0.397,0.69,0.833,1.279,0.275,1.936
	c-0.826,0.974-1.677,1.936-2.577,2.839C362.341,197.936,348.416,211.565,334.625,225.325z M378.787,174.012
	c-5.29-5.222-10.44-10.586-15.718-15.821c-5.783-5.735-5.349-5.456-10.976,0.158c-18.145,18.106-36.17,36.332-54.296,54.456
	c-0.906,0.905-2.73,0.893-3.64,1.795c-6.833,6.787-5.011,6.898-11.64,0.256c-3.618-3.626-7.186-7.298-10.733-10.995
	c-0.928-0.967-1.5-2.695-0.547-3.74c1.38-1.513,2.801-3.033,4.249-4.482c25.369-25.381,50.627-50.877,75.992-76.263
	c1.99-1.992,4.268-3.681,6.174-5.756c0.791-0.862,1.003-2.483,0.192-3.402c-1.356-1.534-3.323-2.485-4.748-3.955
	c-2.319-2.393-4.205-5.203-6.51-7.609c-1.604-1.674-1.35-2.702,0.345-4.442c2.864-2.935,5.16-6.445,8.104-9.3
	c0.523-0.508,1.583,0.442,2.193,0.109c2.403,0.843,3.562,2.355,5.173,3.964c14.702,14.661,29.714,29.01,44.395,43.693
	c2.358,2.356,4.695,4.73,7.024,7.114c0.71,0.729,1.188,1.646,1.736,2.499c0.428,0.665,0.317,1.086-0.246,1.749
	c-0.828,0.975-1.462,2.101-2.363,3.003c-8.685,8.715-17.567,17.232-26.289,25.911c-1.082,1.074-1.848,2.537-3.091,3.425
	c-0.323,0.23-1.369,0.229-1.728,0.001C380.773,175.697,379.687,174.898,378.787,174.012z M353.296,110.081
	c0.342,0.352,0.443,1.043,0.681,1.494c-0.103,0.492,0.246,1.496-0.04,1.831c-1.491,1.749-2.942,3.616-4.565,5.242
	c-14.676,14.711-30.303,28.471-44.997,43.165c-10.521,10.52-20.78,21.303-31.311,31.812c-1.451,1.45-2.912,2.876-4.42,4.262
	c-0.963,0.883-2.79,1.461-3.756,0.497c-3.264-3.257-6.512-6.539-9.733-9.837c-0.695-0.713-0.822-3.089-0.148-3.823
	c1.382-1.513,3.153-2.689,4.602-4.14c25.388-25.404,51.034-50.548,76.44-75.935c1.447-1.448,2.43-3.412,3.946-4.79
	c0.719-0.653,2.578-0.066,3.362,0.588c0.196,0.164,0.196,0.523,0.374,0.702C346.802,104.243,350.255,106.96,353.296,110.081z
	 M263.493,201.265c0.149,0.188,0.108,0.615,0.19,0.86c-0.042,0.245,0.345,0.731,0.251,0.956c-0.717,1.728-2.215,3.31-3.814,4.172
	c-0.377,0.203-1.128-1.071-1.572-1.207c-0.468-0.143-0.934-0.032-1.288-0.381c-3.089-3.049-6.192-6.08-9.224-9.186
	c-1.301-1.335-1.816-2.765-0.378-4.263c0.702-0.73,1.586-1.632,2.46-2.098c0.563-0.303,2.461-0.463,2.892-0.117
	C256.994,193.198,260.314,197.246,263.493,201.265z M239.985,193.735c0.147,0.193,0.103,0.641,0.185,0.884
	c-0.15,0.475,0.105,1.461-0.206,1.778c-3.403,3.464-6.752,6.996-10.216,10.4c-0.785,0.771-1.942-0.265-2.85-1.045
	c-0.774-0.664-1.752-1.051-2.435-1.805c-1.027-1.135-1.089-2.102-0.212-3.13c0.663-0.777,0.704-2.148,1.42-2.878
	c1.793-1.828,3.611-3.641,5.424-5.449C234.88,188.715,236.366,188.992,239.985,193.735z M231.445,188.491
	c-1.765,1.851-3.641,3.599-5.45,5.406c-6.605,6.594-6.047,7.044-12.735,0.293c-9.908-10-19.995-19.818-29.952-29.771
	c-9.232-9.228-17.535-19.386-26.766-28.616c-6.335-6.334-12.964-12.371-19.251-18.752c-5.276-5.354-5.256-4.759-0.172-9.848
	c2.169-2.172,3.76-4.941,5.979-7.062c0.35-0.334,1.268-0.637,1.727-0.858c0.483,0.124,1.69,0.124,2.024,0.417
	c1.728,1.511,3.112,3.455,4.736,5.079c21.727,21.713,43.186,43.692,64.903,65.414c3.981,3.983,8.545,7.384,12.523,11.37
	c0.905,0.903,1.29,2.331,2.149,3.279C232.139,185.925,232.36,187.532,231.445,188.491z M134.618,104.824
	c-7.759,7.885-7.908,6.711-0.086,14.531c25.555,25.555,51.405,50.812,76.961,76.362c6.686,6.688,6.687,6.713,0.194,13.264
	c-3.607,3.639-8.173,6.316-11.821,9.914c-0.951,0.938-1.837,1.184-2.843,0.238c-1.682-1.578-3.347-3.162-4.977-4.793
	c-18.493-18.477-37.585-36.357-56.079-54.834c-1.449-1.449-2.901-2.857-4.415-4.235c-1.557-1.421-2.196-1.293-3.791,0.22
	c-2.604,2.465-5.489,4.627-8.038,7.152c-4.005,3.968-8.242,7.702-12.252,11.666c-0.543,0.538-0.656,1.619-1.254,2.102
	c-0.769,0.621-2.594,0.095-3.334-0.535c-0.974-0.827-1.736-1.877-2.641-2.777c-8.708-8.689-18.024-16.774-26.706-25.489
	c-0.9-0.902-0.681-2.823-1.498-3.805c-0.552-0.665-0.774-0.736-0.356-1.401c0.539-0.858,0.78-1.941,1.496-2.66
	c17.74-17.781,35.526-35.516,53.297-53.266c0.886-0.885,1.995-1.362,2.975-2.139c0.874,0.479,1.324,0.835,1.895,1.308
	c0.984,0.816,2.014,1.55,2.898,2.474C143.656,97.96,144.34,94.946,134.618,104.824z M103.058,183.953
	c0.664-0.47,1.675-0.421,2.358,0.061c0.833,0.583,1.987,0.907,2.705,1.624c14.151,14.123,28.382,28.168,42.504,42.321
	c0.888,0.892,0.529,2.609,1.229,3.465c-0.219,0.753,0.161,0.983-0.121,1.352c-0.773,1.015-1.562,1.989-2.463,2.892
	c-13.583,13.604-26.572,27.804-40.177,41.384c-0.904,0.902-1.936,1.757-2.917,2.578c-0.717,0.6-3.039,0.74-3.771,0.182
	c-0.407-0.309-0.552-1.011-0.929-1.352c-0.759-0.691-1.258-1.664-1.983-2.388c-13.412-13.412-27.397-26.255-40.788-39.686
	c-1.241-1.245-2.285-2.858-2.601-5.13c0.661-0.815,1.618-1.671,2.505-2.561c14.125-14.15,27.651-28.899,41.805-43.02
	C101.135,184.958,102.226,184.54,103.058,183.953z M103.389,287.094c0.344-0.233,1.298-0.174,1.635,0.046
	c1.062,0.693,2.421,1.178,3.321,2.068c5.644,5.59,11.328,11.142,16.967,16.735c1.083,1.074,1.396,3.013,2.575,3.989
	c0.653,0.543,2.811,0.212,3.465-0.385c1.889-1.722,3.78-3.462,5.588-5.268c18.132-18.104,35.623-36.85,53.766-54.943
	c8.18-8.155,7.434-8.029,15.474-0.099c3.1,3.06,6.299,6.047,9.32,9.186c1.538,1.598,1.087,3.681-0.561,5.439
	c-1.577,1.681-3.469,3.064-5.1,4.696c-25.181,25.186-49.8,50.934-74.976,76.127c-1.811,1.81-4.059,3.181-5.792,5.067
	c-0.803,0.872-1.001,2.829-0.154,3.723c2.466,2.602,5.603,4.557,8.101,7.127c6.639,6.828,5.768,5.391-0.971,12.149
	c-2.145,2.15-3.514,4.756-6.619,6.199c-1.361-1.149-2.797-1.732-4.051-2.972c-6.196-6.124-12.313-12.327-18.474-18.487
	c-10.148-10.146-20.139-20.444-30.279-30.599c-1.449-1.45-2.758-3.018-4.147-4.525c-1.542-1.671-1.637-2.508-0.034-4.265
	c0.518-0.569,1.237-0.925,1.78-1.468c8.878-8.877,17.261-18.252,26.161-27.108C101.284,288.632,102.338,287.807,103.389,287.094z
	 M132.674,351.972c0.415-0.848,0.734-1.846,1.217-2.384c1.542-1.717,2.868-3.667,4.499-5.298
	c24.664-24.674,49.242-49.436,73.917-74.097c1.631-1.631,4.225-2.261,5.925-3.819c1.004-0.92,2.072-1.358,2.917-0.536
	c3.296,3.22,6.562,6.463,9.798,9.745c0.629,0.639,1.269,2.479,0.694,3.127c-1.529,1.723-3.059,3.5-4.683,5.129
	c-18.123,18.155-36.141,36.415-54.28,54.554c-7.256,7.254-14.872,14.151-22.147,21.386c-1.268,1.262-2.857,2.203-4.242,3.333
	c-0.595,0.486-1.91,1.284-2.566,0.73C139.617,360.374,136.016,356.222,132.674,351.972z M223.698,262.688
	c-0.649-0.664-0.457-2.205,0.194-3.035c1.097-1.397,2.35-3.248,4.506-3.693c0.84,0.67,2.341,1.428,3.213,2.305
	c2.849,2.862,4.701,6.695,7.488,9.619c0.694,0.727,0.868,1.302,0.168,2.157c-0.961,1.174-1.786,2.331-3.273,2.865
	c-0.435,0.156-0.974,0.913-1.459,0.854c-0.223-0.027-0.829-0.4-1.002-0.574C230.154,269.788,227.048,266.116,223.698,262.688z
	 M247.417,270.414c-0.734-0.841-0.716-2.267-0.068-2.999c3.506-3.961,6.982-8.271,11.072-11.438c2.401,0.551,4.429,2.26,5.53,3.973
	c0.455,0.71-0.692,1.509-1.209,2.045c-3.327,3.45-6.43,7.107-9.829,10.484c-0.914,0.908-1.938,0.793-3.061-0.222
	C249.106,271.585,248.079,271.174,247.417,270.414z M255.794,275.193c3.226-3.289,6.581-6.454,9.868-9.68
	c0.633-0.622,2.686-0.947,3.335-0.381c1.544,1.342,3.23,2.598,4.68,4.04c8.184,8.135,15.415,17.231,23.573,25.395
	c17.409,17.413,35.078,34.562,52.482,51.979c5.442,5.448,5.288,4.687,0.132,9.738c-2.543,2.495-4.373,6.119-7.531,8.023
	c-0.765-0.363-2.214-0.664-2.753-1.144c-1.719-1.535-3.518-3.056-5.149-4.688c-24.85-24.842-49.33-50.054-74.167-74.908
	c-1.448-1.448-2.593-3.199-3.97-4.717C255.39,277.855,254.99,276.012,255.794,275.193z M346.055,365.206
	c2.115-2.234,4.372-4.338,6.511-6.554c1.605-1.658,2.911-3.581,4.459-5.296c1.395-1.543,1.254-2.315-0.254-3.942
	c-1.918-2.068-2.944-4.999-4.935-6.994c-24.851-24.862-49.977-49.446-74.821-74.312c-1.81-1.812-3.535-3.694-5.264-5.584
	c-0.646-0.707-1.32-2.351-0.766-3.078c0.311-0.406,0.63-0.928,0.989-1.285c4.532-4.537,8.936-9.214,13.511-13.709
	c1.706-1.675,3.859-1.35,5.457,0.132c1.692,1.568,3.098,3.442,4.73,5.074c17.966,17.957,36.489,35.355,54.456,53.311
	c1.813,1.814,3.148,4.105,5.026,5.852c1.516,1.41,3.271,1.568,4.929,0.027c1.501-1.399,2.341-3.479,3.796-4.927
	c4.904-4.892,10.751-8.834,15.679-13.704c0.901-0.89,1.632-1.852,2.691-2.554c0.347-0.229,0.814-0.621,1.215-0.434
	c0.683,0.322,1.308,0.838,1.845,1.374c9.815,9.779,19.458,19.727,29.248,29.53c0.358,0.358,0.462,0.854,0.733,1.288
	c0.427,0.685,0.829,1.142,0.277,1.801c-1.312,1.567-2.815,2.936-4.255,4.383c-9.957,10-19.452,20.46-29.431,30.438
	c-6.712,6.713-13.401,13.449-20.13,20.147c-1.252,1.246-2.495,3.273-4.223,3.783c-0.582-0.244-1.301-1.072-1.639-1.401
	c-3.303-3.22-6.004-7.035-9.246-10.316C345.639,367.243,344.994,366.325,346.055,365.206z M384.467,279.208
	c-0.947,0.826-2.704,0.647-3.748-0.279c-1.149-1.02-2.595-1.759-3.682-2.843c-13.056-13.04-26.196-25.995-39.237-39.054
	c-1.434-1.436-1.945-3.227-2.606-5.148c0.653-2.245,1.909-3.314,3.332-4.749c8.301-8.37,16.623-16.719,24.955-25.059
	c4.53-4.531,8.466-9.662,13.005-14.182c1.091-1.086,2.185-2.196,3.312-3.243c1.791-1.665,4.013-1.86,5.642-0.348
	c1.501,1.396,2.613,3.224,4.063,4.672c10.7,10.686,21.146,21.625,31.836,32.319c2.899,2.9,6.356,5.253,9.219,8.188
	c0.948,0.972,0.439,3.007-0.472,3.998c-1.04,1.133-2.339,2.01-3.425,3.097c-12.862,12.875-25.109,26.362-37.986,39.219
	C387.409,277.059,385.815,278.026,384.467,279.208z M294.146,43.431c0.254-0.689,0.938-1.32,1.471-1.857
	c5.244-5.277,10.202-10.842,15.486-16.078c0.531-0.527,1.338-1.208,2.029-1.492c0.409-0.169,0.993,1.005,1.331,1.261
	c1.216,0.917,2.597,1.579,3.674,2.656c33.565,33.549,67.136,67.092,100.677,100.664c1.628,1.628,3.782,2.783,5.318,4.502
	c0.587,0.658,0.555,2.973-0.105,3.7c-0.855,0.939-1.729,2.025-2.706,2.832c-0.35,0.288-1.498-0.062-1.983,0.061
	c-0.46-0.22-0.929-0.687-1.29-1.014c-1.704-1.553-3.96-2.555-5.591-4.183c-16.156-16.132-31.8-32.776-47.956-48.907
	c-1.631-1.631-3.085-3.463-4.799-5.008c-1.298-1.173-2.773-0.563-3.984,0.493c-1.158,1.012-3.213,1.066-4.31,2.142
	c-2.381,2.334-4.472,4.962-6.87,7.278c-2.704,2.611-3.169,2.971-6.034,0.124c-10.008-9.943-19.943-19.961-29.923-29.935
	c-3.992-3.987-7.839-8.121-11.793-12.147c-0.888-0.904-1.55-1.938-2.146-3.038C294.342,44.928,293.906,44.09,294.146,43.431z
	 M288.931,48.527c0.537-0.325,1.767-0.265,2.297,0.046c1.086,0.638,2.373,1.252,3.273,2.151
	c13.976,13.939,28.03,27.802,41.98,41.765c0.716,0.721,0.422,2.238,0.849,3.132c0.277,0.579,0.639,1.227,0.269,1.684
	c-1.443,1.786-2.997,3.458-4.622,5.085c-13.764,13.788-26.941,28.162-40.718,41.939c-11.602,11.6-23.185,23.22-34.801,34.805
	c-1.445,1.443-2.909,2.969-4.472,4.281c-0.323,0.271-1.577-0.17-2.096-0.094c-1.841-0.962-3.204-2.556-3.789-4.647
	c-0.113-0.4-0.459-1.525-0.153-1.872c1.353-1.533,3.275-2.573,4.72-4.021c10.862-10.891,21.982-21.521,32.839-32.419
	c5.165-5.185,4.558-5.117-0.429-10.119c-11.221-11.258-21.521-23.433-32.741-34.688c-1.256-1.258-2.577-2.379-3.659-3.793
	c-0.237-0.31-0.63-0.865-0.397-1.172c1.083-1.414,2.243-2.788,3.498-4.049c8.496-8.543,17.181-16.898,25.702-25.416
	c3.263-3.262,6.635-6.413,9.921-9.649C287.312,50.579,287.851,49.18,288.931,48.527z M200.691,43.388
	c0.784-1.007,1.71-1.937,2.611-2.839c11.775-11.806,23.264-23.896,35.057-35.683c0.907-0.905,1.798-1.895,2.765-2.737
	c1.282-1.116,2.755-0.083,4.14,1.193c1.696,1.566,3.596,2.894,5.229,4.525c10.523,10.515,21.057,21.022,31.565,31.556
	c1.266,1.269,3.129,1.997,4.317,3.34c0.314,0.356,0.575,1.281,0.769,1.742c-0.134,0.478-0.145,1.59-0.429,1.95
	c-0.788,1.004-2.076,1.669-2.98,2.574c-11.96,11.98-24.181,23.702-36.158,35.667c-0.903,0.902-1.341,2.345-2.305,3.184
	c-0.725,0.632-2.528,0.015-3.328-0.684c-0.579-0.504-0.941-1.233-1.483-1.775c-12.516-12.515-25.647-24.416-38.144-36.949
	c-0.719-0.719-0.29-2.417-0.887-3.244C200.932,44.514,200.195,44.026,200.691,43.388z M198.894,49.024
	c0.767,0.678,1.46,1.456,2.184,2.181c11.964,11.952,24.23,23.607,36.173,35.583c1.246,1.25,3.047,2.795,3.378,4.729
	c-0.657,2.069-3.502,2.802-4.931,4.236c-10.492,10.525-20.756,21.281-31.263,31.795c-1.628,1.629-3.24,3.297-4.798,4.996
	c-1.373,1.498-0.662,2.888,0.837,4.518c1.388,1.507,2.827,2.935,4.274,4.385c10.32,10.338,20.776,20.537,31.088,30.885
	c1.443,1.448,2.46,3.344,3.831,4.862c0.67,0.742,0.331,2.099-0.4,2.984c-0.487,0.591-0.442,1.729-0.989,2.264
	c-1.439,1.406-3.311,1.049-4.572-0.121c-1.501-1.396-2.737-3.06-4.188-4.509c-20.478-20.474-41.569-40.335-62.042-60.813
	c-5.436-5.438-9.91-11.832-15.324-17.288c-0.896-0.902-1.976-1.521-2.616-2.604c-0.313-0.532-0.678-1.332-0.378-1.91
	c0.456-0.883,1.263-1.607,1.982-2.324c13.945-13.959,28.056-27.753,42.014-41.701c0.543-0.543,1.218-0.927,1.788-1.441
	C196.42,48.393,197.555,47.843,198.894,49.024z M63.721,136.605c-1.085-1.153-1.506-2.491-0.592-3.476
	c1.393-1.502,2.899-2.902,4.346-4.349c15.213-15.226,30.133-30.743,45.353-45.963c18.118-18.118,36.145-36.329,54.264-54.446
	c0.906-0.905,2.717-0.888,3.641-1.773c2.362-2.264,2.597-2.549,5.126-0.047c5.101,5.046,10.162,10.126,15.213,15.223
	c0.535,0.538,1.715,0.681,2.1,1.337c0.244,0.415,0.367,1.309,0.491,1.796c-0.176,0.471-0.244,1.456-0.531,1.844
	c-0.608,0.819-1.72,1.331-2.44,2.054c-13.944,13.959-28.148,27.657-42.113,41.596c-0.72,0.717-1.067,2.021-1.909,2.594
	c-0.652,0.444-1.959-0.024-2.57-0.577c-2.279-2.055-4.277-4.411-6.504-6.523c-1.857-1.765-4.257-2.944-6.141-4.678
	c-1.281-1.18-3.094-2.257-4.294-1.18c-1.714,1.539-3.183,3.389-4.814,5.016c-9.979,9.951-19.6,20.262-29.567,30.224
	c-6.523,6.522-13.069,13.022-19.611,19.525c-1.45,1.441-3.135,2.629-4.662,3.991c-0.71,0.631-1.572,0.433-2.425-0.273
	C65.295,137.866,64.419,137.349,63.721,136.605z M20.497,197.412c-0.526-0.529-0.903-1.333-1.19-2.021
	c-0.167-0.401-0.467-1.403-0.237-1.769c0.539-0.858,1.162-1.867,1.878-2.584c14.124-14.141,29.188-27.337,43.338-41.452
	c0.72-0.719,1.246-1.582,2.074-2.176c0.666-0.479,1.178-0.534,1.86-0.064c0.839,0.576,2.247,0.554,2.966,1.269
	c9.256,9.223,18.5,18.461,27.737,27.703c0.362,0.361,0.854,0.667,1.193,1.051c1.268,1.444,0.957,3.519-0.183,4.829
	c-0.671,0.771-1.614,1.307-2.337,2.03c-13.588,13.589-26.61,27.745-40.213,41.317c-1.256,1.253-2.933,2.193-4.975,2.768
	c-0.739-0.524-1.463-1.249-2.167-1.948C40.43,216.611,30.268,207.207,20.497,197.412z M62.711,313.653
	c-13.596-13.582-27.103-27.257-40.677-40.86c-0.899-0.9-2.084-1.648-2.842-2.67c-0.468-0.634-0.631-2.16-0.158-2.85
	c0.43-0.631,1.918-0.411,2.457-0.952c9.592-9.612,18.928-19.479,28.539-29.073c0.539-0.537,1.1-1,1.738-1.417
	c0.698-0.453,1.731-1.071,2.373-0.607c0.824,0.595,1.69,1.324,2.41,2.044c13.779,13.763,27.672,27.411,41.434,41.192
	c0.902,0.903,1.378,2.265,2.212,3.235c0.646,0.754,0.458,2.319-0.112,3.008c-0.815,0.986-1.043,2.553-1.944,3.457
	c-8.681,8.711-17.873,16.917-26.583,25.6c-0.901,0.899-2.103,1.449-3.129,2.2c-0.371,0.273-0.822,1.071-1.311,1.184
	c-0.472-0.173-0.504-1.435-0.878-1.73C65.24,314.619,63.614,314.556,62.711,313.653z M192.996,419.88
	c-0.583,0.834-1.226,1.68-1.936,2.395c-5.055,5.101-9.847,10.461-14.929,15.533c-0.18,0.181-0.314,0.464-0.505,0.635
	c-1.457,1.303-2.798,0.425-4.085-0.799c-1.671-1.591-3.549-2.952-5.181-4.585c-21.762-21.753-43.536-43.497-65.295-65.253
	c-11.424-11.422-23.461-22.233-34.874-33.665c-1.262-1.266-2.514-2.626-3.662-3.994c-0.277-0.332-0.695-1.718-0.547-2.108
	c0.757-2.015,2.947-3.309,4.824-4.219c0.355-0.172,1.179,0.312,1.507,0.595c1.744,1.501,4.035,2.458,5.664,4.083
	c16.337,16.301,32.156,33.12,48.484,49.432c1.631,1.629,3.046,3.494,4.74,5.06c1.499,1.388,2.938,0.693,4.551-0.864
	c3.133-3.031,7.138-5.16,10.264-8.197c0.91-0.883,1.619-1.88,2.666-2.595c0.341-0.232,0.876-0.664,1.194-0.438
	c1.241,0.884,2.436,1.863,3.518,2.933c5.651,5.591,11.104,11.379,16.727,16.998c7.436,7.433,14.763,14.973,22.173,22.431
	c1.439,1.446,2.893,2.861,4.191,4.44c0.286,0.346-0.051,0.865,0.064,1.353C192.483,419.292,193.131,419.685,192.996,419.88z
	 M198.485,414.734c-0.751,0.631-2.381,0.564-3.091-0.046c-1.164-0.999-2.659-1.686-3.744-2.768
	c-13.434-13.409-26.946-26.74-40.358-40.169c-0.902-0.902-0.774-2.773-1.61-3.739c-0.617-0.714-0.818-1.448-0.103-2.224
	c1.041-1.13,2.067-2.263,3.153-3.351c8.516-8.53,16.43-17.663,24.956-26.186c16.687-16.686,33.369-33.374,50.059-50.055
	c1.27-1.272,2.426-2.653,3.697-3.923c3.065-3.057,5.261-2.547,8.154,1.147c0.292,0.373,0.037,1.128,0.192,1.61
	c-0.16,0.473,0.423,1.539,0.12,1.889c-1.174,1.349-2.932,2.2-4.198,3.465c-10.33,10.346-20.911,20.44-31.244,30.782
	c-1.63,1.632-2.615,3.878-4.175,5.578c-1.433,1.559-2.366,3.18-0.794,4.867c1.572,1.689,3.458,3.108,5.089,4.741
	c10.692,10.707,21.743,21.059,32.431,31.772c3.89,3.899,3.88,4.151,0.085,7.961c-11.948,11.994-24.079,23.802-36.058,35.764
	C200.144,412.751,199.465,413.909,198.485,414.734z M285.826,420.883c-0.509,0.573-1.108,1.083-1.649,1.624
	c-12.484,12.496-24.666,25.292-37.17,37.769c-0.712,0.71-1.581,1.422-2.406,2.012c-0.192,0.141-0.874-1.04-1.117-0.976
	c-0.245-0.069-0.387,0.35-0.575,0.201c-0.996-0.788-2.028-1.503-2.924-2.395c-12.145-12.11-24.882-23.631-36.999-35.77
	c-0.898-0.9-1.755-1.936-2.565-2.92c-0.541-0.66-0.723-2.247-0.338-2.939c0.37-0.66,1.339-1.104,1.874-1.642
	c13.02-13.043,26.304-25.824,39.343-38.849c0.355-0.355,0.571-1.569,1.019-1.661c0.69-0.142,1.674,0.488,2.305,0.733
	c0.676,0.267,1.023,1.122,1.561,1.66c12.496,12.483,25.599,24.358,38.084,36.852c0.543,0.543,0.076,2.039,0.59,2.608
	C286.194,418.668,287.017,419.54,285.826,420.883z M291.578,414.295c-0.355,0.311-0.756,0.793-1.226,0.975
	c-0.486-0.115-1.167-0.233-1.534-0.508c-1.024-0.762-2.328-1.301-3.23-2.202c-12.165-12.14-24.405-24.205-36.552-36.362
	c-0.543-0.543-0.094-2.021-0.601-2.598c-1.001-1.142-1.378-1.876-0.47-2.861c1.215-1.317,2.436-2.618,3.701-3.886
	c10.512-10.528,20.429-21.647,30.927-32.185c1.624-1.631,3.118-3.346,4.652-5.062c0.597-0.667,0.473-1.228-0.12-1.894
	c-1.533-1.718-2.654-3.786-4.278-5.415c-9.96-9.99-19.696-20.205-29.673-30.178c-1.27-1.268-3.122-1.963-4.383-3.241
	c-2.976-3.016-2.611-4.755,1.403-7.812c0.802-0.608,1.907-0.279,2.693,0.366c0.594,0.484,1.787,0.311,2.346,0.837
	c0.932,0.881,0.878,2.772,1.785,3.678c25.575,25.572,51.381,50.913,76.969,76.471c5.217,5.215,5.569,4.645,0.377,9.821
	c-12.714,12.678-25.428,25.356-38.137,38.039C294.778,411.723,293.116,412.942,291.578,414.295z M424.467,328.362
	c-0.11,0.485,0.227,1.428-0.05,1.783c-0.78,1.003-1.601,2.096-2.502,2.995c-34.262,34.272-69.459,67.608-103.735,101.866
	c-1.084,1.082-1.889,2.414-3.129,3.296c-0.508,0.36-1.246,0.257-1.948,0.158c-0.457-0.065-1.393,0.214-1.748-0.141
	c-5.455-5.422-10.903-10.854-16.335-16.301c-0.359-0.359-0.831-0.755-1.143-1.16c-0.561-0.733-0.233-2.906,0.301-3.57
	c0.796-0.996,1.841-1.802,2.741-2.702c13.765-13.792,26.979-28.137,40.77-41.905c0.723-0.721,2.035-0.857,2.823-1.508
	c0.742-0.612,1.877-0.319,2.648,0.395c1.315,1.216,3.219,1.822,4.496,3.081c2.19,2.158,3.383,5.341,5.592,7.482
	c0.729,0.705,1.874,1.256,2.771,1.686c0.614,0.292,1.78-0.057,2.339-0.365c1.1-0.602,2.117-1.422,3.017-2.313
	c5.649-5.593,11.414-11.068,17.034-16.688c11.607-11.604,23.325-23.09,34.939-34.686c1.631-1.629,3.158-3.353,4.854-4.914
	c1.077-0.993,1.731-0.717,2.981,0.368c0.772,0.671,2.016,0.858,2.694,1.619C424.199,327.201,424.259,327.899,424.467,328.362z
	 M464.853,273.064c-6.134,6.183-12.387,12.25-18.544,18.409c-6.883,6.885-13.454,14.082-20.359,20.945
	c-1.448,1.439-2.946,2.894-4.483,4.238c-0.679,0.593-2.179-0.478-2.925-1.071c-0.602-0.474-1.44-0.616-1.98-1.155
	c-9.246-9.232-18.501-18.452-27.721-27.71c-0.712-0.718-2.15-1.1-2.564-2.001c-0.274-0.598-0.249-2.315,0.111-2.777
	c1.409-1.809,2.875-3.712,4.495-5.337c10.848-10.889,22.094-21.383,32.966-32.247c2.173-2.175,4.581-4.112,6.78-6.261
	c3.785-3.7,4.349-4.279,8.364-0.276c8.707,8.683,16.906,17.874,25.576,26.592c1.241,1.249,2.005,2.74,3.013,3.91
	C467.152,270.592,466.097,271.81,464.853,273.064z"/>
</svg>
