<?xml version="1.0" encoding="utf-8"?>
<!-- Generator: Adobe Illustrator 17.0.0, SVG Export Plug-In . SVG Version: 6.00 Build 0)  -->
<!DOCTYPE svg PUBLIC "-//W3C//DTD SVG 1.1//EN" "http://www.w3.org/Graphics/SVG/1.1/DTD/svg11.dtd">
<svg version="1.1" id="Layer_1" xmlns="http://www.w3.org/2000/svg" xmlns:xlink="http://www.w3.org/1999/xlink" x="0px" y="0px"
	 width="60px" height="60px" viewBox="0 0 60 60" enable-background="new 0 0 60 60" xml:space="preserve">
<ellipse cx="-8.993" cy="-37.053" rx="30" ry="29.875"/>
<g>
	<path fill="#FFFFFF" d="M-24.865-40.631c-0.711,0.274-1.219,0.914-1.315,1.671c-0.101,0.757,0.219,1.51,0.838,1.956l6.753,4.914
		L5.406-50.964l-21.217,20.901l9.237,6.717C-5.99-22.92-5.233-22.787-4.532-23c0.696-0.213,1.25-0.741,1.504-1.423l9.877-27.039
		c0.101-0.274,0.031-0.584-0.178-0.787c-0.208-0.204-0.512-0.269-0.787-0.163L-24.865-40.631z M-24.865-40.631"/>
	<path fill="#FFFFFF" d="M-20.191-30.454l0.056,0.316l1.311,7.163c0.096,0.535,0.453,0.981,0.95,1.199
		c0.493,0.213,1.068,0.168,1.519-0.126c1.825-1.18,4.213-2.739,4.146-2.83L-20.191-30.454z M-20.191-30.454"/>
</g>
<g id="Layer_3">
	<g>
		<g>
			<path fill="#FFFFFF" d="M165.75-23.946h-25.86c-0.534,0-0.967-0.432-0.967-0.966v-34.077c0-0.534,0.433-0.967,0.967-0.967h17.32
				c0.25,0,0.49,0.097,0.67,0.27l8.54,8.217c0.189,0.182,0.296,0.434,0.296,0.696v25.86
				C166.716-24.378,166.283-23.946,165.75-23.946z M140.856-25.879h23.927v-24.482l-7.962-7.662h-15.965V-25.879z"/>
		</g>
		<g>
			<path fill="#FFFFFF" d="M150.201-45.816h-6.102c-0.534,0-0.967-0.433-0.967-0.967s0.433-0.967,0.967-0.967h6.101
				c0.534,0,0.966,0.433,0.966,0.967S150.735-45.816,150.201-45.816z"/>
		</g>
		<g>
			<path fill="#FFFFFF" d="M150.201-42.03h-6.102c-0.534,0-0.967-0.433-0.967-0.967s0.433-0.967,0.967-0.967h6.101
				c0.534,0,0.966,0.433,0.966,0.967S150.735-42.03,150.201-42.03z"/>
		</g>
		<g>
			<path fill="#FFFFFF" d="M162.124-42.03h-7.551c-0.534,0-0.967-0.433-0.967-0.967s0.433-0.967,0.967-0.967h7.552
				c0.534,0,0.967,0.433,0.967,0.967S162.658-42.03,162.124-42.03z"/>
		</g>
		<g>
			<path fill="#FFFFFF" d="M162.124-38.243h-7.551c-0.534,0-0.967-0.433-0.967-0.967s0.433-0.967,0.967-0.967h7.552
				c0.534,0,0.967,0.433,0.967,0.967C163.092-38.676,162.658-38.243,162.124-38.243z"/>
		</g>
		<g>
			<path fill="#FFFFFF" d="M162.124-35.101h-7.551c-0.534,0-0.967-0.433-0.967-0.967c0-0.534,0.433-0.967,0.967-0.967h7.552
				c0.534,0,0.967,0.433,0.967,0.967C163.092-35.534,162.658-35.101,162.124-35.101z"/>
		</g>
		<g>
			<path fill="#FFFFFF" d="M162.124-31.315h-7.551c-0.534,0-0.967-0.433-0.967-0.967s0.433-0.967,0.967-0.967h7.552
				c0.534,0,0.967,0.433,0.967,0.967C163.092-31.748,162.658-31.315,162.124-31.315z"/>
		</g>
		<g>
			<path fill="#FFFFFF" d="M165.759-49.805c-0.002,0-0.006,0-0.009,0h-8.54c-0.534,0-0.967-0.433-0.967-0.967v-8.217
				c0-0.388,0.231-0.738,0.588-0.89c0.357-0.151,0.77-0.077,1.049,0.193l8.463,8.143c0.233,0.177,0.383,0.456,0.383,0.771
				C166.726-50.238,166.293-49.805,165.759-49.805z M158.177-51.739h5.174l-5.174-4.979V-51.739z"/>
		</g>
	</g>
</g>
<g>
	<circle cx="30" cy="30" r="30"/>
	<g>
		<path fill="#FFFFFF" d="M45.151,17.541H14.842c-1.718,0-3.116,1.437-3.116,3.203v18.511c0,1.767,1.398,3.205,3.116,3.205h30.308
			c1.722,0,3.123-1.438,3.123-3.205V20.743C48.274,18.977,46.873,17.541,45.151,17.541z M14.842,18.528h30.308
			c1.178,0,2.135,0.994,2.135,2.215v1.425H12.713v-1.425C12.713,19.522,13.669,18.528,14.842,18.528z M45.151,41.47H14.842
			c-1.174,0-2.128-0.994-2.128-2.217V23.155h34.573v16.098C47.286,40.476,46.328,41.47,45.151,41.47z"/>
		<circle fill="#FFFFFF" cx="15.193" cy="20.36" r="0.939"/>
		<circle fill="#FFFFFF" cx="17.699" cy="20.36" r="0.939"/>
		<circle fill="#FFFFFF" cx="20.204" cy="20.36" r="0.939"/>
		<path fill="#FFFFFF" d="M41.442,26.488H19.217c-0.273,0-0.493,0.221-0.493,0.493c0,0.272,0.221,0.493,0.493,0.493h22.225
			c0.273,0,0.493-0.221,0.493-0.493C41.936,26.709,41.715,26.488,41.442,26.488z"/>
		<path fill="#FFFFFF" d="M41.442,29.397H19.217c-0.273,0-0.493,0.221-0.493,0.493c0,0.272,0.221,0.493,0.493,0.493h22.225
			c0.273,0,0.493-0.221,0.493-0.493C41.936,29.618,41.715,29.397,41.442,29.397z"/>
		<path fill="#FFFFFF" d="M41.442,32.305H19.217c-0.273,0-0.493,0.221-0.493,0.493c0,0.272,0.221,0.493,0.493,0.493h22.225
			c0.273,0,0.493-0.221,0.493-0.493C41.936,32.526,41.715,32.305,41.442,32.305z"/>
		<path fill="#FFFFFF" d="M41.442,35.213H19.217c-0.273,0-0.493,0.221-0.493,0.493s0.221,0.493,0.493,0.493h22.225
			c0.273,0,0.493-0.221,0.493-0.493S41.715,35.213,41.442,35.213z"/>
	</g>
</g>
</svg>
