<?xml version="1.0" encoding="utf-8"?>
<!-- Generator: Adobe Illustrator 17.0.0, SVG Export Plug-In . SVG Version: 6.00 Build 0)  -->
<!DOCTYPE svg PUBLIC "-//W3C//DTD SVG 1.1//EN" "http://www.w3.org/Graphics/SVG/1.1/DTD/svg11.dtd">
<svg version="1.1" id="Layer_1" xmlns="http://www.w3.org/2000/svg" xmlns:xlink="http://www.w3.org/1999/xlink" x="0px" y="0px"
	 width="442.589px" height="471.193px" viewBox="0 0 442.589 471.193" enable-background="new 0 0 442.589 471.193"
	 xml:space="preserve">
<path d="M431.738,246.646c-1.562-3.743-2.208-7.183-2.208-10.495c-0.001-5.118,1.552-9.963,3.755-15.106
	c6.16-14.396,9.229-28.965,9.229-43.664c0-11.564-1.899-23.205-5.681-34.902c-7.12-22.03-18.029-40.158-32.91-53.784
	c-11.137-10.199-24.498-17.868-40.131-22.775c-8.111-2.974-16.514-5.005-25.176-6.008c-4.65-1.373-8.853-3.158-12.716-5.45
	c-3.575-2.121-6.86-4.691-9.956-7.758c-2.592-3.355-5.29-6.545-8.097-9.56c-12.686-15.914-29.72-25.846-48.94-31.409
	c-8.538-2.705-17.548-4.425-26.993-5.114C227.669,0.213,223.484,0,219.369,0c-27.493-0.008-52.024,9.144-73.028,27.967
	c-6.896,5.985-13.259,12.885-19.053,20.655c-2.83,3.049-5.8,5.489-9.056,7.359c-4.373,2.51-9.27,4.002-15.086,4.549
	c-25.982,2.428-48.07,13.977-65.791,32.645c-23.406,24.65-35.228,51.816-35.223,81.078c0,15.285,3.222,31.133,9.669,47.488
	c0.613,1.644,1.257,3.281,1.921,4.915c0.904,2.723,1.279,5.283,1.281,7.779c0,5.102-1.548,9.979-3.24,15.35
	c-0.62,1.977-1.215,3.961-1.794,5.95c-2.396,6.676-4.16,13.312-5.325,19.9c-1.486,5.885-2.944,11.775-4.481,17.637L0,293.893
	l0.628,0.124c0.767,0.15,1.533,0.303,2.3,0.454c0,0.177-0.006,0.355-0.006,0.532v0.006v0.006c0,1.022,0.027,2.041,0.056,3.06
	c-0.319,2.651-0.487,5.278-0.487,7.87c0,17.792,7.128,34.125,15.852,48.32c19.147,31.166,47.153,52.934,85.583,56.5
	c5.708,0.531,10.543,1.968,14.779,4.424c4.235,2.456,7.887,5.94,11.195,10.607c15.57,21.969,37.195,35.65,63.252,41.58
	c11.126,2.532,21.859,3.817,32.178,3.817c34.966,0.01,65.13-14.777,89.335-45.398c3.693-4.672,7.562-8.19,11.945-10.678
	c4.386-2.487,9.297-3.952,15.116-4.483c25.89-2.362,47.862-13.962,65.505-32.499c23.47-24.645,35.362-51.846,35.358-81.162
	C442.589,280.81,438.979,264.011,431.738,246.646z M12.249,332.822c-3.676-12.003-5.502-25.933-5.499-39.541
	c-0.003-9.347,0.867-18.532,2.555-26.841c1.069-4.007,2.361-8.032,3.896-12.077c1.012-2.671,2.729-5.791,4.213-8.851
	c0.413-0.854,0.805-1.702,1.162-2.544c5.555,4.637,10.953,9.567,16.409,14.419c1.441,1.525,2.913,3.021,4.462,4.445
	c15.593,14.329,33.242,25.176,54.104,29.347c7.771,2.493,15.688,4.857,23.504,7.634c-8.66,17.442-13.123,35.482-13.123,53.795
	c0,18.4,4.508,37.068,13.724,55.684c-21.229-0.688-39.466-6.174-55.264-15.64c-16.045-9.612-29.588-23.326-41.179-40.285
	c-0.176-0.256-0.337-0.536-0.51-0.798C17.348,345.398,14.522,339.146,12.249,332.822z M393.101,84.713
	c11.888,9.097,22.122,20.919,30.32,35.261c6.049,10.584,10.331,21.443,12.883,32.4c0.958,4.551,1.741,9.127,2.287,13.705
	c0.352,3.508,0.531,7.018,0.531,10.525c0,13.817-2.742,27.588-8.184,40.974c-0.157,0.305-0.306,0.61-0.468,0.914
	c-1.02,1.908-1.807,3.772-2.412,5.602c-0.657,1.377-1.34,2.749-2.056,4.115c-5.578-4.663-11.065-9.731-16.676-14.743
	c-13.833-14.693-30.633-25.463-50.634-31.463c-2.299-0.689-4.626-1.263-6.966-1.787c-7.407-2.377-14.674-4.523-21.351-6.908
	c1.191-6.736,2.806-13.758,4.333-20.955c3.85-10.443,5.327-21.076,5.327-31.726c0-9.351-1.129-18.719-2.77-28.018
	c-0.672-3.791-1.733-7.49-2.984-11.134c-1.293-6.236-2.609-12.41-3.646-18.494c16.342,0.548,31.523,4.29,45.15,10.991
	C381.738,77.028,387.519,80.608,393.101,84.713z M412.93,367.741c-7.608,8.445-17.565,16.391-28.566,22.982
	c-10.447,6.264-21.824,11.301-32.978,14.443c-6.96,1.369-14.165,2.293-21.288,3.524c-0.77,0.026-1.54,0.057-2.297,0.057
	c-0.312,0-0.618-0.009-0.928-0.015c9.094-18.38,13.658-36.781,13.657-55.311c0-19.159-4.882-38.455-14.598-58.004
	c21.339-1.287,40.216-6.446,56.626-15.693c15.642-8.811,29.035-21.327,40.193-37.679c0.56-0.678,1.123-1.35,1.687-2.02
	c9.397,18.133,13.646,35.989,13.648,53.722c0,18.22-4.483,36.317-12.464,54.435C422.018,355.338,417.77,361.844,412.93,367.741z
	 M287.425,447.615c-4.623,3.329-9.389,6.251-14.275,8.776c-15.094,7.3-32.202,11.109-50.806,11.113
	c-20.561,0-39.291-4.645-55.74-13.929c-16.193-9.142-30.178-22.794-41.504-40.974c41.463-2.42,73.669-21.52,95.097-54.197
	c6.938,5.889,13.505,12.118,20.152,18.066c0.527,0.565,1.045,1.137,1.589,1.688c15.496,15.685,33.915,25.633,54.649,30.407
	c7.171,2.367,14.321,4.591,21.146,7.094c-4.003,6.433-8.478,12.302-13.384,17.591C299.295,438.334,293.662,443.121,287.425,447.615z
	 M6.909,164.275c1.128-7.249,2.464-14.75,4.368-21.985c2.495-7.562,5.828-15.021,10.02-22.348
	c6.994-12.22,15.462-22.612,25.173-31.047c0.146-0.126,0.292-0.253,0.439-0.378c0.376-0.323,0.759-0.636,1.138-0.952
	c2.175-1.796,4.406-3.514,6.707-5.139c4.065-2.869,8.334-5.466,12.809-7.779c13.982-7.132,29.643-11.108,46.551-11.666
	c-1.026,5.999-2.332,12.105-3.619,18.287c-1.283,3.71-2.373,7.477-3.058,11.34c-1.64,9.3-2.77,18.668-2.77,28.019
	c-0.001,10.591,1.461,21.164,5.265,31.552c1.64,7.828,3.44,15.74,4.87,23.809c-38.533,2.309-71.268,20.318-94.22,55.23
	c-0.061,0.059-0.124,0.118-0.186,0.178c-9.638-18.475-14.433-36.924-14.553-55.017C5.939,172.376,6.274,168.345,6.909,164.275z
	 M166.588,17.626c16.448-9.286,35.173-13.935,55.735-13.943h0.004h0.048c20.555,0.002,39.275,4.649,55.721,13.934
	c16.191,9.142,30.174,22.795,41.515,40.962c-20.671,1.222-39.064,6.569-55.237,16.126c-16.127,9.527-30.038,23.238-41.832,41.14
	c-0.421-0.46-0.844-0.916-1.27-1.366c-5.131-7.613-10.655-14.449-16.581-20.512c-4.237-4.622-8.912-8.684-13.907-12.254
	c-3.369-2.534-6.841-4.874-10.429-6.995c-16.171-9.562-34.569-14.916-55.261-16.121C136.42,40.425,150.398,26.772,166.588,17.626z
	 M316.182,62.163c0.764-0.032,1.518-0.048,2.263-0.048c1.376,0,2.714,0.06,4.016,0.173c9.126,14.388,13.753,35.693,13.748,56.68
	c0.004,11.757-1.453,23.407-4.343,33.684c-0.528,1.365-1.094,2.727-1.709,4.083c-1.738,3.83-3.153,7.773-4.522,11.704
	c-0.982,1.816-2.034,3.528-3.151,5.132c-32.154-18.56-64.355-37.148-96.518-55.712c0.208-0.487,0.429-0.976,0.662-1.465
	c4.503-5.993,8.91-12.02,13.716-17.654c0.751-0.88,1.515-1.736,2.283-2.581c9.758-8.949,22.308-17.169,35.286-23.283
	c9.555-4.506,19.338-7.862,28.391-9.547C309.549,62.83,312.846,62.447,316.182,62.163z M25.58,229.514
	c2.841-4.073,5.857-7.913,9.047-11.521c7.187-7.508,16.35-14.599,26.372-20.575c17.678-10.553,38.015-17.645,54.719-17.64
	c0.791,0,1.567,0.027,2.342,0.06c0,37.082,0,74.185,0,111.263c-20.822-1.035-39.112-6.249-55.005-15.535
	c-15.968-9.33-29.524-22.768-40.794-40.223c0.788-1.71,1.713-3.424,2.765-5.137C25.21,229.975,25.407,229.76,25.58,229.514z
	 M383.359,273.933c-11.742,7.09-24.539,12.576-36.519,15.404c-1.712,0.27-3.44,0.508-5.195,0.685
	c-3.058,0.309-6.073,0.816-9.062,1.374c-0.781,0.031-1.561,0.062-2.326,0.062c-1.243,0-2.455-0.05-3.648-0.136
	c0-37.086,0-74.2,0-111.211c20.881,1.024,39.194,6.246,55.091,15.539c15.968,9.332,29.507,22.775,40.758,40.218
	C415.647,249.608,400.652,263.499,383.359,273.933z M321.695,288.829c-10.783-15.488-23.228-27.889-37.645-36.912
	c-13.586-8.506-28.923-14.005-46.223-16.304c17.244-2.354,32.566-7.828,46.156-16.321c14.424-9.011,26.899-21.419,37.711-37.034
	C321.695,218.275,321.695,252.806,321.695,288.829z M266.662,195.425c14.872-8.635,31.904-13.65,51.146-14.928
	c-10.745,15.999-23.603,28.244-38.513,36.812c-14.907,8.564-31.871,13.455-50.829,14.752c1.939-2.877,3.948-5.641,6.028-8.284
	c8.773-8.599,17.377-17.323,26.769-24.993C263.031,197.61,264.829,196.489,266.662,195.425z M235.087,294.405
	c0,17.206-4.272,34.385-12.82,51.555c-0.589-0.758-1.156-1.562-1.703-2.408c-1.323-3.487-2.671-6.983-4.207-10.42
	c-1.252-2.799-2.324-5.61-3.244-8.433c-1.94-8.283-2.927-17.667-2.926-27.325c-0.004-19.571,4.025-40.193,12.028-54.784
	C230.791,259.902,235.087,277.171,235.087,294.405z M158.08,185.698c5.985,2.535,12.175,5.792,18.309,9.652
	c15.02,9.445,29.688,22.423,40.223,36.743c-19.125-1.334-36.173-6.216-51.104-14.739c-15.041-8.588-27.939-20.869-38.653-36.938
	c1.129-0.262,2.314-0.447,3.552-0.559C140.104,180.919,149.347,182.826,158.08,185.698z M127.302,289.374
	c3.12-3.94,6.265-7.891,9.21-12.012c1.863-2.605,3.877-4.996,5.993-7.238c18.058-15.674,47.588-28.957,73.926-31.303
	c-10.716,15.905-23.48,28.228-38.337,36.895c-14.947,8.715-32.024,13.738-51.281,14.998
	C126.971,290.268,127.116,289.823,127.302,289.374z M160.711,219.279c13.604,8.504,28.939,13.977,46.201,16.319
	c-17.275,2.336-32.615,7.809-46.223,16.318c-14.424,9.018-26.897,21.444-37.706,37.088c0-36.086,0-70.63,0-106.782
	C133.804,197.852,146.285,210.266,160.711,219.279z M235.076,176.9c0,17.231-4.285,34.433-12.835,51.626
	c-8-11.908-12.084-31.505-12.079-51.265c-0.005-19.725,4.062-39.58,12.074-52.083C230.804,142.462,235.076,159.699,235.076,176.9z
	 M295.22,288.374c-1.651-0.52-3.326-1.088-5.028-1.727c-12.07-4.528-25.22-11.928-36.588-20.562
	c-10.986-8.339-20.299-17.838-25.408-26.959c3.097,0.211,6.141,0.512,9.127,0.911c12.476,3.548,25.071,6.574,36.978,11.173
	c1.694,0.854,3.368,1.742,5.011,2.685c14.99,8.597,27.85,20.874,38.557,36.87c-1.502,0.355-3.142,0.557-4.902,0.609
	C306.831,290.423,300.879,289.59,295.22,288.374z M230.173,222.061c6.111-14.668,9.088-29.259,9.087-43.893
	c0-18.475-4.733-37.011-13.758-55.87c31.789,18.355,61.752,35.654,93.223,53.825C281.801,179.258,252.171,193.548,230.173,222.061z
	 M225.538,348.879c9.23-19.384,13.99-38.392,13.99-56.559c0-14.147-2.885-27.783-8.756-40.668c2.923,2.347,6.001,4.968,9.232,7.696
	c11.778,11.913,25.844,21.003,41.409,27.524c5.172,2.161,10.626,3.536,16.26,4.612c5.975,1.895,11.871,3.686,17.475,5.642
	C287.436,313.132,257.437,330.457,225.538,348.879z M215.4,124.802c-3.076,15.75-8.227,32.561-8.603,49.557
	c-0.014,0.665-0.021,1.329-0.021,1.994c0.003,15.767,3.938,31.438,5.956,43.979c-18.974-26.142-48.953-41.041-86.789-44.188
	c30.246-17.463,58.983-34.052,85.854-49.565C212.997,125.985,214.198,125.394,215.4,124.802z M214.566,249.118
	c-6.124,14.684-9.116,29.287-9.116,43.941c0,18.448,4.737,36.971,13.817,55.859c-31.803-18.354-61.739-35.636-93.277-53.838
	C162.934,291.934,192.574,277.585,214.566,249.118z M313.725,408.744c-6.423-0.608-12.636-1.67-18.645-3.167
	c-1.188-0.385-2.385-0.791-3.59-1.228c-13.253-4.799-27.396-12.643-39.379-21.81c-5.016-3.834-9.643-7.903-13.678-12.071
	c-3.891-4.65-7.495-9.644-11.204-14.585c-0.471-0.843-0.91-1.684-1.312-2.522c32.154-18.561,64.342-37.142,96.677-55.807
	c1.538,2.615,2.946,5.363,4.225,8.225c2.182,5.898,4.26,11.781,5.982,17.75c2.308,9.562,3.461,19.71,3.46,29.833
	c0.003,20.189-4.589,40.267-13.652,55.372c-1.605,0.341-3.324,0.544-5.14,0.617C316.246,409.089,315,408.866,313.725,408.744z
	 M179.316,79.525c12.106,7.412,23.25,16.585,31.322,26.268c0.182,0.28,0.377,0.547,0.556,0.831c1.138,1.798,2.472,3.434,3.87,4.995
	c1.412,2.055,2.678,4.118,3.764,6.184c-32.154,18.565-64.33,37.141-96.659,55.805c-1.233-1.934-2.381-3.995-3.447-6.161
	c-1.263-3.602-2.582-7.204-4.173-10.711c-0.234-0.516-0.453-1.032-0.675-1.55c-3.589-11.525-5.39-24.694-5.386-37.77
	c-0.006-21.014,4.646-41.773,13.765-55.056c1.721-0.249,3.526-0.375,5.404-0.391c4.789,0.257,9.517,0.813,14.174,1.67
	C153.803,66.307,167.047,72.004,179.316,79.525z M108.484,352.783c-0.002-8.804,0.823-17.579,2.446-25.804
	c0.474-1.698,0.971-3.389,1.506-5.07c2.073-6.524,4.54-12.951,6.854-19.488c0.912-1.691,1.887-3.291,2.914-4.809
	c32.157,18.561,64.355,37.145,96.512,55.705c-0.66,1.633-1.487,3.29-2.466,4.96c-1.827,1.951-3.599,3.993-5.055,6.293
	c-0.961,1.522-1.982,2.97-3.031,4.384c-1.076,1.169-2.207,2.334-3.392,3.491c-9.977,9.755-23.588,18.973-37.493,25.739
	c-7.394,3.6-14.87,6.494-21.926,8.424c-5.691,0.996-11.57,1.691-17.377,2.649c-2.003-0.003-3.902-0.151-5.682-0.442
	c-4.345-7.772-7.696-15.868-10.106-24.354C109.73,374.539,108.482,363.65,108.484,352.783z"/>
</svg>
