<?xml version="1.0" encoding="utf-8"?>
<!-- Generator: Adobe Illustrator 17.0.0, SVG Export Plug-In . SVG Version: 6.00 Build 0)  -->
<!DOCTYPE svg PUBLIC "-//W3C//DTD SVG 1.1//EN" "http://www.w3.org/Graphics/SVG/1.1/DTD/svg11.dtd">
<svg version="1.1" id="Layer_1" xmlns="http://www.w3.org/2000/svg" xmlns:xlink="http://www.w3.org/1999/xlink" x="0px" y="0px"
	 width="60px" height="60px" viewBox="0 0 60 60" enable-background="new 0 0 60 60" xml:space="preserve">
<ellipse cx="-8.993" cy="-37.053" rx="30" ry="29.875"/>
<g>
	<path fill="#FFFFFF" d="M-24.865-40.631c-0.711,0.274-1.219,0.914-1.315,1.671c-0.101,0.757,0.219,1.51,0.838,1.956l6.753,4.914
		L5.406-50.964l-21.217,20.901l9.237,6.717C-5.99-22.92-5.233-22.787-4.532-23c0.696-0.213,1.25-0.741,1.504-1.423l9.877-27.039
		c0.101-0.274,0.031-0.584-0.178-0.787c-0.208-0.204-0.512-0.269-0.787-0.163L-24.865-40.631z M-24.865-40.631"/>
	<path fill="#FFFFFF" d="M-20.191-30.454l0.056,0.316l1.311,7.163c0.096,0.535,0.453,0.981,0.95,1.199
		c0.493,0.213,1.068,0.168,1.519-0.126c1.825-1.18,4.213-2.739,4.146-2.83L-20.191-30.454z M-20.191-30.454"/>
</g>
<circle cx="30" cy="30" r="30"/>
<g id="Layer_3">
	<g>
		<g>
			<path fill="#FFFFFF" d="M165.75-23.946h-25.86c-0.534,0-0.967-0.432-0.967-0.966v-34.077c0-0.534,0.433-0.967,0.967-0.967h17.32
				c0.25,0,0.49,0.097,0.67,0.27l8.54,8.217c0.189,0.182,0.296,0.434,0.296,0.696v25.86
				C166.716-24.378,166.283-23.946,165.75-23.946z M140.856-25.879h23.927v-24.482l-7.962-7.662h-15.965V-25.879z"/>
		</g>
		<g>
			<path fill="#FFFFFF" d="M150.201-45.816h-6.102c-0.534,0-0.967-0.433-0.967-0.967s0.433-0.967,0.967-0.967h6.101
				c0.534,0,0.966,0.433,0.966,0.967S150.735-45.816,150.201-45.816z"/>
		</g>
		<g>
			<path fill="#FFFFFF" d="M150.201-42.03h-6.102c-0.534,0-0.967-0.433-0.967-0.967s0.433-0.967,0.967-0.967h6.101
				c0.534,0,0.966,0.433,0.966,0.967S150.735-42.03,150.201-42.03z"/>
		</g>
		<g>
			<path fill="#FFFFFF" d="M162.124-42.03h-7.551c-0.534,0-0.967-0.433-0.967-0.967s0.433-0.967,0.967-0.967h7.552
				c0.534,0,0.967,0.433,0.967,0.967S162.658-42.03,162.124-42.03z"/>
		</g>
		<g>
			<path fill="#FFFFFF" d="M162.124-38.243h-7.551c-0.534,0-0.967-0.433-0.967-0.967s0.433-0.967,0.967-0.967h7.552
				c0.534,0,0.967,0.433,0.967,0.967C163.092-38.676,162.658-38.243,162.124-38.243z"/>
		</g>
		<g>
			<path fill="#FFFFFF" d="M162.124-35.101h-7.551c-0.534,0-0.967-0.433-0.967-0.967c0-0.534,0.433-0.967,0.967-0.967h7.552
				c0.534,0,0.967,0.433,0.967,0.967C163.092-35.534,162.658-35.101,162.124-35.101z"/>
		</g>
		<g>
			<path fill="#FFFFFF" d="M162.124-31.315h-7.551c-0.534,0-0.967-0.433-0.967-0.967s0.433-0.967,0.967-0.967h7.552
				c0.534,0,0.967,0.433,0.967,0.967C163.092-31.748,162.658-31.315,162.124-31.315z"/>
		</g>
		<g>
			<path fill="#FFFFFF" d="M165.759-49.805c-0.002,0-0.006,0-0.009,0h-8.54c-0.534,0-0.967-0.433-0.967-0.967v-8.217
				c0-0.388,0.231-0.738,0.588-0.89c0.357-0.151,0.77-0.077,1.049,0.193l8.463,8.143c0.233,0.177,0.383,0.456,0.383,0.771
				C166.726-50.238,166.293-49.805,165.759-49.805z M158.177-51.739h5.174l-5.174-4.979V-51.739z"/>
		</g>
	</g>
</g>
<g>
	<g id="Layer_2_1_">
		<g>
			<path fill="#FFFFFF" d="M26.428,23.049c-3.936,0-7.127,3.191-7.127,7.127c0,3.149,2.042,5.82,4.874,6.762
				c0.356,0.066,0.487-0.155,0.487-0.343c0-0.17-0.007-0.731-0.009-1.327c-1.983,0.431-2.401-0.841-2.401-0.841
				c-0.324-0.824-0.791-1.043-0.791-1.043c-0.647-0.442,0.049-0.433,0.049-0.433c0.716,0.05,1.092,0.735,1.092,0.735
				c0.636,1.09,1.667,0.775,2.074,0.592c0.064-0.461,0.249-0.775,0.452-0.953c-1.583-0.18-3.247-0.791-3.247-3.522
				c0-0.778,0.278-1.414,0.734-1.913c-0.074-0.18-0.318-0.904,0.069-1.886c0,0,0.599-0.191,1.96,0.731
				c0.569-0.158,1.178-0.237,1.784-0.24c0.606,0.003,1.216,0.082,1.786,0.24c1.36-0.922,1.958-0.731,1.958-0.731
				c0.388,0.982,0.144,1.706,0.07,1.886c0.457,0.499,0.733,1.135,0.733,1.913c0,2.737-1.667,3.34-3.254,3.516
				c0.256,0.221,0.484,0.655,0.484,1.32c0,0.954-0.008,1.721-0.008,1.956c0,0.19,0.128,0.412,0.489,0.342
				c2.83-0.943,4.87-3.614,4.87-6.762C33.555,26.24,30.364,23.049,26.428,23.049z"/>
			<path fill="#FFFFFF" d="M22,33.282c-0.016,0.036-0.072,0.046-0.122,0.022c-0.052-0.023-0.081-0.072-0.064-0.107
				c0.015-0.036,0.071-0.047,0.123-0.022C21.989,33.198,22.018,33.246,22,33.282L22,33.282z"/>
			<path fill="#FFFFFF" d="M22.289,33.604c-0.034,0.032-0.1,0.017-0.145-0.033c-0.047-0.05-0.055-0.116-0.021-0.148
				c0.035-0.032,0.1-0.017,0.146,0.033C22.316,33.506,22.325,33.572,22.289,33.604L22.289,33.604z"/>
			<path fill="#FFFFFF" d="M22.57,34.015c-0.044,0.03-0.115,0.002-0.159-0.061c-0.044-0.063-0.044-0.14,0.001-0.17
				c0.044-0.03,0.115-0.003,0.159,0.06C22.615,33.908,22.615,33.983,22.57,34.015L22.57,34.015z"/>
			<path fill="#FFFFFF" d="M22.955,34.411c-0.039,0.043-0.122,0.032-0.183-0.027c-0.062-0.057-0.079-0.139-0.041-0.182
				c0.04-0.043,0.123-0.031,0.185,0.027C22.978,34.286,22.997,34.369,22.955,34.411L22.955,34.411z"/>
			<path fill="#FFFFFF" d="M23.486,34.641c-0.017,0.056-0.097,0.081-0.178,0.057c-0.081-0.025-0.133-0.09-0.117-0.146
				c0.017-0.056,0.097-0.083,0.179-0.057C23.45,34.52,23.503,34.584,23.486,34.641L23.486,34.641z"/>
			<path fill="#FFFFFF" d="M24.069,34.684c0.002,0.059-0.066,0.108-0.151,0.109c-0.085,0.002-0.154-0.045-0.155-0.104
				c0-0.059,0.067-0.108,0.152-0.109C24,34.578,24.069,34.626,24.069,34.684L24.069,34.684z"/>
			<path fill="#FFFFFF" d="M24.612,34.592c0.01,0.057-0.049,0.116-0.133,0.132c-0.083,0.015-0.159-0.02-0.17-0.077
				c-0.01-0.059,0.05-0.118,0.132-0.133C24.526,34.499,24.602,34.533,24.612,34.592L24.612,34.592z"/>
		</g>
	</g>
	<text transform="matrix(0.4115 0 0 1 8.9563 37.1026)" fill="#FFFFFF" font-family="'TitilliumWeb-Bold'" font-size="26.854">&lt;</text>
	<text transform="matrix(-0.4115 0 0 -1 51.0437 22.8969)" fill="#FFFFFF" font-family="'TitilliumWeb-Bold'" font-size="26.854">&lt;</text>
	<text transform="matrix(1 0 0 1 36.4655 35.4785)" fill="#FFFFFF" font-family="'TitilliumWeb-Bold'" font-size="16.9293">/</text>
</g>
</svg>
