<?xml version="1.0" encoding="utf-8"?>
<!-- Generator: Adobe Illustrator 17.0.0, SVG Export Plug-In . SVG Version: 6.00 Build 0)  -->
<!DOCTYPE svg PUBLIC "-//W3C//DTD SVG 1.1//EN" "http://www.w3.org/Graphics/SVG/1.1/DTD/svg11.dtd">
<svg version="1.1" id="Layer_1" xmlns="http://www.w3.org/2000/svg" xmlns:xlink="http://www.w3.org/1999/xlink" x="0px" y="0px"
	 width="800px" height="800px" viewBox="0 0 800 800" enable-background="new 0 0 800 800" xml:space="preserve">
<g>
	<path fill="#373636" d="M391.8,431.292v-78.29c-74.721-2.871-117.808-43.721-159.411-83.391
		c-23.902-22.779-46.801-44.394-74.889-58.503c-54.452,57.789-88.452,135.004-90.553,220.176H391.8V431.292z"/>
	<path fill="#373636" d="M391.8,526.257v-78.298H66.947C69.04,533.13,103.04,610.345,157.5,668.142
		c28.096-14.1,50.987-35.716,74.889-58.503C273.992,569.977,317.072,529.128,391.8,526.257z"/>
	<path fill="#373636" d="M567.878,269.611c-41.619,39.662-84.69,80.512-159.411,83.391V431.3H733.32
		c-2.093-85.172-36.085-162.387-90.553-220.184C614.679,225.209,591.788,246.824,567.878,269.611z"/>
	<path fill="#373636" d="M630.407,198.668c-57.982-55.423-135.894-90.104-221.94-92.222v229.889
		c68.031-2.823,106.916-39.71,147.909-78.787C578.947,236.037,602.126,213.996,630.407,198.668z"/>
	<path fill="#373636" d="M408.467,447.959v78.298c74.721,2.871,117.8,43.721,159.411,83.391
		c23.894,22.779,46.801,44.394,74.889,58.503c54.452-57.797,88.452-135.004,90.553-220.184H408.467V447.959z"/>
	<path fill="#373636" d="M556.376,621.711c-40.994-39.077-79.886-75.964-147.909-78.787v229.889
		c86.038-2.117,163.959-36.791,221.94-92.222C602.126,665.263,578.947,643.222,556.376,621.711z"/>
	<path fill="#373636" d="M391.8,336.335V106.446c-86.038,2.117-163.959,36.791-221.94,92.222
		c28.281,15.336,51.469,37.376,74.031,58.88C284.885,296.617,323.777,333.504,391.8,336.335z"/>
	<path fill="#373636" d="M391.8,542.924c-68.023,2.823-106.916,39.71-147.909,78.787c-22.562,21.511-45.742,43.552-74.031,58.88
		c57.981,55.423,135.894,90.104,221.94,92.214V542.924z"/>
</g>
<rect x="191.147" y="185.771" fill="#FFFFFF" width="188.879" height="153.917"/>
<rect x="438.152" y="198.155" fill="#FFFFFF" width="190.627" height="155.344"/>
<path fill="#5D5E5E" d="M87.271,331.523c0,69.09,143.803,125.106,321.196,125.106s321.196-56.008,321.196-125.106l-17.918-11.686
	c0,69.09-135.782,125.106-303.278,125.106s-303.278-56.008-303.278-125.106L87.271,331.523z"/>
<path fill="#5D5E5E" d="M87.271,410.783c0,69.09,143.803,125.106,321.196,125.106s321.196-56.008,321.196-125.106l-17.918-11.686
	c0,69.09-135.782,125.107-303.278,125.107s-303.278-56.024-303.278-125.115L87.271,410.783z"/>
<path fill="#5D5E5E" d="M87.271,479.183c0,69.09,143.803,125.106,321.196,125.106s321.196-56.008,321.196-125.106l-17.918-11.686
	c0,69.09-135.782,125.106-303.278,125.106s-303.278-56.016-303.278-125.114L87.271,479.183z"/>
<g id="TiHMz3_1_">
	<g>
		<path fill="#5D5E5E" d="M541.257,486.402c-0.738-2.31-1.043-3.794-1.668-5.149c-16.258-35.387-32.612-70.734-48.766-106.162
			c-2.631-5.783-7.09-8.125-12.873-9.256c-15.504-3.016-30.944-6.312-46.464-9.216c-6.818-1.275-12.424-4.05-17.293-9.152
			c-10.058-10.555-19.578-10.547-29.837,0.064c-4.909,5.077-10.499,7.852-17.317,9.12c-15.528,2.903-30.968,6.184-46.472,9.216
			c-5.783,1.123-10.17,3.505-12.801,9.312c-15.167,33.438-30.591,66.764-45.91,100.138c-1.548,3.377-2.96,6.81-4.588,10.571
			l-48.429,115.634c-23.027-4.524-46.015-9.256-68.898-14.413c-28.401-6.409-52.359-23.051-77.119-37.593
			c-23.862-14.012-43.616-32.139-58.382-55.663c-4.299-6.85-5.703-13.932-3.818-21.68c20.228-83.543,48.854-163.774,93.778-237.532
			c39.454-64.751,88.636-120.463,153.171-161.32c46.937-29.725,98.47-44.94,157.245-46.52
			c56.955,2.759,111.608,21.511,160.742,55.968c61.262,42.959,108.175,98.895,145.519,163.245
			c41.154,70.895,67.903,147.356,87.225,226.664c1.805,7.403,0.241,14.028-3.649,20.397c-13.25,21.704-30.847,39.069-52.375,52.455
			c-10.018,6.232-20.365,11.935-30.35,18.231c-32.54,20.549-69.218,28.746-106.282,35.764c-5.59,1.059-11.205,2.077-16.803,3.088
			L541.257,486.402z M247.805,274.881c-11.486-0.473-18.279,3.345-24.495,8.847c-3.104,2.743-3.184,5.045-1.115,8.558
			c9.007,15.36,17.694,30.896,26.564,46.335c5.149,8.959,6.529,9.593,16.49,7.403c26.941-5.919,53.867-11.887,80.776-17.87
			c13.499-3,14.614-4.291,15.969-17.854c0.176-1.773-0.048-3.617,0.361-5.318c1.211-5.037-1.372-6.497-5.775-7.379
			c-26.171-5.238-52.303-10.643-78.434-16.081C267.079,279.212,256.058,276.693,247.805,274.881z M555.767,274.472
			c-4.195,0.393-6.441,0.385-8.606,0.842c-31.714,6.721-63.427,13.459-95.125,20.26c-17.581,3.77-17.549,3.81-14.325,21.455
			c0.97,5.302,3.473,8.791,9.192,9.938c10.451,2.101,20.806,4.684,31.216,6.986c18.648,4.123,37.304,8.245,55.984,12.24
			c9.24,1.965,10.94,1.131,15.592-6.97c7.86-13.683,15.688-27.383,23.469-41.122c6.497-11.47,5.574-14.734-6.513-20.453
			C562.721,275.811,558.245,275.177,555.767,274.472z"/>
	</g>
</g>
<g>
	<path fill="none" d="M566.635,277.656c-3.906-1.845-8.39-2.494-10.86-3.192c-4.187,0.393-6.441,0.385-8.606,0.842
		c-31.714,6.713-63.428,13.459-95.125,20.26c-17.581,3.77-17.549,3.818-14.325,21.455c0.97,5.302,3.473,8.791,9.192,9.938
		c10.451,2.101,20.806,4.684,31.216,6.986c18.648,4.123,37.304,8.245,55.984,12.24c9.24,1.965,10.94,1.131,15.592-6.97
		c7.86-13.683,15.688-27.383,23.469-41.122C579.652,286.647,578.73,283.383,566.635,277.656z"/>
	<path fill="none" d="M265.242,346.032c15.167-3.329,30.334-6.713,45.493-10.074c5.606-1.243,11.221-2.478,16.827-3.722
		c6.152-1.372,12.304-2.711,18.456-4.091c13.499-3,14.614-4.291,15.969-17.854c0.176-1.773-0.048-3.617,0.361-5.318
		c1.211-5.037-1.372-6.497-5.775-7.371c-20.477-4.107-40.938-8.35-61.39-12.584c-5.671-1.171-11.365-2.318-17.036-3.497
		c-11.077-2.31-22.097-4.828-30.35-6.633c-11.486-0.473-18.279,3.345-24.495,8.847c-3.104,2.743-3.184,5.045-1.123,8.558
		c6.657,11.341,13.122,22.803,19.627,34.232c2.302,4.042,4.62,8.069,6.938,12.103C253.901,347.58,255.28,348.214,265.242,346.032z"
		/>
	<path fill="none" d="M708.063,549.701c-3.256,7.58-6.81,15.031-10.748,22.265c4.949-2.519,9.833-5.197,14.614-8.213
		c9.071-5.735,18.44-10.996,27.607-16.587c-13.018,2.206-22.482,2.631-27.623,2.631C709.86,549.797,708.705,549.741,708.063,549.701
		z"/>
	<path fill="none" d="M62.832,549.492c7.195,4.227,14.325,8.614,21.519,12.889c10.411-4.78,18.071-8.959,22.811-11.734
		c-0.577-0.922-1.003-1.933-1.083-3.096c-6.088-91.789,21.696-178.981,22.875-182.647c0.297-0.922,0.778-1.724,1.38-2.406
		c-29.628-44.571-44.547-79.132-51.789-100.307C45.66,322.548,22.705,386.865,5.436,453.413c1.965,18.857,5.278,37.312,9.745,55.311
		C28.335,525.174,44.296,538.616,62.832,549.492z"/>
	<path fill="none" d="M265.242,346.032c-9.962,2.182-11.341,1.556-16.491-7.403c-2.318-4.034-4.636-8.061-6.938-12.103
		c-51.798,18.095-85.725,32.909-99.665,39.301c0.193,1.075,0.225,2.19-0.136,3.305c-0.281,0.874-28.153,88.436-22.241,177.514
		c0.16,2.43-1.043,4.548-2.863,5.895c9.015,12.44,19.089,24.527,29.709,35.997c20.685,4.588,41.435,8.895,62.24,12.977
		l48.429-115.634c1.628-3.762,3.032-7.203,4.588-10.571c15.319-33.374,30.735-66.692,45.91-100.138
		c2.639-5.815,7.018-8.181,12.801-9.312c6.834-1.339,13.651-2.719,20.469-4.099c-11.983-10.25-22.097-18.857-30.31-25.794
		C295.576,339.327,280.409,342.703,265.242,346.032z"/>
	<path fill="none" d="M321.868,144.593c0.201-0.168,0.329-0.401,0.561-0.553c2.518-1.652,62.698-40.296,182.984-56.281
		c1.829-7.01,4.828-18.913,8.39-34.433c-34.721-15.721-71.328-24.688-108.985-26.516c-58.776,1.58-110.3,16.795-157.245,46.52
		c-16.691,10.571-32.315,22.169-47.049,34.625c-0.008,0.152-0.016,0.289-0.024,0.433
		C265.964,115.574,307.086,135.995,321.868,144.593z"/>
	<path fill="none" d="M648.293,213.827c-0.152-1.957,0.561-3.762,1.773-5.117c-15.584-17.958-66.283-72.306-136.696-108.768
		c-0.778,0.465-1.66,0.786-2.623,0.906c-119.652,15.271-180.201,54.268-180.802,54.661c-1.155,0.762-2.47,1.123-3.754,1.123
		c-0.12,0-0.233-0.08-0.353-0.088c-15.985,55.086-25.666,101.51-30.639,128.467c20.453,4.243,40.905,8.494,61.39,12.584
		c4.403,0.882,6.986,2.35,5.775,7.371c-0.409,1.7-0.184,3.553-0.361,5.318c-1.372,13.571-2.47,14.846-15.969,17.854
		c-6.152,1.372-12.304,2.719-18.456,4.091c8.622,7.315,18.849,16.025,30.623,26.139c2.952-0.577,5.903-1.179,8.855-1.74
		c6.818-1.267,12.408-4.05,17.317-9.12c10.258-10.611,19.787-10.611,29.837-0.064c4.869,5.109,10.475,7.884,17.293,9.152
		c15.52,2.904,30.96,6.2,46.464,9.216c5.783,1.123,10.234,3.473,12.873,9.256c8.333,18.279,16.755,36.51,25.153,54.757
		c52.182-14.654,95.045-29.797,111.672-35.868C652.697,274.496,648.341,214.429,648.293,213.827z M549.679,339.239
		c-4.652,8.093-6.352,8.935-15.592,6.97c-18.68-3.986-37.336-8.117-55.984-12.24c-10.411-2.302-20.766-4.885-31.216-6.986
		c-5.719-1.147-8.213-4.636-9.192-9.938c-3.224-17.637-3.256-17.678,14.325-21.455c31.698-6.802,63.411-13.547,95.125-20.26
		c2.158-0.457,4.411-0.457,8.606-0.842c2.478,0.706,6.962,1.347,10.86,3.192c12.095,5.727,13.01,8.983,6.513,20.453
		C565.367,311.848,557.547,325.547,549.679,339.239z"/>
	<path fill="none" d="M641.051,396.891c-0.08,0.393-0.289,0.722-0.433,1.083c50.45,63.468,65.441,119.227,69.242,138.044
		c5.093,0.112,25.658-0.096,57.043-9.48c10.619-9.785,20.012-20.814,27.752-33.478c3.89-6.368,5.446-12.993,3.649-20.397
		c-19.322-79.316-46.071-155.762-87.217-226.664c-6.745-11.606-13.916-22.843-21.295-33.879c-9.657,0.962-19.466,1.829-27.687,2.334
		C662.69,224.968,664.639,284.505,641.051,396.891z"/>
	<path fill="#373636" d="M200.523,107.938c-0.144,0.128-0.289,0.265-0.441,0.385c0.136,0.016,0.273,0.032,0.409,0.048
		C200.515,108.243,200.515,108.091,200.523,107.938z"/>
	<path fill="#373636" d="M329.953,155.517c0.602-0.385,61.15-39.382,180.802-54.661c0.954-0.12,1.837-0.449,2.623-0.906
		c-3.28-1.7-6.505-3.433-9.857-5.045c0,0,0.706-2.559,1.901-7.138c-120.294,15.985-180.465,54.629-182.984,56.281
		c-0.225,0.152-0.353,0.377-0.561,0.553c4.107,2.39,6.304,3.898,6.304,3.898c-0.81,2.727-1.556,5.366-2.334,8.053
		c0.12,0.008,0.233,0.088,0.353,0.088C327.482,156.64,328.79,156.279,329.953,155.517z"/>
	<path fill="#373636" d="M648.293,213.827c0.048,0.602,4.403,60.66-20.661,180.136c4.788-1.749,7.571-2.799,7.571-2.799
		c1.901,2.294,3.593,4.54,5.398,6.826c0.144-0.361,0.353-0.69,0.433-1.083c23.589-112.394,21.64-171.923,21.038-182.43
		c-2.43,0.144-4.756,0.273-6.858,0.353c0,0-1.861-2.31-5.157-6.104C648.855,210.066,648.141,211.87,648.293,213.827z"/>
	<path fill="#373636" d="M310.735,335.966c8.205,6.938,18.327,15.544,30.31,25.794c5.719-1.155,11.429-2.262,17.156-3.377
		c-11.774-10.114-22.001-18.825-30.623-26.139C321.956,333.48,316.35,334.723,310.735,335.966z"/>
	<path fill="#373636" d="M116.9,552.54c1.821-1.347,3.024-3.465,2.863-5.895c-5.911-89.086,21.961-176.639,22.241-177.514
		c0.353-1.115,0.329-2.23,0.136-3.305c-4.756,2.182-7.323,3.441-7.323,3.441c-1.58-2.31-2.984-4.508-4.484-6.769
		c-0.602,0.682-1.083,1.492-1.38,2.406c-1.187,3.665-28.971,90.866-22.875,182.647c0.08,1.155,0.513,2.166,1.083,3.096
		c3.77-2.214,5.767-3.553,5.767-3.553C114.189,548.931,115.584,550.72,116.9,552.54z"/>
	<path fill="#373636" d="M709.86,536.026c0.89,4.379,1.187,6.802,1.187,6.802c-0.914,2.326-1.997,4.572-2.984,6.874
		c0.642,0.04,1.797,0.096,3.85,0.096c5.141,0,14.606-0.425,27.623-2.631c0.906-0.553,1.837-1.075,2.743-1.644
		c8.959-5.566,17.068-11.999,24.623-18.977C735.518,535.93,714.953,536.146,709.86,536.026z"/>
	<path fill="#373636" d="M503.512,94.889c3.361,1.612,6.593,3.353,9.857,5.045c70.422,36.47,121.12,90.818,136.696,108.768
		c3.297,3.794,5.157,6.104,5.157,6.104c2.085-0.08,4.427-0.201,6.858-0.353c8.213-0.513,18.038-1.372,27.687-2.334
		c-33.558-50.121-74.015-94.163-124.216-129.365c-16.643-11.67-33.968-21.383-51.757-29.452c-3.561,15.536-6.569,27.423-8.39,34.433
		C504.21,92.338,503.512,94.889,503.512,94.889z"/>
	<path fill="#373636" d="M134.818,369.26c0,0,2.567-1.251,7.323-3.441c13.948-6.392,47.875-21.215,99.665-39.301
		c-6.505-11.429-12.977-22.883-19.627-34.232c-2.061-3.513-1.981-5.823,1.123-8.558c6.224-5.502,13.01-9.312,24.495-8.847
		c8.245,1.805,19.274,4.331,30.35,6.633c5.671,1.179,11.365,2.318,17.036,3.497c4.973-26.949,14.654-73.373,30.639-128.467
		c0.778-2.687,1.524-5.326,2.334-8.053c0,0-2.206-1.524-6.304-3.898c-14.782-8.59-55.904-29.019-121.361-36.213
		c-0.136-0.016-0.273-0.032-0.409-0.048c-42.028,35.628-76.541,78.474-105.68,126.302c-5.534,9.079-10.812,18.271-15.865,27.551
		c7.243,21.183,22.153,55.736,51.789,100.307C131.834,364.76,133.238,366.958,134.818,369.26z"/>
	<path fill="#373636" d="M711.047,542.827c0,0-0.297-2.422-1.187-6.802c-3.802-18.817-18.808-74.584-69.242-138.044
		c-1.813-2.278-3.497-4.524-5.398-6.826c0,0-2.775,1.051-7.572,2.799c-16.627,6.072-59.489,21.215-111.672,35.868
		c7.884,17.132,15.745,34.272,23.613,51.413c0.626,1.355,0.93,2.847,1.668,5.157l47.579,116.196
		c5.606-1.003,11.213-2.021,16.803-3.088c31.617-5.991,62.938-12.905,91.668-27.551c3.946-7.235,7.491-14.694,10.748-22.265
		C709.05,547.407,710.133,545.145,711.047,542.827z"/>
	<path fill="#373636" d="M112.921,547.102c0,0-1.989,1.347-5.767,3.553c-4.74,2.775-12.4,6.954-22.811,11.734
		c17.549,10.443,35.451,20.156,55.607,24.704c2.214,0.505,4.443,0.946,6.657,1.444c-10.611-11.462-20.693-23.549-29.709-35.997
		C115.584,550.72,114.189,548.931,112.921,547.102z"/>
	<path fill="#373636" d="M15.173,508.731c-4.468-18.006-7.78-36.454-9.745-55.311c-1.62,6.24-3.288,12.456-4.812,18.736
		c-1.877,7.748-0.481,14.83,3.818,21.68C7.754,499.099,11.388,503.991,15.173,508.731z"/>
</g>
</svg>
