<?xml version="1.0" encoding="utf-8"?>
<!-- Generator: Adobe Illustrator 17.0.0, SVG Export Plug-In . SVG Version: 6.00 Build 0)  -->
<!DOCTYPE svg PUBLIC "-//W3C//DTD SVG 1.1//EN" "http://www.w3.org/Graphics/SVG/1.1/DTD/svg11.dtd">
<svg version="1.1" id="Layer_1" xmlns="http://www.w3.org/2000/svg" xmlns:xlink="http://www.w3.org/1999/xlink" x="0px" y="0px"
	 width="60px" height="60px" viewBox="0 0 60 60" enable-background="new 0 0 60 60" xml:space="preserve">
<ellipse cx="-8.993" cy="-37.053" rx="30" ry="29.875"/>
<g>
	<path fill="#FFFFFF" d="M-24.865-40.631c-0.711,0.274-1.219,0.914-1.315,1.671c-0.101,0.757,0.219,1.51,0.838,1.956l6.753,4.914
		L5.406-50.964l-21.217,20.901l9.237,6.717C-5.99-22.92-5.233-22.787-4.532-23c0.696-0.213,1.25-0.741,1.504-1.423l9.877-27.039
		c0.101-0.274,0.031-0.584-0.178-0.787c-0.208-0.204-0.512-0.269-0.787-0.163L-24.865-40.631z M-24.865-40.631"/>
	<path fill="#FFFFFF" d="M-20.191-30.454l0.056,0.316l1.311,7.163c0.096,0.535,0.453,0.981,0.95,1.199
		c0.493,0.213,1.068,0.168,1.519-0.126c1.825-1.18,4.213-2.739,4.146-2.83L-20.191-30.454z M-20.191-30.454"/>
</g>
<circle cx="30" cy="30" r="30"/>
<g>
	<path fill="#FFFFFF" d="M38.101,11.705H21.899c-1.348,0-2.454,1.106-2.454,2.454v31.432c0,1.348,1.106,2.454,2.454,2.454h16.203
		c1.348,0,2.454-1.106,2.454-2.454V14.159C40.556,12.811,39.45,11.705,38.101,11.705L38.101,11.705z M27.409,13.474h5.181
		c0.167,0,0.299,0.132,0.299,0.3c0,0.162-0.131,0.293-0.299,0.293h-5.181c-0.167,0-0.3-0.131-0.3-0.293
		C27.11,13.606,27.242,13.474,27.409,13.474L27.409,13.474z M30,46.819c-0.68,0-1.226-0.548-1.226-1.228
		c0-0.679,0.546-1.226,1.226-1.226c0.679,0,1.226,0.548,1.226,1.226C31.226,46.271,30.679,46.819,30,46.819L30,46.819z
		 M38.846,43.503H21.152V15.598h17.694V43.503z M38.846,43.503"/>
</g>
</svg>
