<?xml version="1.0" encoding="utf-8"?>
<!-- Generator: Adobe Illustrator 17.0.0, SVG Export Plug-In . SVG Version: 6.00 Build 0)  -->
<!DOCTYPE svg PUBLIC "-//W3C//DTD SVG 1.1//EN" "http://www.w3.org/Graphics/SVG/1.1/DTD/svg11.dtd">
<svg version="1.1" id="Layer_1" xmlns="http://www.w3.org/2000/svg" xmlns:xlink="http://www.w3.org/1999/xlink" x="0px" y="0px"
	 width="59.783px" height="137.253px" viewBox="0 0 59.783 137.253" enable-background="new 0 0 59.783 137.253"
	 xml:space="preserve">
<g>
	<g>
		<path d="M35.018,76.522l-5.626-11.497l11.585-5.669c5.483-2.683,6.526-6.153,3.756-11.813l-20.47-41.83L35.936,0l20.557,42.007
			c5.756,11.762,2.757,22.656-9.801,28.802L35.018,76.522z"/>
	</g>
	<g>
		<path d="M3.837,117.058C-4.527,99.966,0.73,79.055,20.12,69.567l8.454-4.137l5.621,11.487l-8.454,4.137
			c-12.13,5.936-15.215,18.95-9.774,30.069c5.441,11.119,17.611,16.668,29.74,10.732l8.454-4.137l5.621,11.487l-8.454,4.137
			C31.939,142.83,12.202,134.151,3.837,117.058z"/>
	</g>
</g>
</svg>
