<?xml version="1.0" encoding="utf-8"?>
<!-- Generator: Adobe Illustrator 17.0.0, SVG Export Plug-In . SVG Version: 6.00 Build 0)  -->
<!DOCTYPE svg PUBLIC "-//W3C//DTD SVG 1.1//EN" "http://www.w3.org/Graphics/SVG/1.1/DTD/svg11.dtd">
<svg version="1.1" id="Layer_1" xmlns="http://www.w3.org/2000/svg" xmlns:xlink="http://www.w3.org/1999/xlink" x="0px" y="0px"
	 width="60px" height="60px" viewBox="0 0 60 60" enable-background="new 0 0 60 60" xml:space="preserve">
<ellipse cx="-8.993" cy="-37.053" rx="30" ry="29.875"/>
<g>
	<path fill="#FFFFFF" d="M-24.865-40.631c-0.711,0.274-1.219,0.914-1.315,1.671c-0.101,0.757,0.219,1.51,0.838,1.956l6.753,4.914
		L5.406-50.964l-21.217,20.901l9.237,6.717C-5.99-22.92-5.233-22.787-4.532-23c0.696-0.213,1.25-0.741,1.504-1.423l9.877-27.039
		c0.101-0.274,0.031-0.584-0.178-0.787c-0.208-0.204-0.512-0.269-0.787-0.163L-24.865-40.631z M-24.865-40.631"/>
	<path fill="#FFFFFF" d="M-20.191-30.454l0.056,0.316l1.311,7.163c0.096,0.535,0.453,0.981,0.95,1.199
		c0.493,0.213,1.068,0.168,1.519-0.126c1.825-1.18,4.213-2.739,4.146-2.83L-20.191-30.454z M-20.191-30.454"/>
</g>
<g id="Layer_3">
	<g>
		<g>
			<path fill="#FFFFFF" d="M165.75-23.946h-25.86c-0.534,0-0.967-0.432-0.967-0.966v-34.077c0-0.534,0.433-0.967,0.967-0.967h17.32
				c0.25,0,0.49,0.097,0.67,0.27l8.54,8.217c0.189,0.182,0.296,0.434,0.296,0.696v25.86
				C166.716-24.378,166.283-23.946,165.75-23.946z M140.856-25.879h23.927v-24.482l-7.962-7.662h-15.965V-25.879z"/>
		</g>
		<g>
			<path fill="#FFFFFF" d="M150.201-45.816h-6.102c-0.534,0-0.967-0.433-0.967-0.967s0.433-0.967,0.967-0.967h6.101
				c0.534,0,0.966,0.433,0.966,0.967S150.735-45.816,150.201-45.816z"/>
		</g>
		<g>
			<path fill="#FFFFFF" d="M150.201-42.03h-6.102c-0.534,0-0.967-0.433-0.967-0.967s0.433-0.967,0.967-0.967h6.101
				c0.534,0,0.966,0.433,0.966,0.967S150.735-42.03,150.201-42.03z"/>
		</g>
		<g>
			<path fill="#FFFFFF" d="M162.124-42.03h-7.551c-0.534,0-0.967-0.433-0.967-0.967s0.433-0.967,0.967-0.967h7.552
				c0.534,0,0.967,0.433,0.967,0.967S162.658-42.03,162.124-42.03z"/>
		</g>
		<g>
			<path fill="#FFFFFF" d="M162.124-38.243h-7.551c-0.534,0-0.967-0.433-0.967-0.967s0.433-0.967,0.967-0.967h7.552
				c0.534,0,0.967,0.433,0.967,0.967C163.092-38.676,162.658-38.243,162.124-38.243z"/>
		</g>
		<g>
			<path fill="#FFFFFF" d="M162.124-35.101h-7.551c-0.534,0-0.967-0.433-0.967-0.967c0-0.534,0.433-0.967,0.967-0.967h7.552
				c0.534,0,0.967,0.433,0.967,0.967C163.092-35.534,162.658-35.101,162.124-35.101z"/>
		</g>
		<g>
			<path fill="#FFFFFF" d="M162.124-31.315h-7.551c-0.534,0-0.967-0.433-0.967-0.967s0.433-0.967,0.967-0.967h7.552
				c0.534,0,0.967,0.433,0.967,0.967C163.092-31.748,162.658-31.315,162.124-31.315z"/>
		</g>
		<g>
			<path fill="#FFFFFF" d="M165.759-49.805c-0.002,0-0.006,0-0.009,0h-8.54c-0.534,0-0.967-0.433-0.967-0.967v-8.217
				c0-0.388,0.231-0.738,0.588-0.89c0.357-0.151,0.77-0.077,1.049,0.193l8.463,8.143c0.233,0.177,0.383,0.456,0.383,0.771
				C166.726-50.238,166.293-49.805,165.759-49.805z M158.177-51.739h5.174l-5.174-4.979V-51.739z"/>
		</g>
	</g>
</g>
<circle cx="30" cy="30.003" r="30"/>
<g>
	<path fill="#FFFFFF" d="M45.336,12.002H14.655c-1.465,0-2.655,1.162-2.655,2.596v30.807c0,1.434,1.19,2.598,2.655,2.598h30.681
		c1.468,0,2.663-1.164,2.663-2.598V14.598C47.999,13.164,46.804,12.002,45.336,12.002z"/>
	<path d="M17.334,25.498h5.345v17.18h-5.345V25.498z M20.008,16.958c1.708,0,3.095,1.387,3.095,3.096
		c0,1.709-1.387,3.097-3.095,3.097c-1.715,0-3.098-1.387-3.098-3.097C16.91,18.345,18.293,16.958,20.008,16.958"/>
	<path d="M26.028,25.498h5.118v2.349h0.073c0.712-1.351,2.454-2.775,5.052-2.775c5.406,0,6.405,3.557,6.405,8.184v9.422h-5.339
		v-8.354c0-1.992-0.034-4.555-2.774-4.555c-2.778,0-3.202,2.171-3.202,4.413v8.497h-5.333V25.498z"/>
</g>
</svg>
