<?xml version="1.0" encoding="utf-8"?>
<!-- Generator: Adobe Illustrator 17.0.0, SVG Export Plug-In . SVG Version: 6.00 Build 0)  -->
<!DOCTYPE svg PUBLIC "-//W3C//DTD SVG 1.1//EN" "http://www.w3.org/Graphics/SVG/1.1/DTD/svg11.dtd">
<svg version="1.1" id="Layer_1" xmlns="http://www.w3.org/2000/svg" xmlns:xlink="http://www.w3.org/1999/xlink" x="0px" y="0px"
	 width="800px" height="800px" viewBox="0 0 800 800" enable-background="new 0 0 800 800" xml:space="preserve">
<g>
	<path fill="#FFFFFF" d="M399.8,799.911c1.4,0,2.775-0.175,4.2-0.2l45.1-260.451l53.7-0.249l-5.075,27.736
		c21.6-22.199,47.425-32.949,77.4-32.326c16.475,0.324,30.125,4.091,40.975,11.349c10.9,7.233,18.275,16.786,22.175,28.709
		c24.175-27.337,51.9-40.681,83.2-40.058c20.425,0.499,36.4,6.46,48.35,17.335c19.05-46.518,29.75-97.351,29.75-150.703
		c0-176.27-114.725-325.551-273.65-378.28L390.6,799.462c3.1,0.075,6.1,0.474,9.2,0.474h4.175v-0.025H399.8z"/>
	<path fill="#FFFFFF" d="M583.6,631.423c0.825-6.909,0.875-13.344,0.25-19.306c-2.6-19.455-14.5-29.432-35.8-29.906
		c-21.425-0.349-39.35,9.229-53.7,28.709l-32.1,183.653c34.525-5.413,67.625-14.991,98.65-28.634L583.6,631.423z"/>
	<path fill="#FFFFFF" d="M735.25,611.145c-2.6-18.807-14.5-28.46-35.8-28.933c-23.675-0.648-42.425,12.322-56.1,38.861l-0.725,5.313
		l-18,104.46c44.025-29.931,81.525-68.493,110.55-113.14C735.125,615.56,735.45,613.115,735.25,611.145z"/>
	<path fill="#FFFFFF" d="M0,401.078C0,576.3,113.4,724.758,270.85,778.335L406,2.519c-2.1-0.05-4.125-0.324-6.225-0.324
		C179,2.195,0,180.784,0,401.078z"/>
	<path d="M0,0v401.078v0.025v398.833h267.075v0.025L267,800.385h123.45l0.075-0.424h9.275c-3.1,0-6.1-0.399-9.2-0.474
		L525.925,22.798c158.925,52.729,273.65,202.01,273.65,378.28c0,53.352-10.7,104.185-29.75,150.703
		c-11.95-10.875-27.925-16.836-48.35-17.335c-31.3-0.624-59.025,12.721-83.2,40.058c-3.9-11.923-11.275-21.476-22.175-28.709
		c-10.85-7.258-24.5-11.025-40.975-11.349c-29.975-0.624-55.8,10.127-77.4,32.326l5.075-27.736l-53.7,0.249L404,799.711
		c-1.425,0.025-2.8,0.2-4.2,0.2h4.175v0.025l-0.1,0.424h57.35l0.075-0.424h93.85l-0.075,0.424h57.575l0.075-0.424h93.85
		l-0.075,0.424h57.325l0.075-0.424H800V0H0z M270.85,778.335C113.4,724.783,0,576.3,0,401.078C0,180.784,179,2.195,399.775,2.195
		c2.1,0,4.125,0.274,6.225,0.324L270.85,778.335z M462.25,794.573l32.1-183.653c14.35-19.48,32.275-29.058,53.7-28.709
		c21.3,0.474,33.2,10.451,35.8,29.906c0.625,5.961,0.575,12.396-0.25,19.306l-22.7,134.516
		C529.875,779.582,496.775,789.185,462.25,794.573z M624.625,730.844l18-104.46l0.725-5.313
		c13.675-26.539,32.425-39.509,56.1-38.861c21.3,0.474,33.2,10.127,35.8,28.933c0.2,1.995-0.125,4.44-0.075,6.56
		C706.15,662.327,668.65,700.913,624.625,730.844z"/>
</g>
</svg>
