<?xml version="1.0" encoding="utf-8"?>
<!-- Generator: Adobe Illustrator 17.0.0, SVG Export Plug-In . SVG Version: 6.00 Build 0)  -->
<!DOCTYPE svg PUBLIC "-//W3C//DTD SVG 1.1//EN" "http://www.w3.org/Graphics/SVG/1.1/DTD/svg11.dtd">
<svg version="1.1" id="Layer_1" xmlns="http://www.w3.org/2000/svg" xmlns:xlink="http://www.w3.org/1999/xlink" x="0px" y="0px"
	 width="486.088px" height="462.536px" viewBox="0 0 486.088 462.536" enable-background="new 0 0 486.088 462.536"
	 xml:space="preserve">
<path fill-rule="evenodd" clip-rule="evenodd" d="M483.683,173.8c-23.763-17.142-47.453-34.381-71.118-51.658
	c-2.315-1.689-4.372-3.517-7.466-1.004c1.209-2.903,0.083-4.408-2.026-5.934c-25.051-18.116-50.034-36.324-75.043-54.5
	c-2.181-1.584-4.242-3.799-7.735-1.32c1.969-3.236-0.144-4.342-1.951-5.654c-23.974-17.404-47.965-34.784-71.86-52.291
	c-2.495-1.828-4.151-1.975-6.733-0.084c-23.71,17.396-47.524,34.655-71.337,51.911c-2.06,1.493-4.284,2.711-3.17,5.097
	c-1.909,0.407-4.043,0.269-5.382,1.234c-25.439,18.316-50.775,36.777-76.17,55.154c-2.212,1.602-4.247,3.043-3.118,5.262
	c-1.907,0.384-4.134,0.205-5.519,1.201C50.661,138.776,26.397,156.513,2.025,174.1c-2.221,1.604-2.379,3.047-1.598,5.433
	c9.231,28.132,18.389,56.288,27.49,84.462c0.802,2.49,1.619,4.624,3.732,4.584c-0.168,1.917-0.854,3.765-0.383,5.238
	c9.626,30.03,19.412,60.006,29.063,90.027c0.86,2.675,1.921,4.492,5.345,4.068c-3.406,1.883-2.601,4.317-1.711,7.04
	c9.137,27.939,18.219,55.889,27.206,83.874c0.865,2.694,2.089,3.719,5.004,3.709c29.521-0.104,59.04-0.1,88.561-0.008
	c2.948,0.011,5.293-0.242,6.106-3.972c0.332,3.873,2.713,3.956,5.452,3.949c31.142-0.052,62.284-0.062,93.426,0.019
	c2.868,0.008,5.062-0.373,5.772-3.844c0.561,3.441,2.637,3.853,5.461,3.846c29.627-0.087,59.258-0.09,88.885,0.006
	c2.822,0.007,4.201-0.797,5.097-3.584c8.935-27.889,18.001-55.733,27.051-83.582c0.887-2.728,2.543-5.493-1.689-7.52
	c3.627,0.478,4.637-1.3,5.467-3.885c9.66-30.018,19.399-60.01,29.186-89.986c0.696-2.134,0.757-3.78-1.716-5.379
	c3.749,0.359,4.168-2.179,4.921-4.49c9.142-28.162,18.267-56.326,27.53-84.449C486.595,176.883,485.988,175.462,483.683,173.8z
	 M401.824,117.686c0.313,0.492,0.99,1.094,0.88,1.457c-0.766,2.539-0.738,5.601-4.467,7.051c0.932-2.852,1.615-5.09,2.417-7.286
	C400.831,118.425,401.423,118.091,401.824,117.686z M379.753,175.083c-0.707,2.254-1.424,3.127-3.723,1.395
	c-6.113-4.612-12.359-9.052-18.569-13.534c-1.382-0.996-2.513-1.812-0.421-3.32c11.371-8.212,22.702-16.48,34.054-24.716
	c0.323-0.235,0.744-0.34,1.94-0.864c-2.399,7.449-4.529,14.094-6.684,20.732C384.155,161.545,381.885,168.292,379.753,175.083z
	 M380.988,186.498c-1.605,5.258-3.404,10.458-5.061,15.7c-1.537,4.855-1.497,4.867-5.608,4.811c0.715-0.883,2.214-2.027,2.748-3.517
	c2.12-5.88,3.891-11.885,5.913-17.801c0.312-0.906,1.272-1.591,1.929-2.382C380.951,184.378,381.281,185.533,380.988,186.498z
	 M375.765,179.229c1.799,1.262,1.92,2.508,1.275,4.378c-1.939,5.617-3.88,11.241-5.552,16.94c-0.789,2.686-2.154,3.859-5.092,3.843
	c-1.632-0.693-3.458-1.118-4.87-2.125c-8.283-5.886-16.489-11.886-24.685-17.896c-4.167-3.056-4.118-7.109,0.01-10.082
	c4.562-3.287,9.183-6.5,13.626-9.94c1.807-1.399,3.034-1.274,4.797,0.044C362.031,169.437,368.861,174.388,375.765,179.229z
	 M247.728,360.264c-3.122-0.158-6.267-0.171-9.389,0.004c-2.396,0.133-3.452-0.893-4.128-3.084
	c-2.358-7.628-4.878-15.207-7.33-22.808c-1.189-3.688-0.013-5.512,3.909-5.644c4.099-0.14,8.205-0.032,12.31-0.032
	c3.996-0.006,7.993-0.091,11.986,0.018c4.156,0.113,5.382,1.896,4.146,5.724c-2.452,7.599-4.978,15.176-7.323,22.81
	C251.22,359.495,250.066,360.382,247.728,360.264z M249.382,364.057c-0.426,0.399-0.842,1.137-1.275,1.148
	c-3.42,0.085-6.844,0.074-10.262-0.037c-0.381-0.012-0.737-0.842-1.105-1.296c0.43-0.231,0.85-0.644,1.285-0.662
	c1.709-0.079,3.423-0.031,5.135-0.031c1.606-0.009,3.215-0.075,4.812,0.032C248.458,363.245,248.913,363.762,249.382,364.057z
	 M136.55,279.966c-0.314,0.065-0.972-0.398-1.107-0.765c-0.773-2.096-1.496-4.216-2.09-6.367c-0.117-0.427,0.407-1.034,0.635-1.56
	c0.402,0.255,1.044,0.421,1.17,0.773c0.793,2.2,1.471,4.44,2.24,6.826C137.122,279.258,136.896,279.892,136.55,279.966z
	 M130.099,295.247c-2.875,0-5.751,0-8.625,0c-0.048-0.262-0.094-0.525-0.144-0.789c3.733-2.721,7.479-5.429,11.195-8.172
	c1.33-0.985,2.144-0.691,2.584,0.857c0.06,0.205,0.105,0.419,0.177,0.621C138.026,295.247,138.026,295.247,130.099,295.247z
	 M161.661,184.482c0.358-0.232,1.816,0.36,1.98,0.838c1.863,5.395,3.542,10.852,5.338,16.27c0.604,1.82-0.152,2.358-1.817,2.349
	c-3.019-0.021-6.037-0.006-9.053-0.006c-2.802,0-5.607-0.011-8.409,0.006c-1.771,0.01-2.265-0.486-2.032-2.527
	C148.675,192.654,155.239,188.639,161.661,184.482z M152.43,186.833c0.642-0.997,1.105-2.199,1.961-2.947
	c1.7-1.49,3.581-2.785,5.473-4.033c0.461-0.307,1.247-0.122,1.882-0.16c-0.201,0.646-0.201,1.555-0.641,1.898
	c-2.547,1.982-5.199,3.831-7.816,5.725C153.003,187.154,152.717,186.993,152.43,186.833z M232.599,148.114
	c3.559,0.076,7.119,0.022,10.682,0.022c3.344-0.002,6.689,0.064,10.031-0.028c2.129-0.057,3.323,0.655,3.987,2.838
	c1.979,6.496,4.11,12.946,6.333,19.363c0.719,2.076,0.384,3.357-1.469,4.628c-1.736,1.188-3.014,1.549-4.851,0.108
	c-3.817-2.996-7.896-5.653-11.725-8.632c-1.883-1.466-3.3-1.337-5.119,0.066c-3.845,2.96-7.918,5.625-11.728,8.628
	c-1.893,1.489-3.181,0.928-4.846-0.243c-1.672-1.174-2.15-2.328-1.454-4.341c2.255-6.52,4.393-13.081,6.428-19.674
	C229.489,148.841,230.572,148.069,232.599,148.114z M231.496,142.763c1.204-3.352,1.667-7.125,3.511-10.041
	c1.744-2.754,4.846-4.658,7.417-6.859c0.282-0.241,1.161-0.162,1.508,0.104c3.019,2.306,6.874,3.723,7.907,8.089
	c0.719,3.034,1.828,5.984,2.858,8.94c0.601,1.723,0.081,2.429-1.706,2.416c-3.35-0.028-6.695-0.009-10.045-0.009
	c-3.131,0.007-6.264-0.039-9.395,0.024C231.56,145.468,230.722,144.912,231.496,142.763z M324.888,184.655
	c3.125,2.301,6.955,4.038,9.229,6.985c2.311,2.999,3.139,7.156,4.458,10.864c0.076,0.216-1.239,1.316-1.943,1.355
	c-3.008,0.154-6.031,0.067-9.049,0.067v0.011c-2.803,0-5.605-0.025-8.408,0.007c-1.764,0.021-2.676-0.439-1.996-2.471
	c1.778-5.311,3.497-10.643,5.162-15.991C322.853,183.842,323.595,183.7,324.888,184.655z M324.409,179.656
	c0.64,0.06,1.486-0.122,1.886,0.217c2.543,2.161,6.162,3.252,7.322,6.814c-0.204,0.25-0.406,0.498-0.61,0.748
	c-2.681-1.942-5.396-3.841-8.007-5.871C324.568,181.227,324.594,180.306,324.409,179.656z M293.457,348.452
	c-5.638-4.184-11.311-8.324-17.05-12.367c-1.794-1.265-2.202-2.53-1.515-4.652c0.699-2.166,1.884-2.891,4.028-2.778
	c2.373,0.12,4.754,0.028,7.131,0.028c0.435-0.004,0.865,0.003,1.296-0.005c10.819-0.231,8.142,1.72,11.751-8.66
	c0.958-2.752,1.857-5.53,2.651-8.334c0.535-1.876,1.619-2.548,3.539-2.511c1.975,0.039,3.528,0.205,4.241,2.51
	c2.099,6.81,4.326,13.579,6.583,20.336c0.579,1.726,0.147,2.762-1.323,3.801c-5.824,4.111-11.601,8.294-17.318,12.552
	C296.024,349.452,294.928,349.542,293.457,348.452z M299.75,360.118c-4.824,0-9.061,0-13.39,0
	C291.474,354.143,293.302,354.087,299.75,360.118z M262.915,323.113c-0.587,1.876-1.453,2.107-3.027,0.931
	c-3.888-2.909-7.859-5.705-11.774-8.577c-1.337-0.979-2.605-2.086-4.284-0.644c-0.08,0.067-0.219,0.162-0.283,0.137
	c-5.635-2.264-7.971,3.166-11.776,5.109c-2.628,1.343-5.042,3.105-7.553,4.681c-1.024-2.697-2.143-5.36-3.059-8.095
	c-2.488-7.436-2.455-7.446,5.292-7.446c2.916,0,5.846-0.189,8.741,0.052c3.082,0.256,4.511-1.015,5.171-3.935
	c0.545-2.393,1.578-4.679,2.704-7.903c1.159,3.316,2.251,5.698,2.798,8.196c0.643,2.931,2.26,3.743,5.061,3.638
	c4.526-0.174,9.065,0.035,13.596-0.078c2.353-0.059,2.805,0.724,2.028,2.868C265.229,315.694,264.077,319.409,262.915,323.113z
	 M263.528,333.501c-2.868,8.818-5.733,17.636-8.601,26.45c-0.395-0.125-0.786-0.252-1.18-0.38
	c2.855-8.822,5.708-17.643,8.562-26.463C262.716,333.239,263.121,333.371,263.528,333.501z M252.01,324.99
	c-0.073,0.232-0.146,0.465-0.219,0.699c-5.827,0-11.651,0-17.478,0c-0.096-0.209-0.193-0.419-0.292-0.626
	c2.668-1.907,5.29-3.881,8.04-5.66c0.537-0.346,1.751-0.195,2.347,0.196C247.005,321.303,249.486,323.179,252.01,324.99z
	 M232.395,359.567c-0.386,0.127-0.768,0.255-1.153,0.383c-2.885-8.805-5.773-17.609-8.66-26.415c0.417-0.137,0.834-0.274,1.25-0.411
	C226.686,341.938,229.539,350.751,232.395,359.567z M192.794,348.369c-1.592,1.192-2.736,1.055-4.279-0.101
	c-5.625-4.205-11.311-8.328-17.057-12.361c-1.594-1.119-2.015-2.216-1.391-4.061c2.24-6.65,4.244-13.383,6.622-19.98
	c0.48-1.336,2.2-2.228,4.04-3.983c1.663,1.803,3.104,2.727,3.592,4.013c1.57,4.132,2.957,8.354,4.098,12.623
	c0.828,3.105,2.341,4.441,5.687,4.229c4.413-0.28,8.857,0.027,13.282-0.104c2.262-0.068,3.234,0.908,3.898,2.963
	c0.649,1.994,0.229,3.175-1.462,4.367C204.09,340.024,198.413,344.16,192.794,348.369z M199.896,360.126c-4.418,0-8.652,0-12.983,0
	C191.056,354.198,194.31,354.182,199.896,360.126z M144.552,211.712c0.35-0.986,1.898-2.171,2.919-2.196
	c7.227-0.19,14.464-0.035,21.695-0.132c3.66-0.052,2.878,3.123,4.294,5.238c-0.661,0.686-1.207,1.434-1.916,1.959
	c-3.731,2.759-7.42,5.592-11.294,8.143c-2.548,1.679-3.373,3.376-2.165,6.408c1.713,4.3,2.82,8.836,4.383,13.202
	c0.695,1.944,0.018,3.003-1.473,4.054c-1.48,1.045-2.721,1.897-4.585,0.498c-5.868-4.406-11.893-8.609-17.727-13.058
	c-0.739-0.564-1.239-2.284-0.963-3.201C139.845,225.606,142.107,218.627,144.552,211.712z M135.169,203.606
	c4.066-2.949,7.589-5.504,11.378-8.252C145.599,203.657,144.228,204.676,135.169,203.606z M203.89,209.391
	c2.596-0.016,7.06-3.286,7.872-5.761c1.518-4.616,3.037-9.233,4.446-13.883c0.615-2.027,1.426-2.348,3.143-1.031
	c3.257,2.499,6.587,4.906,9.952,7.254c1.528,1.065,1.485,1.756-0.023,2.812c-4.16,2.912-8.211,5.981-12.361,8.905
	c-1.653,1.166-2.182,2.426-1.444,4.404c1.009,2.704,1.764,5.504,2.909,9.165c-3.258-2.304-5.762-3.986-8.164-5.803
	c-1.434-1.086-2.611-1.061-4.049,0.025c-4.055,3.06-8.227,5.962-12.274,9.027c-1.708,1.293-2.519,1.034-3.118-1.025
	c-1.084-3.733-2.229-7.455-3.566-11.102c-0.831-2.269-0.479-3.095,2.09-3.017C194.161,209.509,199.029,209.425,203.89,209.391z
	 M193.329,203.922c5.725-4.192,10.681-7.82,15.637-11.448c0.198,0.092,0.397,0.183,0.598,0.271
	c-0.998,3.036-1.848,6.137-3.083,9.072c-0.39,0.926-1.771,1.925-2.771,2.008C200.622,204.087,197.498,203.922,193.329,203.922z
	 M212.783,180.903c-7.528-5.473-15.058-10.947-22.588-16.422c0.258-0.351,0.517-0.702,0.771-1.051
	c7.533,5.477,15.068,10.955,22.602,16.432C213.304,180.21,213.044,180.556,212.783,180.903z M274.279,203.389
	c0.955,2.911,5.246,5.994,8.354,6.008c4.861,0.024,9.727,0.066,14.588-0.02c1.935-0.033,2.552,0.514,1.889,2.449
	c-1.363,3.983-2.645,7.998-3.882,12.023c-0.56,1.825-1.383,1.827-2.765,0.795c-3.898-2.91-7.945-5.623-11.739-8.658
	c-2.097-1.674-3.679-1.594-5.669,0.052c-2.064,1.707-4.362,3.128-7.312,5.207c1.037-3.281,1.617-5.702,2.566-7.971
	c1.147-2.732,0.695-4.558-1.909-6.233c-3.809-2.454-7.302-5.394-11.082-7.901c-2.208-1.466-1.87-2.289,0.085-3.595
	c3.055-2.035,6.064-4.166,8.904-6.488c2.309-1.891,3.125-1.135,3.844,1.366C271.402,194.783,272.868,199.078,274.279,203.389z
	 M272.55,179.872c7.528-5.473,15.056-10.948,22.584-16.422c0.26,0.352,0.521,0.703,0.78,1.053
	c-7.53,5.473-15.06,10.945-22.589,16.416C273.067,180.57,272.807,180.221,272.55,179.872z M276.292,191.862
	c5.705,4.156,10.695,7.788,15.684,11.419c-0.049,0.208-0.095,0.414-0.142,0.62c-3.267,0-6.542,0.119-9.795-0.08
	c-0.83-0.052-2.009-0.956-2.32-1.746C278.513,199.014,277.595,195.841,276.292,191.862z M341.605,211.806
	c2.467,6.905,4.715,13.894,6.832,20.914c0.27,0.896-0.305,2.595-1.059,3.168c-5.841,4.445-11.854,8.659-17.735,13.047
	c-1.72,1.283-2.939,0.618-4.315-0.423c-1.342-1.014-2.468-1.873-1.727-3.96c1.696-4.775,3.051-9.673,4.736-14.453
	c0.743-2.103,0.294-3.396-1.504-4.642c-4.079-2.826-8.005-5.879-12.096-8.689c-1.64-1.127-1.982-2.29-1.283-4.074
	c0.68-1.741,1.072-3.452,3.609-3.329c3.555,0.175,7.123,0.046,10.686,0.046s7.142-0.189,10.681,0.107
	C339.575,209.615,341.232,210.763,341.605,211.806z M339.284,195.426c0.904,0.489,1.391,0.687,1.801,0.983
	c3.118,2.27,6.22,4.555,9.45,6.926C343.009,205.481,341.588,204.523,339.284,195.426z M307.213,286.797
	c-1.327-4.007-2.504-7.177-3.364-10.428c-0.203-0.772,0.397-2.143,1.071-2.692c2.577-2.096,5.339-3.969,8.722-6.43
	C311.396,274.085,309.449,280.001,307.213,286.797z M307.744,305.04c-0.753,0.574-1.341,1.365-1.791,1.289
	c-0.694-0.111-1.896-0.977-1.827-1.236c0.306-1.145,0.994-2.184,1.545-3.264C306.269,302.758,306.867,303.684,307.744,305.04z
	 M301.652,269.259c-1.65,1.211-3.617,6.977-3.002,8.934c1.487,4.737,2.975,9.477,4.602,14.168c0.747,2.15,0.272,2.971-2.062,2.913
	c-3.886-0.103-7.779-0.134-11.663,0.009c-2.532,0.098-2.623-0.965-1.952-2.929c1.577-4.595,2.957-9.257,4.592-13.831
	c0.748-2.092,0.329-3.428-1.51-4.646c-2.234-1.479-4.315-3.188-6.464-4.8c0.079-0.272,0.157-0.547,0.235-0.819
	c2.789,0,5.58-0.059,8.365,0.02c1.92,0.053,2.957-0.777,3.523-2.595c1.502-4.846,3.168-9.64,4.656-14.492
	c0.567-1.85,1.25-2.274,2.904-1.022c3.272,2.475,6.602,4.876,9.98,7.208c1.785,1.231,1.315,2.093-0.139,3.132
	C309.674,263.395,305.659,266.32,301.652,269.259z M241.769,277.952c-2.155-0.961-5.079-6.027-4.705-8.274
	c0.083-0.491,0.919-1.153,1.467-1.214c1.482-0.17,2.996-0.059,4.496-0.059v-0.039c0.106,0,0.219-0.021,0.32,0.003
	c1.926,0.402,4.859,0.204,5.554,1.354c1.174,1.945-2.731,7.858-5.028,8.484C243.236,278.38,242.394,278.23,241.769,277.952z
	 M243.862,286.991c-0.574-0.039-1.145-0.077-1.721-0.117c0.087-1.413,0.163-2.831,0.318-4.239l1.339,0.077
	C243.876,284.135,243.862,285.562,243.862,286.991z M184.365,269.171c-3.744-2.747-7.439-5.575-11.302-8.145
	c-2.553-1.698-2.287-2.767,0.114-4.316c3.083-1.984,6.023-4.207,8.93-6.445c1.739-1.335,2.484-1.004,3.099,1.064
	c1.389,4.651,3.066,9.223,4.444,13.879c0.658,2.221,1.813,3.21,4.163,3.088c2.646-0.14,5.307-0.032,7.964-0.032
	c0.07,0.259,0.141,0.518,0.213,0.775c-2.203,1.651-4.352,3.382-6.629,4.923c-1.701,1.154-2.141,2.422-1.446,4.393
	c1.614,4.579,2.999,9.24,4.587,13.828c0.724,2.086,0.68,3.219-2.039,3.103c-3.883-0.16-7.777-0.092-11.664-0.023
	c-2.118,0.039-2.67-0.678-1.96-2.73c1.622-4.689,3.117-9.428,4.605-14.166C188.142,276.138,186.243,270.55,184.365,269.171z
	 M178.939,286.852c-2.253-6.86-4.216-12.837-6.436-19.603c3.414,2.486,6.227,4.424,8.887,6.556c0.61,0.487,1.124,1.759,0.933,2.465
	C181.434,279.546,180.281,282.751,178.939,286.852z M182.021,305.081c0.052,0.369-0.976,1.246-1.514,1.248
	c-0.536,0.003-1.57-0.853-1.525-1.233c0.139-1.164,0.689-2.28,1.077-3.415c0.268-0.001,0.536-0.005,0.804-0.006
	C181.279,302.805,181.852,303.915,182.021,305.081z M164.413,242.416c-1.222-4.024-2.67-7.985-3.751-12.046
	c-0.26-0.975,0.19-2.686,0.937-3.289c3.52-2.846,7.227-5.472,10.956-8.046c0.458-0.315,2.009-0.042,2.124,0.287
	c1.648,4.675,3.137,9.409,4.789,14.519c-0.502,0.682-0.955,1.68-1.725,2.269c-3.344,2.553-6.814,4.943-10.171,7.484
	C165.763,244.964,164.993,244.317,164.413,242.416z M165.867,253.447c-0.628,0.529-1.168,1.091-1.247,1.032
	c-1.146-0.858-2.234-1.801-3.336-2.724c0.682-0.603,1.365-1.205,2.047-1.808C164.131,251.052,164.934,252.156,165.867,253.447z
	 M174.747,211.088c0.646-0.558,1.217-1.411,1.957-1.599c0.852-0.218,1.854,0.15,2.791,0.266c0.043,0.27,0.087,0.54,0.133,0.811
	c-1.078,0.79-2.107,1.679-3.286,2.271C176.152,212.935,175.295,211.703,174.747,211.088z M166.965,247.361
	c3.976-3.289,8.224-6.265,12.542-9.104c0.227-0.148,1.879,1.862,2.864,2.865c0.204,0.564,0.407,1.126,0.611,1.689
	c-0.938,0.359-1.992,0.555-2.793,1.113c-3.364,2.336-6.608,4.843-9.995,7.139c-0.688,0.467-2.561,0.527-2.597,0.4
	C167.202,250.096,166.388,247.836,166.965,247.361z M182.509,245.282c0.244,0.352,0.488,0.699,0.732,1.051
	c-4.557,3.322-9.115,6.645-13.674,9.969c-0.255-0.348-0.505-0.696-0.758-1.045C173.375,251.932,177.941,248.607,182.509,245.282z
	 M242.909,202.054c1.549,0.203,3.522,2.131,4.122,3.762c2.539,6.863,4.645,13.892,6.888,20.867c1.353,4.203-0.408,6.709-4.907,6.914
	c-1.936,0.09-3.881,0.016-5.821,0.016c-0.06,0.252-0.119,0.506-0.179,0.76c-3.348-0.819-6.738-1.502-10.029-2.515
	c-1.745-0.536-1.848-2.042-1.287-3.727c2.484-7.465,4.752-15.003,7.424-22.396C239.69,204.159,241.785,201.909,242.909,202.054z
	 M239.336,195.092c1.207-0.974,2.368-2.644,3.63-2.723c1.287-0.079,2.67,1.403,4.527,2.512c-1.644,1.135-2.882,2.677-3.991,2.589
	C242.058,197.354,240.72,195.944,239.336,195.092z M299.029,248.421c-1.369,5.311-3.149,10.531-5.017,15.697
	c-0.293,0.815-1.732,1.213-1.865,1.298c-3.27,0.231-3.595-0.771-2.936-2.714c1.759-5.208,3.339-10.479,5.145-15.671
	c0.296-0.846,1.373-1.42,2.087-2.12C297.359,246.096,299.26,247.531,299.029,248.421z M299.8,233.254
	c1.221,0.886,2.438,1.77,3.88,2.814c-1.011,1.712-1.731,2.929-2.449,4.143c-1.143-1.138-2.774-2.104-3.255-3.472
	C297.678,235.895,299.133,234.437,299.8,233.254z M273.141,260.764c1.522-1.295,2.977-2.684,4.578-3.869
	c4.308-3.189,8.677-6.297,13.023-9.435c0.204,0.116,0.407,0.232,0.608,0.349c-1.696,5.295-3.333,10.609-5.129,15.871
	c-0.637,1.869-4.897,2.696-7.435,1.282C276.753,263.833,275.011,262.182,273.141,260.764z M273.821,264.44
	c-0.125,0.457-0.251,0.918-0.376,1.377c-1.493-0.498-2.983-0.997-4.478-1.496c0.199-0.445,0.513-1.292,0.578-1.273
	C270.988,263.452,272.402,263.956,273.821,264.44z M291.226,243.842c-5.753,4.538-11.775,8.732-17.718,13.024
	c-3.288,2.375-6.314,1.611-7.761-2.217c-1.561-4.127-2.943-8.342-4.067-12.607c-0.939-3.564,1.191-6.023,4.78-6.034
	c3.667-0.012,7.332-0.002,10.999-0.002c3.774,0.005,7.579-0.28,11.309,0.129c1.788,0.196,4.426,1.382,4.858,2.71
	C294.05,240.153,292.601,242.757,291.226,243.842z M260.059,233.497c-0.493-0.328-0.987-0.654-1.482-0.982
	c0.874-1.186,1.746-2.372,2.623-3.558c0.404,0.244,0.808,0.489,1.212,0.733C261.628,230.962,260.844,232.227,260.059,233.497z
	 M260.137,245.673c0.832,2.636,1.461,4.622,2.158,6.816C258.134,250.909,257.962,250.43,260.137,245.673z M255.302,222.616
	c-1.635-4.979-3.258-9.962-4.886-14.944c0.225-0.191,0.447-0.382,0.671-0.571c4.579,3.334,9.193,6.62,13.713,10.036
	c1.316,0.993,0.387,5.391-1.352,7.226C258.681,229.395,257.439,229.134,255.302,222.616z M258.287,241.707
	c-1.138,6.915-1.959,7.282-7.509,3.082c-1.637-1.237-3.345-2.589-4.412-4.272c-0.492-0.775,6.105-4.533,8.021-4.508
	C257.06,236.047,258.802,238.591,258.287,241.707z M239.106,236.124c2.824,0,5.063,0,7.338,0
	C243.797,239.43,243.209,239.463,239.106,236.124z M239.458,240.086c0.251,0.189,0.03,1.65-0.396,1.991
	c-2.357,1.882-4.812,3.656-7.326,5.322c-0.459,0.306-1.928,0.063-1.965-0.12c-0.583-2.869-1.318-5.773-1.305-8.663
	c0.007-1.082,1.845-2.155,3.344-3.764C234.822,236.872,237.204,238.394,239.458,240.086z M229.21,227.334
	c-0.122,0.362-1.193,0.825-1.393,0.674c-2.029-1.54-4.511-2.851-5.819-4.895c-2.561-4.003-2.065-5.081,1.764-7.826
	c3.796-2.722,7.578-5.458,11.365-8.187c0.211,0.16,0.42,0.323,0.629,0.483C233.589,214.171,231.441,220.767,229.21,227.334z
	 M224.839,228.938c0.916,1.16,1.831,2.322,2.744,3.485c-0.47,0.358-0.943,0.721-1.414,1.083c-0.821-1.246-1.644-2.49-2.467-3.734
	C224.081,229.493,224.46,229.214,224.839,228.938z M223.731,252.857c0.813-2.585,1.438-4.564,2.13-6.75
	C228.335,249.925,228.217,250.364,223.731,252.857z M224.693,255.852c4.057-2.77,3.984-2.877,5.514,1.79
	c0.369,1.118,0.72,2.243,1.086,3.364c1.45,4.449,1.45,4.449-3.35,4.436c-0.163,0.275-0.326,0.555-0.49,0.83
	c-2.18-1.264-5.461-2.047-6.266-3.906C220.158,259.987,222.26,257.511,224.693,255.852z M235.08,273.104
	c-2.171-1.538-3.818-2.705-6.017-4.26C233.645,268.082,233.723,268.137,235.08,273.104z M233.279,258.316
	c-2.316-7.04-2.334-7.064,3.835-11.439c7.11-5.04,4.803-5.032,11.903,0c6.172,4.371,6.154,4.398,3.84,11.438
	c-2.348,7.127-2.348,7.127-9.788,7.127C235.624,265.442,235.624,265.442,233.279,258.316z M256.808,268.91
	c-1.895,1.394-3.54,2.608-5.457,4.019C252.124,268.274,252.528,267.973,256.808,268.91z M254.881,260.876
	c0.298-0.916,0.459-1.9,0.896-2.744c0.788-1.518,1.865-4.267,2.595-4.194c3.028,0.3,7.799,6.345,6.812,8.323
	c-1.381,2.775-4.11,3.527-6.757,3.182C253.393,265.45,253.396,265.452,254.881,260.876z M291.962,232.934
	c-0.934-0.404-1.966-0.66-2.775-1.236c-4.399-3.131-8.767-6.304-13.076-9.551c-0.727-0.546-1.124-1.526-1.672-2.305
	c1.458-0.675,3.539-2.328,4.273-1.861c4.82,3.059,9.358,6.564,13.959,9.963c0.378,0.283,0.53,0.87,0.823,1.38
	C292.962,230.578,292.462,231.756,291.962,232.934z M274.721,224.288c4.018,2.909,8.028,5.829,12.847,9.328
	c-7.74,0-14.438-0.02-21.137,0.016c-1.878,0.009-2.647-0.584-1.874-2.526c0.56-1.402,0.851-2.915,1.459-4.292
	C267.778,222.832,271.329,221.834,274.721,224.288z M264.257,213.582c-4.371-3.163-8.764-6.302-13.076-9.542
	c-0.744-0.561-1.775-2.071-1.589-2.314c0.808-1.059,2.019-1.811,3.088-2.679c0.878,0.519,1.552,0.85,2.153,1.284
	c3.846,2.786,7.746,5.507,11.455,8.464c0.896,0.713,1.691,2.294,1.58,3.379C267.559,215.197,266.78,215.403,264.257,213.582z
	 M234.87,204.067c-4.191,3.221-8.5,6.291-12.814,9.35c-0.819,0.582-1.839,0.881-2.766,1.311c-0.48-1.061-0.961-2.12-1.58-3.481
	c0.545-0.728,0.955-1.624,1.649-2.146c4.054-3.051,8.226-5.942,12.25-9.031c2.194-1.689,3.41,0.047,4.607,1.222
	C236.469,201.536,235.639,203.474,234.87,204.067z M219.768,226.147c0.976,2.108,1.38,4.477,2.037,6.734
	c-1.964,0.246-3.922,0.673-5.89,0.708c-5.463,0.098-10.93,0.034-17.381,0.034c5.505-3.98,10.168-7.432,14.932-10.739
	C214.863,221.917,218.67,223.768,219.768,226.147z M209.849,222.272c-4.306,3.255-8.699,6.396-13.066,9.568
	c-0.608,0.441-1.24,0.851-2.077,1.424c-0.402-0.479-1.038-0.886-1.081-1.349c-0.131-1.366-0.604-3.462,0.077-4.02
	c4.265-3.474,8.692-6.785,13.351-9.694c0.865-0.541,3.02,0.982,4.581,1.552C211.047,220.606,210.63,221.68,209.849,222.272z
	 M197.877,235.985c3.77,0.085,7.548,0.023,11.322,0.023c3.451-0.002,6.901-0.01,10.352,0c3.655,0.007,5.834,2.371,4.923,5.912
	c-1.128,4.375-2.545,8.698-4.179,12.909c-1.417,3.648-4.447,4.359-7.568,2.104c-5.858-4.227-11.797-8.353-17.463-12.827
	c-1.482-1.171-3.082-3.609-2.845-5.205C192.769,236.557,195.409,235.928,197.877,235.985z M216.602,263.054
	c0.065-0.018,0.368,0.835,0.56,1.281c-1.49,0.489-2.982,0.98-4.477,1.471c-0.121-0.461-0.242-0.922-0.363-1.384
	C213.744,263.946,215.161,263.452,216.602,263.054z M202.127,265.34c-0.918-0.229-2.008-1.249-2.327-2.148
	c-1.782-5.06-3.357-10.192-5.002-15.3c0.171-0.169,0.34-0.336,0.511-0.506c5.636,4.091,11.284,8.163,16.876,12.314
	c0.34,0.254,0.51,1.453,0.278,1.655C209.497,263.895,206.417,266.414,202.127,265.34z M196.897,262.587
	c0.729,2.14,0.286,3.127-3.133,2.792c-0.284-0.28-1.583-0.998-1.963-2.047c-1.689-4.661-3.063-9.433-4.663-14.13
	c-0.841-2.47,0.85-3.451,2.504-4.085c0.427-0.166,1.963,1.402,2.318,2.409C193.719,252.506,195.192,257.585,196.897,262.587z
	 M188.178,236.741c-0.404,1.428-1.864,2.555-3.398,4.457c-0.774-2.136-1.946-3.727-1.564-4.721c0.507-1.321,2.222-2.179,3.417-3.234
	C187.201,234.424,188.446,235.796,188.178,236.741z M206.755,293.345c0.17,0.577-1.038,1.561-2.062,2.994
	c-1.524-1.486-2.828-2.188-3.21-3.228c-1.708-4.642-3.104-9.398-4.717-14.074c-0.922-2.676,0.867-3.738,2.678-4.735
	c0.27-0.149,1.352,0.466,1.502,0.913C202.974,281.228,204.963,287.259,206.755,293.345z M183.248,297.869c5.5,0,11,0,16.499,0
	c0,0.189,0,0.378,0,0.567c-5.507,0-11.015,0-16.521,0C183.234,298.247,183.241,298.057,183.248,297.869z M186.229,301.471
	c2.155,0.104,4.319,0.022,6.48,0.022c2.163,0.009,4.33,0.108,6.482-0.018c2.386-0.138,3.153,1.465,3.088,3.216
	c-0.022,0.623-1.852,1.629-2.895,1.683c-3.88,0.198-7.791,0.253-11.659-0.044c-1.141-0.087-2.498-1.309-3.191-2.378
	C183.519,302.38,184.157,301.37,186.229,301.471z M188.632,309.199c4.309,0.061,8.627-0.12,12.922,0.121
	c1.069,0.06,2.619,1.133,3.008,2.11c1.543,3.896,2.664,7.959,4.043,11.919c0.678,1.945-0.055,2.587-1.899,2.569
	c-2.26-0.023-4.524-0.006-7.326-0.006c-9.701-0.209-7.019,1.603-10.376-7.864c-0.756-2.13-1.354-4.315-2.07-6.459
	C186.392,309.971,186.754,309.17,188.632,309.199z M204.784,302.838c-0.029-0.378,1.598-1.141,2.529-1.29
	c2.548-0.409,3.047,1.604,3.183,3.395c0.046,0.614-1.214,1.327-1.207,1.319C205.439,306.773,204.935,304.78,204.784,302.838z
	 M209.098,289.581c-0.27-0.047-0.544-0.093-0.816-0.137c-1.662-5.106-3.377-10.196-4.966-15.324
	c-0.676-2.183,1.516-5.113,4.516-5.527c2.381-0.327,4.865,0.134,7.306,0.243c-0.405,1.94-0.669,3.924-1.244,5.814
	C212.368,279.647,210.706,284.605,209.098,289.581z M210.845,292.691c2.055-7.153,4.538-14.181,6.744-21.292
	c0.671-2.168,1.678-3.478,4.32-3.463c1.43,0.625,2.983,1.067,4.263,1.917c2.875,1.911,5.763,3.859,8.355,6.122
	c1.357,1.189,2.341,2.983,3.023,4.691c0.301,0.748-0.256,2.382-0.955,2.905c-6.385,4.8-12.794,9.587-19.436,14.017
	c-1.4,0.936-4.216,1.118-5.565,0.301C210.614,297.297,210.381,294.312,210.845,292.691z M220.106,301.557
	c2.564-0.213,5.159-0.065,7.741-0.065c2.582-0.001,5.172-0.103,7.744,0.053c0.963,0.056,1.89,0.71,2.833,1.094
	c-0.934,1.254-1.686,3.34-2.839,3.592c-2.572,0.561-5.343,0.216-8.031,0.224c-2.476,0.006-4.951-0.081-7.424,0.006
	c-2.496,0.087-3.273-1.593-3.193-3.477C216.959,302.443,218.962,301.657,220.106,301.557z M238.37,298.61
	c-5.653,0.092-11.309,0.056-16.963,0.056c-0.072-0.233-0.148-0.462-0.222-0.694c5.452-3.956,10.892-7.938,16.393-11.83
	c0.395-0.279,1.54-0.144,1.855,0.217c1.947,2.236,2.312,8.556,0.669,11.039C239.732,297.957,238.964,298.6,238.37,298.61z
	 M244.749,292.001c1.242-7.005,1.979-7.309,7.633-3.177c4.166,3.047,8.336,6.081,12.505,9.122c-0.072,0.258-0.143,0.517-0.214,0.773
	c-5.469,0-10.942,0.084-16.411-0.041C246.159,298.631,244.259,294.773,244.749,292.001z M250.434,301.536
	c2.684-0.122,5.377-0.044,8.066-0.044c2.69,0.002,5.388-0.116,8.064,0.065c0.96,0.063,1.871,0.853,2.805,1.311
	c-0.766,1.159-1.48,3.286-2.301,3.325c-5.683,0.287-11.397,0.294-17.076-0.047c-0.834-0.049-1.527-2.424-2.284-3.721
	C248.615,302.113,249.513,301.576,250.434,301.536z M269.159,297.716c-6.723-4.508-13.213-9.359-19.739-14.154
	c-1.622-1.191-1.399-4.763,0.711-6.473c3.598-2.921,7.428-5.566,11.261-8.183c0.81-0.556,2.05-0.48,3.092-0.696
	c0.251-0.161,0.506-0.324,0.756-0.484c1.066,1.157,2.629,2.14,3.107,3.502c2.508,7.123,4.881,14.304,6.967,21.559
	c0.461,1.606,0.176,4.383-0.869,5.195C273.355,298.827,270.487,298.607,269.159,297.716z M270.892,270.355
	c-0.152-0.493,0.593-1.81,0.957-1.822c2.349-0.089,4.848-0.393,7.03,0.264c3.871,1.165,4.649,3.277,3.378,7.156
	c-1.488,4.546-2.988,9.09-4.482,13.631c-0.248,0.003-0.496,0.003-0.745,0.003C274.962,283.182,272.863,276.789,270.892,270.355z
	 M284.658,276.826c0.342-0.989,1.738-2.595,1.927-2.499c1.683,0.857,3.659,1.771,2.874,4.311c-0.827,2.671-1.707,5.326-2.576,7.984
	c-0.701,2.147-1.26,4.365-2.193,6.405c-0.482,1.054-1.643,1.793-1.91,2.067c-3.261,0.362-4.062-0.32-3.264-2.634
	C281.306,287.276,282.866,282.011,284.658,276.826z M279.063,301.554c0.854,0.166,2.265,1.035,2.243,1.528
	c-0.095,2.083-0.98,3.763-4.614,3.146c0.011,0.012-1.139-0.654-1.087-1.21C275.781,303.055,276.4,301.041,279.063,301.554z
	 M290.987,309.217c2.263-0.049,4.538-0.129,6.778,0.1c0.566,0.056,1.573,1.401,1.434,1.887c-1.239,4.345-2.588,8.667-4.159,12.899
	c-0.306,0.816-1.685,1.616-2.646,1.726c-2.232,0.253-4.515,0.081-6.779,0.081c-8.913,0.016-8.994-0.011-6.158-8.33
	C282.915,307.432,280.22,309.448,290.987,309.217z M285.059,306.305c-0.464-0.01-1.407-1.4-1.27-1.629
	c0.701-1.146,1.55-2.8,2.6-3.01c2.289-0.455,4.728-0.141,7.104-0.141v-0.033c1.945,0,3.896-0.103,5.832,0.045
	c0.908,0.069,1.779,0.622,2.666,0.954c-0.783,1.282-1.487,3.605-2.369,3.675C294.79,306.542,289.916,306.414,285.059,306.305z
	 M286.388,298.368c0-0.18,0.001-0.36,0.001-0.541c5.511,0,11.016,0,16.524,0c0.005,0.181,0.011,0.361,0.016,0.541
	C297.416,298.368,291.902,298.368,286.388,298.368z M302.855,246.289c0.248-0.337,0.494-0.676,0.74-1.011
	c4.571,3.317,9.141,6.635,13.713,9.952c-0.266,0.351-0.528,0.702-0.793,1.054C311.961,252.951,307.409,249.62,302.855,246.289z
	 M315.603,250.855c-3.364-2.334-6.608-4.839-9.966-7.188c-2.282-1.599-1.055-3.4-0.448-5.166c0.107-0.315,0.584-0.505,1.135-0.95
	c4.488,3.48,8.959,6.812,13.178,10.436c0.421,0.36-0.69,2.504-1.093,3.819C317.467,251.501,316.384,251.395,315.603,250.855z
	 M318.933,243.725c-3.664-2.478-7.278-5.046-10.717-7.824c-0.773-0.625-1.322-2.329-1.061-3.292
	c1.145-4.267,2.686-8.424,3.957-12.659c0.56-1.871,1.363-1.861,2.735-0.837c3.46,2.58,7.002,5.055,10.419,7.691
	c0.819,0.635,1.281,1.735,1.722,2.357c-1.658,5.081-3.073,9.616-4.688,14.074C321.148,243.659,319.425,244.057,318.933,243.725z
	 M310.047,212.902c-1.177-0.788-2.237-1.758-3.322-2.683c0.826-0.271,1.658-0.759,2.481-0.748c0.818,0.009,1.63,0.52,2.94,0.986
	C311.103,211.682,310.128,212.958,310.047,212.902z M322.7,249.933c0.771,0.481,1.545,0.966,2.826,1.768
	c-1.579,1.139-2.719,1.99-3.914,2.757c-0.078,0.051-0.896-0.702-0.832-0.838C321.353,252.361,322.044,251.156,322.7,249.933z
	 M316.735,206.985l-0.001-0.166c7.342,0,14.686,0,22.027,0l0.005,0.166C331.422,206.985,324.079,206.985,316.735,206.985z
	 M314.124,202.344c-0.32,0.896-1.851,1.361-2.818,2.026c-2.581-0.17-2.849-1.177-2.193-3.125c2.21-6.545,4.281-13.138,6.505-19.677
	c0.282-0.831,1.163-1.461,1.769-2.183c1.047,1.197,3.196,2.693,2.965,3.543C318.565,189.481,316.395,195.935,314.124,202.344z
	 M305.728,203.679c-0.41-0.113-0.82-0.229-1.23-0.344c2.86-8.824,5.72-17.65,8.579-26.474c0.403,0.126,0.803,0.253,1.205,0.38
	C311.429,186.054,308.578,194.866,305.728,203.679z M304.966,214.484c0.127-0.379,0.705-0.607,0.894-0.76
	c2.158,0.237,3.757,2.661,3.179,4.517c-1.244,4.009-2.506,8.014-3.886,11.977c-0.296,0.845-1.12,1.504-1.7,2.25
	c-1.072-1.19-3.249-2.647-3.035-3.526C301.603,224.04,303.352,219.274,304.966,214.484z M297.866,227.689
	c-0.378-0.122-0.757-0.245-1.134-0.368c1.734-5.396,3.47-10.793,5.203-16.189c0.414,0.15,0.826,0.301,1.24,0.452
	C301.408,216.954,299.636,222.322,297.866,227.689z M253.26,195.499c-0.277-0.339-0.554-0.678-0.83-1.018
	c4.503-3.266,9.008-6.533,13.511-9.8c0.256,0.337,0.51,0.673,0.765,1.009C262.222,188.961,257.742,192.229,253.26,195.499z
	 M265.869,180.9c-1.103-0.894-2.21-1.786-3.315-2.678c0.608-0.657,1.218-1.315,2.29-2.477c0.716,1.679,1.279,2.828,1.669,4.034
	C266.603,180.055,266.1,180.523,265.869,180.9z M263.211,183.187c-0.308,0.319-0.684,0.845-1.177,1.206
	c-3.642,2.671-7.334,5.277-10.959,7.971c-2.377,1.765-3.379-0.668-4.917-1.483c0.554-0.843,0.936-1.909,1.691-2.49
	c3.326-2.555,6.73-5.014,10.167-7.413C259.555,179.903,263.188,181.358,263.211,183.187z M255.308,179.858
	c-3.417,2.447-6.742,5.027-10.271,7.296c-0.916,0.589-2.784,0.744-3.639,0.196c-3.718-2.373-7.199-5.109-10.812-7.649
	c-1.531-1.074-1.385-1.909,0.038-2.927c3.681-2.631,7.285-5.371,11.012-7.932c0.628-0.43,1.987-0.57,2.555-0.183
	c3.997,2.736,7.881,5.641,11.785,8.513c0.327,0.24,0.542,0.629,1.278,1.51C256.57,179.095,255.906,179.43,255.308,179.858z
	 M238.545,188.585c0.67,0.516,0.964,1.518,1.43,2.298c-1.462,0.612-3.497,2.165-4.285,1.683c-4.206-2.575-8.118-5.637-12.074-8.605
	c-0.354-0.265-0.604-1.366-0.402-1.56c0.91-0.871,1.997-1.556,3.15-2.402c0.938,0.556,1.793,0.98,2.557,1.529
	C232.152,183.845,235.398,186.154,238.545,188.585z M220.266,180.903c-0.232-0.379-0.751-0.895-0.646-1.109
	c0.552-1.15,1.259-2.225,1.913-3.325c0.748,0.487,1.497,0.973,2.736,1.781C222.626,179.339,221.446,180.12,220.266,180.903z
	 M220.122,184.673c4.524,3.264,9.049,6.526,13.574,9.791c-0.254,0.354-0.511,0.707-0.767,1.059
	c-4.515-3.278-9.028-6.559-13.541-9.839C219.633,185.346,219.879,185.009,220.122,184.673z M189.407,227.321
	c-0.396,0.119-0.791,0.24-1.186,0.359c-1.759-5.383-3.513-10.764-5.271-16.148c0.406-0.135,0.811-0.27,1.217-0.404
	C185.913,216.524,187.66,221.922,189.407,227.321z M186.253,229.663c-1.145,0.881-2.414,1.858-3.683,2.833
	c-0.554-0.791-1.32-1.507-1.625-2.386c-1.343-3.863-2.418-7.822-3.855-11.646c-1.076-2.857,1.001-3.576,2.696-4.574
	c0.263-0.154,1.278,0.331,1.41,0.704C182.862,219.368,184.431,224.177,186.253,229.663z M180.439,203.727
	c-2.87-8.837-5.742-17.676-8.613-26.513c0.402-0.133,0.803-0.265,1.204-0.396c2.867,8.838,5.737,17.677,8.606,26.516
	C181.236,203.466,180.838,203.596,180.439,203.727z M176.976,201.116c0.715,2.113,0.468,3.197-2.598,3.344
	c-0.913-0.957-2.264-1.761-2.665-2.898c-2.087-5.9-3.863-11.908-5.887-17.832c-0.956-2.807,1.322-3.275,2.867-4.173
	c0.146-0.085,1.642,1.503,1.98,2.499C172.848,188.383,174.824,194.78,176.976,201.116z M169.39,206.91c-7.336,0-14.675,0-22.01,0
	l-0.019-0.163c7.341,0,14.685,0,22.026,0L169.39,206.91z M151.816,252.191c1.558,1.12,1.188,1.965-0.172,2.94
	c-4.463,3.195-8.917,6.406-13.31,9.697c-1.725,1.293-2.561,0.964-3.161-1.059c-1.189-4.012-2.512-7.986-3.782-11.986
	c1.12-3.402,2.133-6.688,3.352-9.893c0.152-0.394,1.711-0.76,2.143-0.458C141.911,244.946,146.841,248.6,151.816,252.191z
	 M138.463,267.966c3.2-2.723,6.72-5.065,10.13-7.544c1.834-1.334,3.609-2.768,5.547-3.933c0.772-0.465,2.073-0.722,2.849-0.393
	c3.045,1.279,3.111,2.369,0.434,4.327c-5.319,3.891-10.66,7.748-16,11.61c-0.694,0.503-1.431,0.945-2.424,1.597
	c-0.414-0.646-1.072-1.202-1.079-1.766C137.908,270.533,137.704,268.612,138.463,267.966z M162.389,259.913
	c0.252,0.346,0.507,0.695,0.759,1.042c-7.617,5.539-15.235,11.081-22.854,16.623c-0.257-0.355-0.515-0.711-0.774-1.067
	C147.143,270.978,154.766,265.446,162.389,259.913z M145.917,276.552c5.673-4.124,11.35-8.242,17.037-12.349
	c2.747-1.983,5.255-1.539,6.341,1.575c2.802,8.043,5.436,16.149,7.864,24.314c0.967,3.257-0.769,5.129-4.093,5.15
	c-4.102,0.024-8.202,0.005-12.304,0.005c-4.209-0.002-8.418-0.088-12.625,0.035c-1.971,0.059-2.979-0.704-3.479-2.55
	c-0.563-2.077-1.279-4.116-1.932-6.169C140.744,280.319,140.74,280.314,145.917,276.552z M174.527,297.935
	c0.012,0.188,0.021,0.377,0.029,0.568c-9.055,0-18.108,0-27.164,0c0-0.191-0.004-0.38-0.008-0.568
	C156.435,297.935,165.482,297.935,174.527,297.935z M150.433,301.474c3.563,0.08,7.131,0.021,10.697,0.021
	c3.24-0.004,6.486-0.092,9.723,0.051c0.97,0.043,1.914,0.732,2.868,1.128c-0.942,1.248-1.653,3.137-2.888,3.588
	c-1.72,0.628-3.834,0.19-5.778,0.191c-4.431,0.004-8.866,0.125-13.285-0.099c-1.12-0.055-2.562-0.978-3.19-1.935
	C147.397,302.61,148.006,301.422,150.433,301.474z M207.291,310.825c-0.138-0.479,1.174-1.372,2.385-2.698
	c1.395,1.542,2.642,2.366,3.073,3.501c1.411,3.707,2.582,7.511,3.71,11.318c0.254,0.858-0.051,1.884-0.097,2.834
	c-1.549-0.388-4.104-0.35-4.479-1.235C210.004,320.116,208.626,315.462,207.291,310.825z M213.611,330.086
	c0.377-0.747,1.324-1.201,2.29-1.978c0.841,0.747,1.364,1.214,1.885,1.681c-0.996,0.732-1.993,1.468-2.992,2.202
	C214.365,331.337,213.434,330.43,213.611,330.086z M214.89,309.884c0.414-0.143,0.828-0.291,1.244-0.438
	c1.715,5.283,3.431,10.566,5.146,15.849c-0.39,0.13-0.778,0.261-1.168,0.39C218.369,320.42,216.63,315.151,214.89,309.884z
	 M270.001,309.438c0.405,0.129,0.811,0.262,1.216,0.391c-1.708,5.286-3.417,10.576-5.125,15.862c-0.415-0.133-0.828-0.267-1.244-0.4
	C266.566,320.007,268.284,314.723,270.001,309.438z M272.086,326.483c-2.915-0.295-3.283-1.27-2.607-3.221
	c1.371-3.952,2.715-7.921,3.902-11.934c0.741-2.497,2.609-2.355,4.375-1.989c2.447,0.503,0.921,2.247,0.609,3.319
	c-1.047,3.606-2.176,7.201-3.561,10.684C274.324,324.559,273.015,325.447,272.086,326.483z M273.508,329.96
	c-1.209,1.026-2.064,2.031-2.298,1.904c-1.058-0.58-1.939-1.477-2.883-2.26c0.678-0.303,1.374-0.878,2.034-0.841
	C271.197,328.811,272.007,329.356,273.508,329.96z M312.95,304.377c-1.088-1.707-0.749-3.007,1.808-2.913
	c3.563,0.128,7.131,0.03,10.696,0.03c3.242-0.002,6.491-0.12,9.721,0.069c0.989,0.058,1.929,0.967,2.891,1.483
	c-0.95,1.121-1.732,2.928-2.891,3.217c-2.14,0.534-4.5,0.187-6.769,0.19c-4.105,0.004-8.221,0.137-12.314-0.1
	C314.985,306.293,313.566,305.342,312.95,304.377z M311.577,298.502c-0.004-0.189-0.007-0.375-0.008-0.564
	c9.044,0,18.086,0,27.133,0c0.013,0.189,0.024,0.375,0.037,0.564C329.687,298.502,320.63,298.502,311.577,298.502z M338.121,295.138
	c-4.302,0.264-8.629,0.107-12.942,0.107c-3.993,0.002-7.985,0.017-11.98-0.002c-3.403-0.017-5.195-1.805-4.244-5.02
	c2.442-8.271,5.114-16.478,7.978-24.615c1.051-2.982,3.522-3.374,6.14-1.482c6.646,4.806,13.218,9.712,19.94,14.407
	c1.974,1.381,2.296,2.702,1.483,4.847c-1.181,3.123-1.89,6.43-3.194,9.488C340.855,293.922,339.256,295.067,338.121,295.138z
	 M323.027,261.005c0.238-0.357,0.474-0.713,0.709-1.066c7.633,5.531,15.266,11.057,22.898,16.588
	c-0.253,0.353-0.506,0.705-0.755,1.061C338.261,272.059,330.645,266.532,323.027,261.005z M345.958,272.859
	c-6.164-4.384-12.278-8.83-18.367-13.314c-0.425-0.315-0.91-1.361-0.781-1.49c0.959-0.975,2.064-1.804,3.172-2.715
	c0.858,0.466,1.549,0.756,2.14,1.181c5.083,3.663,10.083,7.448,15.246,10.993c2.559,1.757,1.121,3.545,0.429,5.345
	C347.712,273.079,346.385,273.163,345.958,272.859z M348.514,265.216c-4.852-3.394-9.65-6.864-14.355-10.457
	c-0.39-0.297-0.342-2.071,0.081-2.395c4.968-3.779,10.027-7.439,15.136-11.031c0.394-0.274,1.82,0.054,1.953,0.408
	c1.244,3.309,2.312,6.688,3.435,10.059c-1.437,4.443-2.782,8.75-4.285,13.001C350.357,265.149,348.909,265.493,348.514,265.216z
	 M350.579,230.863c-2.03-6.372-4.1-12.733-6.221-19.075c-0.582-1.744-0.068-2.423,1.717-2.385c1.941,0.042,3.886,0.012,6.67,0.012
	c4.328-1.146,8.436,0.952,12.105,4.299c0.603,0.547,1.608,1.482,1.462,1.892c-1.139,3.185-1.9,6.8-3.982,9.276
	c-2.354,2.808-5.987,4.527-8.999,6.808C351.902,232.774,351.14,232.622,350.579,230.863z M336.933,187.543
	c7.391,5.375,14.453,10.511,21.8,15.851C354.478,204.156,337.777,192.028,336.933,187.543z M321.777,178.375
	c-0.129,0.188-0.843,0.235-1.083,0.058c-1.911-1.405-3.8-2.84-5.618-4.362c-0.309-0.257-0.3-0.966-0.305-1.469
	c-0.002-0.146,0.451-0.301,0.904-0.581c2.073,1.719,4.153,3.41,6.168,5.174C322.04,177.365,321.978,178.083,321.777,178.375z
	 M314.21,165.305c-0.523,1.685-1.31,1.682-2.538,0.751c-1.708-1.298-3.435-2.576-5.189-3.812c-1.275-0.896-1.08-1.57,0.099-2.41
	c3.836-2.73,7.628-5.525,11.434-8.295c0.178,0.115,0.354,0.232,0.531,0.347C317.096,156.356,315.603,160.817,314.21,165.305z
	 M311.765,169.555c0.299,0.224,0.388,0.723,0.918,1.771c-1.019-0.12-1.649-0.008-2.023-0.268c-2.818-1.966-5.609-3.975-8.347-6.051
	c-0.364-0.276-0.382-1.007-0.561-1.525c0.492-0.08,1.163-0.409,1.454-0.202C306.099,165.313,308.941,167.424,311.765,169.555z
	 M309.351,173.619c0.737,0.614,1.3,2.253,1.028,3.142c-2.518,8.265-5.165,16.49-7.969,24.661c-0.415,1.212-1.824,2.081-2.86,3.204
	c-1.976-0.961-3.312-1.398-4.406-2.178c-6.156-4.395-12.272-8.847-18.363-13.333c-3.655-2.69-3.681-4.965-0.176-7.513
	c6.555-4.768,13.152-9.475,19.65-14.317c1.643-1.224,2.873-1.399,4.538-0.072C303.577,169.435,306.617,171.341,309.351,173.619z
	 M298.452,161.938c-2.166-1.384-4.291-2.827-6.372-4.334c-0.218-0.157-0.28-0.826-0.129-1.103c0.164-0.304,0.661-0.423,1.207-0.733
	c2.142,1.657,4.253,3.287,6.36,4.916C299.151,161.122,298.516,161.978,298.452,161.938z M293.459,161.061
	c-1.428,1.314-1.99,1.941-2.659,2.43c-5.577,4.088-11.15,8.186-16.797,12.179c-0.688,0.489-1.795,0.384-2.71,0.553
	c-0.079-1.579-0.853-4.022-0.13-4.601c5.391-4.318,10.983-8.418,16.775-12.178C288.855,158.85,291.109,160.319,293.459,161.061z
	 M288.042,154.683c-2.697-1.825-5.316-3.769-7.96-5.672c0.112-0.271,0.225-0.542,0.338-0.814c1.04,0.2,2.237,0.138,3.088,0.654
	c2.003,1.215,3.87,2.663,5.711,4.122c0.363,0.288,0.357,1.039,0.523,1.579C289.164,154.61,288.409,154.932,288.042,154.683z
	 M285.251,156.007c0.27,0.166,0.124,1.869-0.322,2.205c-4.653,3.525-9.379,6.96-14.184,10.276c-0.397,0.273-2.037-0.309-2.213-0.806
	c-2-5.71-3.824-11.482-5.712-17.232c-0.581-1.775,0.178-2.381,1.875-2.322c1.404,0.046,2.811,0.009,4.725,0.009
	C276.272,146.744,280.078,152.83,285.251,156.007z M258.423,136.405c4.115,2.98,7.838,5.678,11.841,8.578
	C261.548,146.448,260.858,145.953,258.423,136.405z M256.052,128.788c7.799,5.662,14.875,10.801,22.318,16.201
	C274.173,145.535,257.533,133.705,256.052,128.788z M215.547,145.212c4.347-3.154,8.058-5.848,12.007-8.713
	C224.661,147.043,226.334,145.463,215.547,145.212z M207.622,145.088c7.615-5.525,14.649-10.629,21.88-15.878
	C229.279,133.096,212.481,145.481,207.622,145.088z M209.94,149.452c2.176-1.123,4.87-1.251,7.333-1.824
	c6.79,0.502,6.787,0.502,4.677,6.986c-1.371,4.215-2.773,8.417-4.081,12.649c-0.557,1.804-1.269,2.286-2.945,1.032
	c-4.414-3.304-8.883-6.539-13.39-9.717c-1.896-1.336-1.418-2.274,0.175-3.379C204.461,153.288,206.992,150.971,209.94,149.452z
	 M198.07,154.693c-0.363,0.245-1.135-0.04-1.68-0.21c-0.086-0.025-0.115-0.945,0.083-1.081c2.88-1.98,5.125-5.163,9.04-5.221
	c0.176,0.278,0.353,0.557,0.527,0.835C203.393,150.923,200.77,152.866,198.07,154.693z M197.154,158.675
	c0.781,0.468,1.36,0.759,1.875,1.133c5.166,3.736,10.355,7.444,15.444,11.284c0.682,0.515,1.251,1.772,1.159,2.606
	c-0.37,3.342-1.252,3.653-3.99,1.666c-5.424-3.934-10.862-7.847-16.23-11.857c-0.715-0.534-1.643-2.097-1.468-2.295
	C194.834,160.203,196.059,159.486,197.154,158.675z M194.2,157.412c-2.107,1.642-4.27,3.214-6.486,4.858
	c-0.492-0.322-0.99-0.475-1.108-0.777c-0.116-0.297,0.024-0.91,0.27-1.102c1.865-1.445,3.759-2.857,5.711-4.178
	c0.32-0.221,1.024-0.061,1.449,0.14C194.23,156.444,194.349,157.294,194.2,157.412z M189.265,167.013
	c7.166,5.022,14.229,10.193,21.283,15.375c2.105,1.544,2.175,4.12-0.182,5.906c-6.717,5.086-13.58,9.982-20.434,14.887
	c-0.738,0.529-1.792,0.619-3.57,1.192c-0.807-0.867-2.225-1.732-2.637-2.942c-2.805-8.171-5.45-16.398-7.969-24.662
	c-0.271-0.891,0.281-2.539,1.02-3.144c2.916-2.395,5.985-4.632,9.168-6.661C186.746,166.452,188.492,166.47,189.265,167.013z
	 M183.917,164.975c-2.773,2.029-5.551,4.053-8.361,6.029c-0.37,0.26-0.934,0.246-1.408,0.358c0.05-0.586-0.131-1.464,0.184-1.71
	c2.777-2.189,5.616-4.306,8.516-6.329c0.369-0.259,1.202,0.146,2.247,0.309C184.45,164.374,184.233,164.741,183.917,164.975z
	 M179.656,162.264c-6.586,5.875-6.791,5.846-9.518-2.477c-0.865-2.635-1.697-5.276-2.841-8.848
	c4.634,3.373,8.425,6.169,12.262,8.899C180.749,160.686,180.798,161.245,179.656,162.264z M170.432,172.331
	c0.165-0.125,0.766-0.018,0.817,0.114c0.143,0.367,0.289,1.018,0.101,1.185c-2,1.781-4.063,3.491-6.695,5.716
	c-0.175-1.175-0.524-2.042-0.298-2.233C166.319,175.442,168.374,173.882,170.432,172.331z M127.077,203.631
	c7.656-5.57,14.669-10.675,21.817-15.876C148.82,191.498,132.283,203.891,127.077,203.631z M134.482,209.404
	c8.09,0,8.089,0,5.613,7.55c-1.478,4.508-3,9.007-4.4,13.541c-0.603,1.955-1.343,2.45-3.112,1.062
	c-2.713-2.132-5.548-4.115-8.362-6.114c-3.373-2.396-3.285-6.363-4.393-9.764c-0.146-0.448,0.787-1.416,1.404-1.917
	C126.585,209.39,126.598,209.404,134.482,209.404z M127.292,254.603c-2.854-8.714-5.618-17.153-8.499-25.952
	C122.843,230.989,129.327,250.874,127.292,254.603z M125.408,233.679c7.549,2.957,8.39,5.259,4.453,13.501
	C128.247,242.292,126.841,238.026,125.408,233.679z M130.13,256.366c1.26,3.861,2.375,7.092,3.33,10.367
	c0.155,0.538-0.386,1.277-0.604,1.92c-0.48-0.419-1.269-0.765-1.387-1.27C130.683,263.999,127.994,260.853,130.13,256.366z
	 M137.79,282.169c0.595,0.848,1.046,1.27,1.226,1.784c1.081,3.127,2.134,6.267,3.107,9.427c0.153,0.498-0.146,1.136-0.239,1.707
	c-0.531-0.252-1.398-0.385-1.538-0.778c-1.179-3.317-2.265-6.67-3.268-10.046C136.947,283.813,137.427,283.18,137.79,282.169z
	 M142.081,297.878c0.473,0.141,1.243,0.154,1.369,0.443c0.945,2.164,1.761,4.386,2.686,6.76c-0.293,0.383-0.557,1.028-0.877,1.057
	c-0.399,0.039-1.095-0.338-1.232-0.701c-0.803-2.107-1.504-4.254-2.175-6.409C141.752,298.699,141.997,298.264,142.081,297.878z
	 M145.998,309.51c0.566,0.343,1.464,0.561,1.645,1.047c1.135,3.051,2.111,6.163,3.141,9.255c-0.288,0.164-0.573,0.329-0.86,0.492
	c-0.728-0.905-1.688-1.71-2.131-2.739c-0.842-1.957-1.449-4.025-2.018-6.086C145.614,310.888,145.912,310.17,145.998,309.51z
	 M158.23,350.007c-2.909-9.011-5.609-17.36-8.377-25.924C153.545,325.465,160.034,345.181,158.23,350.007z M156.366,328.72
	c7.393,2.765,8.155,5.052,4.327,13.582C159.142,337.439,157.788,333.184,156.366,328.72z M162.593,329.479
	c-7.898-3.688-10.082-10.987-11.959-18.479c-0.107-0.429,1.056-1.659,1.685-1.702c2.795-0.189,5.611-0.081,8.42-0.081
	c2.809,0.007,5.619,0.032,8.428-0.003c1.761-0.021,2.335,0.669,1.767,2.397c-1.86,5.64-3.673,11.293-5.488,16.944
	C164.906,330.229,164.193,330.225,162.593,329.479z M164.385,350.13c0.341-3.775,2.226-7.408,3.399-11.118
	c0.484-1.528,1.208-1.891,2.578-0.884c5.491,4.031,11.036,7.991,16.468,12.102c0.384,0.288,0.354,2.001-0.056,2.325
	c-3.049,2.412-6.121,4.852-9.45,6.838c-1.549,0.925-3.683,0.868-5.757,1.297c-1.671-0.411-4.438-0.344-4.909-1.352
	C165.325,356.499,164.114,353.145,164.385,350.13z M207.281,365.229c-9.479,0-18.408,0-27.423,0
	C182.087,362.282,203.352,362.071,207.281,365.229z M197.185,354.54c-1.375-0.988-1.229-1.838,0.044-2.76
	c4.994-3.609,9.951-7.273,15.013-10.788c0.407-0.28,2.028,0.239,2.189,0.699c1.889,5.405,3.666,10.852,5.269,16.349
	c0.163,0.551-0.935,2.059-1.583,2.15c-2.014,0.287-4.094,0.105-6.932,0.105C205.629,361.999,201.624,357.731,197.185,354.54z
	 M219.918,363.196c0.604,0.029,1.174,0.916,1.761,1.409c-0.648,0.243-1.316,0.74-1.941,0.69c-3.18-0.268-6.639,1.038-9.371-2.166
	C213.551,363.129,216.738,363.054,219.918,363.196z M216.676,340.361c-1.021-2.906,1.173-3.525,2.825-4.536
	c0.208-0.127,1.285,0.575,1.449,1.064c2.387,7.057,4.678,14.147,7.01,21.225c0.773,2.346-0.814,2.188-2.831,2.711
	c-0.9-0.973-2.218-1.798-2.626-2.945C220.446,352.083,218.717,346.167,216.676,340.361z M229.564,363.206
	c1.407-0.002,2.814,0.763,4.219,1.188c-1.393,0.438-2.784,0.874-4.394,1.379c-1.557-0.502-3.087-0.996-4.614-1.49
	C226.37,363.894,227.967,363.208,229.564,363.206z M254.347,363.221c0.812-0.2,1.713-0.048,2.573-0.048
	c0.032-0.146,0.065-0.289,0.097-0.436c1.458,0.414,2.914,0.826,4.372,1.239c-1.479,0.449-2.939,0.98-4.444,1.315
	c-0.82,0.185-1.74,0.155-2.571-0.006c-0.702-0.137-1.343-0.599-2.009-0.918C253.022,363.971,253.635,363.395,254.347,363.221z
	 M260.893,360.842c-3.118-0.208-3.182-1.495-2.527-3.449c2.159-6.45,4.212-12.938,6.425-19.37c0.299-0.866,1.805-2.188,1.895-2.123
	c1.346,0.977,3.747,1.292,2.874,3.918c-1.157,3.48-2.274,6.978-3.406,10.472c-0.83,2.569-1.488,5.21-2.556,7.677
	C263.107,359.101,261.82,359.893,260.893,360.842z M268.63,363.138c2.331-0.222,4.695-0.06,7.812-0.06
	c-2.562,3.194-5.434,2.092-7.941,2.201c-1.331,0.057-2.689-0.529-4.037-0.826C265.853,363.995,267.212,363.274,268.63,363.138z
	 M274.531,360.284c-2.836,0-4.807,0.166-6.715-0.1c-0.59-0.082-1.584-1.506-1.428-2.029c1.656-5.596,3.47-11.143,5.379-16.656
	c0.141-0.404,1.643-0.848,2.029-0.582c5.139,3.594,10.217,7.273,15.209,11.069c0.404,0.307,0.398,2.068-0.017,2.399
	C284.512,357.952,280.181,362.059,274.531,360.284z M306.675,365.033c-9.318,0-18.258,0-27.427,0
	C282.25,362.353,303.078,362.175,306.675,365.033z M304.589,356.487c-7.147-5.098-7.141-5.087-0.147-10.115
	c3.689-2.65,7.383-5.295,11.008-8.03c1.565-1.181,2.413-1.003,3.005,0.915c1.079,3.512,2.936,6.939,3.207,10.497
	c0.243,3.141-0.83,6.597-2.169,9.53c-0.48,1.051-3.429,0.978-5.25,1.418C310.078,361.27,307.471,358.545,304.589,356.487z
	 M320.806,328.679c-1.949-5.721-3.76-11.488-5.643-17.232c-0.522-1.591,0.07-2.229,1.65-2.222c2.917,0.014,5.832,0.004,8.75,0.004
	v-0.015c2.699,0,5.403,0.052,8.102-0.017c1.747-0.045,2.408,0.53,1.801,2.304c-1.228,3.571-1.686,7.669-3.78,10.613
	c-2.266,3.189-6.015,5.338-9.2,7.829C322.328,330.065,321.002,329.254,320.806,328.679z M329.9,328.321
	c-1.558,4.876-2.916,9.131-4.329,13.555C321.217,335.023,321.875,332.758,329.9,328.321z M336.43,323.52
	c-2.909,9.06-5.602,17.435-8.503,26.463C326.222,345.626,332.297,326.229,336.43,323.52z M335.097,320.579
	c1.285-3.863,2.273-6.968,3.383-10.032c0.172-0.477,0.888-0.755,1.354-1.126c0.274,0.383,0.864,0.874,0.773,1.132
	c-0.997,2.916-2.057,5.811-3.223,8.662C337.204,319.653,336.395,319.832,335.097,320.579z M340.288,304.703
	c0.658-2.048,1.388-4.072,2.199-6.063c0.159-0.391,0.771-0.75,1.214-0.808c0.226-0.027,0.542,0.647,0.777,0.956
	c-0.821,2.355-1.507,4.512-2.359,6.6c-0.157,0.381-0.987,0.49-1.508,0.726C340.493,305.639,340.163,305.097,340.288,304.703z
	 M344.052,293.369c0.988-3.302,2.071-6.575,3.204-9.829c0.122-0.348,0.872-0.804,1.127-0.702c0.386,0.153,0.593,0.755,0.884,1.177
	c-1.162,3.498-2.251,6.879-3.438,10.226c-0.126,0.354-0.818,0.504-1.246,0.751C344.391,294.445,343.919,293.816,344.052,293.369z
	 M349.068,293.118c0.037-0.1,0.054-0.209,0.081-0.313c2.108-8.209,2.106-8.206,9.024-3.168c2.242,1.634,4.498,3.252,6.747,4.876
	c-0.118,0.242-0.241,0.486-0.362,0.73c-4.621,0-9.246-0.036-13.869,0.02C349.04,295.279,348.519,294.66,349.068,293.118z
	 M350.642,279.297c-0.125,0.329-0.751,0.565-1.18,0.634c-0.139,0.022-0.621-0.69-0.547-0.962c0.637-2.36,1.326-4.708,2.106-7.024
	c0.103-0.31,0.885-0.67,1.192-0.559c0.369,0.128,0.566,0.74,0.8,1.092C352.195,274.876,351.475,277.106,350.642,279.297z
	 M352.708,266.615c0.938-3.204,2.023-6.364,3.267-10.181c1.021,2.627-0.325,10.736-1.694,11.955
	c-0.243,0.218-1.041,0.268-1.07,0.191C352.96,267.948,352.542,267.182,352.708,266.615z M356.33,247.031
	c-4.202-7.817-3.999-8.441,4.571-13.913C359.294,238.013,357.875,242.327,356.33,247.031z M367.34,228.651
	c-2.88,8.799-5.646,17.238-8.497,25.95C356.806,250.875,363.29,230.988,367.34,228.651z M348.468,162.805
	c-4.926,3.502-9.758,7.134-14.694,10.618c-2.098,1.478-4.129,2.838-3.354,6.273c-4.562-3.362-9.171-6.664-13.628-10.16
	c-0.552-0.432-0.62-1.998-0.356-2.867c1.674-5.463,3.201-11.009,5.431-16.25c0.91-2.141,3.368-3.688,5.318-5.264
	c0.398-0.322,1.819,0.235,2.519,0.734c6.323,4.517,12.552,9.162,18.897,13.646C350.53,160.899,350.055,161.677,348.468,162.805z
	 M319.376,147.259c-4.93,4.016-10.211,7.609-15.417,11.28c-0.541,0.383-1.8,0.396-2.344,0.023
	c-4.589-3.149-9.089-6.429-14.382-10.218c4.062,0.124,4.842-2.105,5.6-4.572c1.75-5.672,3.766-11.261,5.461-16.948
	c0.714-2.39,1.318-2.999,3.562-1.276c5.568,4.271,11.317,8.302,16.992,12.431C322.165,140.389,322.646,144.596,319.376,147.259z
	 M298.928,116.949c-0.708,2.208-1.475,2.471-3.336,1.086c-6.407-4.767-12.899-9.417-19.373-14.097
	c-1.09-0.787-1.947-1.445-0.315-2.621c11.82-8.518,23.609-17.071,35.421-25.599c0.132-0.097,0.397-0.013,0.802-0.013
	c-0.072,0.453-0.087,0.859-0.205,1.232C307.585,90.273,303.203,103.595,298.928,116.949z M312.076,71.915
	c-12.522,9.206-25.108,18.32-37.687,27.447c-0.602,0.436-1.271,0.872-1.971,1.042c-0.387,0.092-0.959-0.31-1.325-0.627
	c-0.097-0.086,0.184-0.746,0.421-1.041c0.262-0.325,0.666-0.54,1.014-0.794c13.445-9.769,26.893-19.538,40.342-29.301
	c0.426-0.308,0.897-0.556,1.346-0.833c0.258,0.205,0.519,0.411,0.779,0.617C314.033,69.602,313.262,71.044,312.076,71.915z
	 M273.867,105.387c7.157,5.016,14.173,10.235,21.285,15.321c1.634,1.168,1.741,2.44,1.155,4.195
	c-1.916,5.727-3.804,11.467-5.539,17.252c-0.732,2.445-1.924,3.803-4.807,3.715c-1.639-0.664-3.482-1.039-4.885-2.035
	c-8.184-5.81-16.373-11.624-24.293-17.782c-1.836-1.427-2.745-4.142-3.809-6.391c-0.246-0.521,0.403-1.867,1.021-2.331
	c5.439-4.079,10.916-8.109,16.512-11.969C271.285,104.826,273.089,104.842,273.867,105.387z M267.935,104.04
	c-5.578,4.072-11.15,8.152-16.772,12.162c-0.604,0.431-1.503,0.441-2.265,0.646c0.394-0.868,0.547-2.051,1.216-2.554
	c4.995-3.769,10.091-7.404,15.161-11.072c0.784-0.567,1.545-1.258,2.43-1.564c0.505-0.175,1.24,0.315,2.315,0.639
	C269.046,103.115,268.517,103.614,267.935,104.04z M263.628,101.361c-5.296,3.722-10.459,7.63-15.737,11.378
	c-1.582,1.121-2.628,2.262-1.647,4.254c0.945,1.92,0.065,3.251-1.588,3.888c-0.982,0.377-2.681,0.431-3.302-0.161
	c-0.864-0.824-1.601-2.521-1.357-3.613c0.453-2.039-0.037-3.166-1.681-4.321c-5.205-3.665-10.269-7.53-15.482-11.183
	c-1.974-1.381-2.542-2.261-0.188-3.905c6.102-4.266,12.058-8.735,18.089-13.101c0.682-0.493,1.47-0.845,2.299-1.314
	c0.814,0.446,1.61,0.776,2.292,1.266c6.118,4.425,12.187,8.925,18.344,13.299C265.565,99.195,265.507,100.038,263.628,101.361z
	 M225.281,106.425c3.495,2.534,6.997,5.056,10.468,7.622c0.727,0.536,1.331,1.239,1.99,1.868c-0.095,0.312-0.19,0.622-0.284,0.934
	c-0.566,0-1.301,0.233-1.674-0.035c-6.053-4.334-12.072-8.715-18.053-13.147c-0.441-0.327-0.538-1.116-0.796-1.692
	c0.684-0.029,1.551-0.348,2.017-0.046C221.12,103.331,223.183,104.904,225.281,106.425z M230.302,115.921
	c3.597,2.624,3.818,6.664,0.176,9.394c-8.636,6.474-17.391,12.785-26.18,19.05c-1.139,0.811-2.756,0.947-4.152,1.397
	c-2.773,0.179-4.027-1.079-4.769-3.56c-1.728-5.787-3.603-11.533-5.544-17.25c-0.658-1.939-0.337-3.2,1.366-4.414
	c6.944-4.947,13.841-9.961,20.688-15.041c1.597-1.185,2.773-1.033,4.296,0.113C220.835,109.118,225.597,112.486,230.302,115.921z
	 M211.891,99.407c-12.707-9.134-25.367-18.334-37.978-27.599c-1.127-0.828-1.842-2.216-2.75-3.345
	c0.236-0.257,0.472-0.51,0.709-0.765c2.172,1.551,4.357,3.088,6.517,4.655c11.614,8.436,23.233,16.865,34.814,25.345
	c0.75,0.549,1.198,1.508,1.786,2.276C213.945,99.803,212.66,99.961,211.891,99.407z M174.259,75.521
	c0.579,0.308,1.154,0.527,1.637,0.878c11.182,8.111,22.324,16.281,33.557,24.321c2.069,1.479,1.952,2.225-0.037,3.621
	c-6.359,4.466-12.617,9.075-18.881,13.675c-1.465,1.074-2.453,1.626-3.216-0.756c-4.379-13.662-8.859-27.29-13.29-40.936
	C173.979,76.164,174.132,75.933,174.259,75.521z M187.628,126.157c1.917,5.959,3.959,11.879,5.741,17.876
	c0.736,2.476,1.631,4.419,4.646,4.966c-4.296,3.073-8.525,6.246-12.942,9.13c-0.855,0.559-2.759,0.458-3.643-0.136
	c-4.655-3.132-9.35-6.276-13.581-9.936c-1.77-1.533-2.523-4.309-3.504-6.621c-0.196-0.465,0.505-1.624,1.092-2.059
	c6.503-4.827,13.088-9.538,19.592-14.365C186.8,123.698,187.177,124.756,187.628,126.157z M169.956,167.444
	c0.196,0.627-0.197,1.827-0.723,2.227c-4.426,3.394-8.944,6.663-13.438,9.969c-0.262-0.098-0.525-0.197-0.79-0.294
	c1.335-2.874-0.254-4.251-2.254-5.65c-4.863-3.398-9.564-7.036-14.448-10.398c-2.258-1.555-2.741-2.475-0.119-4.255
	c5.619-3.824,11.033-7.942,16.525-11.953c3.54-2.583,7.639-1.836,9.235,2.244C166.264,155.25,168.059,161.372,169.956,167.444z
	 M149.735,174.601c3.3,2.384,3.685,6.619,0.39,9.097c-8.817,6.623-17.789,13.039-26.783,19.419
	c-1.049,0.743-2.632,0.732-3.967,1.072c-2.707,0.189-3.946-1.053-4.694-3.552c-1.702-5.691-3.593-11.33-5.564-16.937
	c-0.72-2.053-0.44-3.294,1.438-4.606c6.909-4.833,13.728-9.799,20.49-14.836c1.688-1.258,2.861-1.235,4.53,0.037
	C140.214,167.835,145.002,171.182,149.735,174.601z M117.146,206.789c-0.395,0.062-0.747,0.08-1.065,0.062
	c-4.351,0.239-4.429-0.103-5.913-4.793c-1.59-5.037-3.344-10.024-4.861-15.084c-0.34-1.135,0.014-2.477,0.047-3.726
	c0.657,0.96,1.568,1.833,1.932,2.893c1.925,5.606,3.737,11.255,5.535,16.905c0.587,1.847,1.104,3.684,3.261,3.805
	C116.412,206.833,116.762,206.812,117.146,206.789z M128.599,163.045c-6.282,4.382-12.452,8.923-18.604,13.487
	c-1.732,1.284-2.703,1.371-3.448-0.949c-4.254-13.244-8.588-26.463-12.88-39.694c-0.122-0.375-0.088-0.798-0.214-2.132
	c5.746,4.163,10.797,7.812,15.837,11.474c6.371,4.63,12.701,9.321,19.122,13.879C130.359,160.493,130.972,161.386,128.599,163.045z
	 M104.41,177.132c0.135,0.41,0.378,0.852,0.32,1.241c-0.111,0.757-0.4,1.484-0.614,2.223c-0.502-0.564-1.248-1.05-1.467-1.71
	c-2.941-8.912-5.8-17.851-8.694-26.777c-2.425-7.483-4.869-14.959-7.306-22.439c0.284-0.213,0.566-0.429,0.85-0.643
	c0.835,1.265,1.996,2.419,2.455,3.805C94.839,147.578,99.612,162.36,104.41,177.132z M102.933,187.826
	c1.957,6.288,4.105,12.518,6.062,18.806c0.597,1.922,1.543,2.722,3.632,2.908c1.097,0.098,2.548,1.402,2.948,2.489
	c0.336,0.911-0.354,2.503-1.067,3.423c-1.069,1.381-2.586,1.435-3.922,0.111c-1.616-1.604-3.018-0.906-4.55,0.23
	c-5.213,3.854-10.483,7.63-15.722,11.446c-1.202,0.873-2.363,1.877-3.116-0.453c-2.482-7.708-4.987-15.409-7.483-23.113
	c-0.065-0.206-0.098-0.421-0.274-1.182c0.345-0.419,0.798-1.257,1.49-1.767c6.351-4.678,12.762-9.273,19.108-13.953
	C101.693,185.553,102.355,185.968,102.933,187.826z M110.011,218.712c-0.559,0.44-1.046,0.858-1.561,1.231
	c-5.58,4.058-11.147,8.132-16.773,12.12c-0.639,0.453-1.629,0.402-2.455,0.585c0.365-0.782,0.523-1.848,1.133-2.303
	c5.444-4.058,10.947-8.041,16.498-11.953c0.661-0.466,1.717-0.406,2.6-0.498C109.59,217.879,109.779,218.36,110.011,218.712z
	 M68.562,251.978c5.762-4.19,11.556-8.337,17.282-12.57c1.521-1.122,2.447-1.527,3.166,0.792c2.334,7.518,4.802,14.998,7.247,22.485
	c0.496,1.524,0.788,2.817-1.509,2.817c-14.445-0.007-28.892-0.004-43.337-0.004c-0.104-0.262-0.212-0.521-0.315-0.783
	C56.917,260.47,62.735,256.218,68.562,251.978z M46.917,264.559c-1.02,0.729-2.516,0.799-3.789,1.171
	c-0.099-0.306-0.197-0.61-0.296-0.918c13.886-10.079,27.763-20.169,41.678-30.207c0.576-0.415,1.497-0.355,2.257-0.517
	c-0.34,0.781-0.457,1.865-1.051,2.301C72.827,245.837,59.902,255.237,46.917,264.559z M91.045,238.274
	c-0.288-0.949,0.396-2.748,1.22-3.389c4.689-3.648,9.555-7.074,14.371-10.554c3.439-2.486,7.531-1.488,8.907,2.549
	c3.553,10.429,6.938,20.917,10.188,31.446c1.259,4.073-1.285,7.177-5.425,7.191c-2.809,0.008-5.62,0.001-8.431,0.001
	c-3.135-0.008-6.273-0.075-9.404,0.017c-1.933,0.059-2.929-0.732-3.512-2.574C96.347,254.725,93.56,246.542,91.045,238.274z
	 M104.735,268.276c5.619-0.026,11.239-0.074,16.856,0.022c2.637,0.043,4.994-0.121,6.41-3.161
	c1.677,5.231,3.441,10.436,4.936,15.719c0.226,0.802-0.529,2.312-1.288,2.894c-4.726,3.6-9.497,7.152-14.419,10.477
	c-3.996,2.696-7.643,1.277-9.125-3.23c-2.06-6.257-4.15-12.504-6.161-18.775C100.775,268.574,100.997,268.294,104.735,268.276z
	 M117.959,297.746c6.254-0.304,12.536-0.136,18.805-0.016c0.741,0.014,1.885,0.824,2.134,1.519
	c1.89,5.256,3.601,10.577,5.368,15.875c-2.844-1.938-4.728-0.67-6.767,0.862c-4.924,3.7-9.998,7.204-14.905,10.928
	c-1.901,1.444-2.614,1.026-3.273-1.096c-2.083-6.705-4.299-13.372-6.466-20.051C111.515,301.638,113.611,297.958,117.959,297.746z
	 M119.883,335.327c2.295,7.432,4.739,14.818,7.19,22.2c0.602,1.812,0.587,2.831-1.791,2.821c-14.16-0.06-28.323-0.038-42.484-0.059
	c-0.274,0-0.548-0.193-1.256-0.459c3.631-2.659,6.99-5.137,10.367-7.589c8.219-5.972,16.474-11.898,24.65-17.93
	C118.357,332.984,119.167,333.003,119.883,335.327z M125.921,363.092c0.75,0,1.542,0.02,2.229,0.269
	c0.379,0.139,0.673,0.744,0.8,1.199c0.038,0.141-0.562,0.588-0.926,0.684c-0.509,0.136-1.07,0.096-1.61,0.096
	c-16.85,0-33.701,0-50.549-0.011c-0.302,0-0.602-0.108-0.9-0.164c-0.056-0.302-0.11-0.603-0.166-0.905
	c1.488-0.393,2.975-1.115,4.463-1.123C94.816,363.052,110.369,363.08,125.921,363.092z M121.855,333.085
	c-0.274-0.904,0.268-2.607,1.014-3.182c5.314-4.078,10.741-8.008,16.209-11.874c2.39-1.692,6.362,0.702,7.654,4.606
	c2.478,7.485,4.863,14.996,7.295,22.495c0.8,2.463,1.709,4.898,2.425,7.385c1.352,4.709-0.945,7.799-5.718,7.81
	c-2.701,0.005-5.401,0-8.104,0c-3.133-0.007-6.287,0.195-9.39-0.109c-1.19-0.117-2.933-1.162-3.286-2.178
	C127.074,349.781,124.405,341.447,121.855,333.085z M135.108,363.124c3.238-0.123,6.484-0.045,9.729-0.045v-0.023
	c3.461,0,6.921-0.034,10.378,0.035c0.595,0.011,1.18,0.468,1.768,0.721c-0.508,0.485-0.951,1.092-1.549,1.416
	c-0.425,0.232-1.056,0.109-1.595,0.109c-6.27,0.004-12.541,0.057-18.811-0.055c-0.99-0.017-1.965-0.788-2.947-1.209
	C133.088,363.741,134.088,363.164,135.108,363.124z M135.648,367.688c6.59,0.076,13.181-0.024,19.769,0.053
	c1.972,0.023,3.093-0.574,3.976-2.483c0.469-1.02,2.154-1.909,3.36-2.011c0.866-0.072,2.124,1.085,2.722,2.005
	c0.964,1.488,0.438,2.902-1.162,3.774c-1.809,0.98-1.787,2.373-1.205,4.119c2.053,6.142,3.932,12.344,6.046,18.466
	c0.783,2.264,0.493,3.141-2.09,3.038c-3.775-0.149-7.561-0.038-11.341-0.038c-3.675-0.004-7.349-0.08-11.019,0.028
	c-2.007,0.059-3.196-0.565-3.83-2.591c-2.287-7.314-4.674-14.599-7.083-21.873C133.171,368.304,133.658,367.664,135.648,367.688z
	 M166.034,373.664c-0.321-1.079,0.242-2.418,0.395-3.638c0.262,0.055,0.525,0.108,0.788,0.163
	c2.236,6.943,4.516,13.871,6.658,20.844c0.316,1.026-0.02,2.255-0.054,3.393c-0.69-0.958-1.663-1.821-2.028-2.892
	C169.77,385.614,167.82,379.661,166.034,373.664z M171.586,375.677c-1.498-4.599,0.831-7.85,5.851-7.935
	c5.296-0.09,10.595-0.021,15.893-0.021c4.757-0.007,9.532-0.258,14.264,0.103c2.307,0.177,4.659,1.254,6.717,2.412
	c0.794,0.448,1.399,2.416,1.111,3.405c-1.82,6.22-3.962,12.344-5.89,18.532c-0.588,1.889-1.697,2.475-3.58,2.461
	c-8.543-0.062-17.084-0.066-25.625,0c-1.955,0.015-2.907-0.768-3.473-2.608C175.176,386.554,173.361,381.123,171.586,375.677z
	 M212.316,391.435c1.952-5.609,3.633-11.31,5.578-16.921c0.892-2.569,1.441-4.84-1.447-6.768c5.502,0,11.009-0.098,16.506,0.094
	c0.958,0.033,2.396,1.108,2.724,2.02c2.002,5.59,3.864,11.235,5.534,16.934c1.294,4.406-1.388,7.812-5.863,7.814
	c-6.916,0.007-13.834-0.092-20.748,0.047C211.887,394.71,211.477,393.848,212.316,391.435z M238.424,369.565
	c-0.132-0.447,0.694-1.2,1.13-1.771c0.083-0.111,0.413-0.025,0.627-0.048c8.209-0.847,8.37-0.655,5.891,7.131
	c-0.867,2.723-1.764,5.437-2.646,8.152c-0.245-0.007-0.494-0.015-0.742-0.02C241.242,378.533,239.752,374.074,238.424,369.565z
	 M244.839,387.116c1.668-5.921,3.656-11.755,5.709-17.559c0.288-0.811,1.707-1.704,2.625-1.73c5.501-0.161,11.007-0.08,16.512-0.08
	c-2.879,1.923-2.345,4.186-1.449,6.757c1.949,5.61,3.629,11.314,5.576,16.923c0.834,2.394,0.467,3.285-2.268,3.23
	c-6.913-0.141-13.832-0.041-20.749-0.046C246.479,394.606,243.656,391.307,244.839,387.116z M270.639,373.672
	c-0.858-2.732,2.374-5.85,6.261-5.921c5.402-0.1,10.81-0.025,16.216-0.025c5.083-0.008,10.167-0.053,15.245,0.025
	c1.142,0.02,2.405,0.223,3.393,0.752c4.056,2.176,4.225,2.772,2.798,7.162c-1.739,5.344-3.528,10.672-5.15,16.049
	c-0.628,2.079-1.659,2.963-3.908,2.938c-8.432-0.106-16.866-0.08-25.301-0.017c-1.877,0.014-2.997-0.553-3.587-2.45
	C274.678,385.993,272.587,379.856,270.639,373.672z M312.072,391.672c2.211-7.179,4.541-14.322,6.837-21.475
	c0.208-0.073,0.417-0.147,0.626-0.221c0.244,1.126,0.95,2.39,0.66,3.358c-1.907,6.41-3.991,12.772-6.125,19.115
	c-0.257,0.769-1.145,1.326-1.741,1.983C312.227,393.507,311.818,392.487,312.072,391.672z M316.931,391.763
	c2.089-6.131,3.98-12.33,6.053-18.466c0.632-1.869,0.475-3.139-1.218-4.465c-0.811-0.639-1.31-2.387-1.071-3.435
	c0.207-0.91,1.668-2.177,2.535-2.146c1.21,0.047,3.062,0.885,3.44,1.853c0.91,2.331,2.413,2.66,4.535,2.634
	c6.371-0.07,12.747,0.036,19.118-0.056c2.142-0.031,2.657,0.602,1.973,2.648c-2.395,7.165-4.729,14.352-6.99,21.562
	c-0.606,1.936-1.61,2.818-3.715,2.75c-3.774-0.128-7.56-0.037-11.341-0.037c-3.779,0.004-7.566-0.096-11.341,0.04
	C316.472,394.731,316.216,393.852,316.931,391.763z M352,365.275c-6.919,0.081-13.84,0.092-20.757-0.025
	c-0.71-0.014-1.403-0.992-2.104-1.52c0.726-0.223,1.452-0.62,2.184-0.637c3.35-0.069,6.701-0.028,10.055-0.028v0.022
	c3.567,0,7.136-0.053,10.7,0.048c0.665,0.019,1.311,0.662,1.964,1.018C353.362,364.546,352.684,365.267,352,365.275z
	 M352.347,360.358c-3.017-0.145-6.047-0.033-9.073-0.033c-2.701,0-5.401,0.006-8.103,0c-4.234-0.013-6.861-2.967-5.611-7.071
	c3.236-10.638,6.676-21.216,10.328-31.716c1.4-4.023,5.331-4.879,8.678-2.443c4.718,3.433,9.406,6.906,14.175,10.266
	c1.629,1.146,2.238,2.216,1.523,4.299c-2.702,7.861-5.273,15.771-7.72,23.717C355.84,359.663,354.654,360.472,352.347,360.358z
	 M404.148,360.142c-0.704,0.061-1.407,0.172-2.111,0.172c-13.515,0.013-27.028-0.033-40.54,0.048
	c-2.534,0.016-3.249-0.549-2.349-3.152c2.507-7.247,4.816-14.562,7.113-21.882c0.585-1.855,1.143-2.618,3.059-1.213
	c11.327,8.315,22.706,16.558,34.079,24.811c0.343,0.248,0.796,0.34,1.197,0.508C404.449,359.668,404.297,359.906,404.148,360.142z
	 M406.902,363.14c1.5,0.065,2.971,0.741,4.455,1.14c-0.067,0.354-0.138,0.708-0.205,1.061c-7.754,0-15.512,0-23.267,0
	c-8.856,0-17.713,0.053-26.565-0.051c-1.393-0.015-2.777-0.719-4.166-1.105c1.465-0.37,2.928-1.046,4.396-1.058
	c11.338-0.089,22.678-0.05,34.015-0.048C399.346,363.079,403.131,362.971,406.902,363.14z M366.862,325.688
	c-0.728,2.389-1.521,2.6-3.472,1.113c-4.73-3.6-9.588-7.031-14.403-10.518c-3.347-2.425-3.351-2.417-7.242-0.768
	c1.901-5.694,3.628-11.105,5.582-16.43c0.257-0.701,1.667-1.364,2.555-1.384c5.944-0.117,11.894-0.2,17.834-0.008
	c4.55,0.147,6.952,3.772,5.598,7.941C371.147,312.313,368.902,318.971,366.862,325.688z M369.534,294.58
	c-5.318-3.499-10.404-7.36-15.519-11.164c-0.563-0.419-1.099-1.575-0.923-2.179c1.599-5.435,3.359-10.824,5.407-17.292
	c1.119,4.268,3.553,4.416,6.293,4.359c5.725-0.12,11.453,0.024,17.182-0.06c2.533-0.037,3.291,0.77,2.434,3.287
	c-2.397,7.055-4.614,14.168-6.978,21.233C376.542,295.423,372.542,296.557,369.534,294.58z M383.179,265.558
	c-3.125-0.165-6.265-0.04-9.4-0.04c-2.597,0.001-5.188,0.006-7.785,0c-4.196-0.012-6.859-3.027-5.634-7.031
	c3.256-10.638,6.68-21.229,10.293-31.751c1.331-3.88,5.452-4.856,8.71-2.501c4.728,3.417,9.396,6.923,14.185,10.257
	c1.669,1.159,2.214,2.229,1.516,4.281c-2.684,7.87-5.235,15.789-7.708,23.732C386.669,264.712,385.545,265.681,383.179,265.558z
	 M376.341,218.217c0.564-0.2,1.136-0.57,1.691-0.548c0.473,0.018,0.955,0.451,1.389,0.763c5.42,3.913,10.826,7.84,16.243,11.759
	c0.607,0.437,1.251,0.819,1.882,1.231c-0.533,0.857-0.767,1.502-0.954,1.488c-0.593-0.038-1.257-0.197-1.73-0.535
	c-3.603-2.56-7.168-5.172-10.744-7.77c-2.354-1.711-4.721-3.406-7.044-5.158C376.72,219.18,376.58,218.634,376.341,218.217z
	 M390.152,261.815c2.322-7.185,4.676-14.36,6.973-21.554c0.533-1.676,1.068-2.39,2.855-1.079
	c11.398,8.365,22.86,16.646,34.292,24.964c0.25,0.179,0.41,0.475,1.158,1.373c-4.104,0-7.527,0-10.952,0
	c-10.58,0-21.159,0.012-31.738-0.008C389.09,265.504,389.005,265.362,390.152,261.815z M400.831,236.702
	c-0.733-0.537-1.06-1.626-1.578-2.459c0.923,0.195,2.041,0.119,2.738,0.622c13.581,9.784,27.115,19.636,40.65,29.483
	c0.237,0.172,0.395,0.452,0.594,0.68c-0.143,0.281-0.282,0.56-0.424,0.841c-1.42-0.573-3.02-0.892-4.228-1.759
	C425.951,255.037,413.374,245.892,400.831,236.702z M399.146,226.288c-0.738,2.354-1.728,2.184-3.432,0.912
	c-5.194-3.881-10.501-7.605-15.699-11.479c-1.595-1.188-2.995-1.631-4.556-0.092c-1.39,1.371-2.868,1.056-3.929-0.238
	c-0.681-0.835-1.363-2.339-1.045-3.158c0.44-1.132,1.807-2.657,2.797-2.674c2.504-0.039,3.36-1.266,4.007-3.337
	c1.891-6.081,3.948-12.112,5.837-18.194c0.584-1.874,1.166-2.602,3.06-1.195c6.245,4.637,12.581,9.152,18.854,13.754
	c0.717,0.524,1.249,1.301,1.681,1.759c-0.207,0.908-0.271,1.34-0.405,1.749C403.921,211.491,401.476,218.872,399.146,226.288z
	 M383.605,178.475c-0.263,0.793-0.98,1.437-1.488,2.149c-0.201-0.925-0.799-1.974-0.553-2.753
	c4.859-15.209,9.786-30.394,14.799-45.55c0.396-1.201,1.513-2.163,2.293-3.236c0.277,0.17,0.555,0.34,0.83,0.512
	c-2.65,8.19-5.297,16.384-7.953,24.574C388.905,162.277,386.29,170.388,383.605,178.475z M335.966,69.755
	c20.04,14.523,40.038,29.106,60.112,43.582c2.184,1.576,2.536,3.009,1.989,5.678c-1.529,7.48-5.743,12.471-12.024,16.658
	c-10.424,6.951-20.407,14.568-30.491,22.021c-1.945,1.44-3.284,1.636-5.329,0.069c-6.178-4.73-12.589-9.155-18.831-13.804
	c-2.316-1.728-4.438-3.442-7.277-0.124c1.717-3.701-0.074-5.325-2.539-7.04c-6.39-4.439-12.587-9.157-18.952-13.64
	c-1.899-1.334-2.342-2.631-1.593-4.879c4.839-14.559,9.449-29.193,14.396-43.714c0.657-1.927,2.6-3.586,4.287-4.948
	c2.5-2.019,5.35-5.141,7.966-5.062C330.496,64.638,333.27,67.802,335.966,69.755z M323.138,61.343
	c0.271-0.209,0.959,0.123,1.452,0.205c-0.132,0.536-0.084,1.305-0.427,1.574c-1.828,1.444-3.757,2.763-5.648,4.127
	c-0.346-0.415-0.691-0.829-1.036-1.245C319.356,64.437,321.203,62.836,323.138,61.343z M170.471,54.93
	c14.46-10.626,28.995-21.146,43.514-31.695c8.834-6.417,17.701-12.786,26.47-19.289c1.854-1.376,3.171-1.509,5.115-0.088
	c23.393,17.094,46.852,34.09,70.27,51.147c0.965,0.703,1.686,1.747,2.815,2.946c-1.401,2.244-2.186,4.785-3.909,6.066
	c-14.83,11.029-29.85,21.809-44.76,32.734c-1.597,1.173-2.666,0.721-4.009-0.264c-6.445-4.737-13.028-9.294-19.355-14.182
	c-2.562-1.98-4.367-2.128-7.002-0.086c-6.317,4.9-12.932,9.421-19.345,14.2c-1.649,1.232-2.821,1.294-4.542,0.031
	c-14.553-10.682-29.234-21.187-43.707-31.974c-1.788-1.333-2.892-3.904-3.655-6.126C168.086,57.529,169.426,55.697,170.471,54.93z
	 M161.482,61.746c0.225-0.331,1.084-0.646,1.33-0.477c2.111,1.461,4.887,2.352,5.438,6.452c-2.607-1.89-4.53-3.232-6.378-4.668
	C161.56,62.811,161.313,61.995,161.482,61.746z M88.026,115.979c0.908-2.894,5.158-4.832,8.099-6.975
	c19.822-14.455,39.711-28.818,59.502-43.316c2.119-1.551,3.446-1.352,5.657-0.057c6.534,3.822,10.14,9.243,12.171,16.563
	c3.352,12.063,7.559,23.892,11.558,35.768c0.834,2.479,0.397,3.898-1.759,5.394c-6.302,4.377-12.393,9.062-18.695,13.438
	c-2.464,1.712-4.256,3.337-2.548,6.868c-2.798-2.693-4.879-1.561-7.286,0.274c-6.277,4.778-12.774,9.265-19.092,13.993
	c-1.63,1.216-2.771,1.423-4.521,0.138c-12.541-9.217-25.194-18.288-37.714-27.536c-1.263-0.932-2.192-2.632-2.731-4.168
	C89.465,122.921,87.111,118.889,88.026,115.979z M84.258,117.699c0.37,0.284,0.938,0.495,1.074,0.866
	c0.86,2.356,1.626,4.75,2.58,7.607c-3.877-1.484-3.718-4.689-4.516-7.295C83.312,118.598,83.952,118.097,84.258,117.699z
	 M29.875,262.05c-8.82-27.352-17.708-54.682-26.661-81.992c-0.731-2.227-0.335-3.504,1.567-4.879
	c23.478-16.979,46.897-34.033,70.337-51.063c3.029-2.201,6.906-0.366,8.384,4.107c4.27,12.929,8.466,25.879,12.681,38.824
	c1.306,4.005,2.408,8.09,3.932,12.01c1.079,2.771,0.656,4.401-1.914,6.145c-6.618,4.486-12.95,9.396-19.506,13.976
	c-1.963,1.372-2.289,2.679-1.536,4.888c2.646,7.773,5.032,15.634,7.667,23.408c0.727,2.145,0.553,3.446-1.441,4.877
	c-14.58,10.461-29.045,21.082-43.615,31.563c-1.396,1.005-3.246,1.384-4.886,2.053C31.827,266.102,30.694,264.589,29.875,262.05z
	 M33.921,271.47c2.034-1.352,4.167-2.551,6.272-3.799c0.232,0.436,0.466,0.871,0.699,1.309c-1.821,1.324-3.615,2.687-5.481,3.943
	c-0.421,0.282-1.098,0.185-1.655,0.264C33.797,272.597,33.618,271.671,33.921,271.47z M58.843,350.635
	c-7.692-23.618-15.331-47.253-23.104-70.843c-0.826-2.504-0.152-3.68,1.753-5.373c5.589-4.971,11.782-6.635,19.263-6.303
	c12.521,0.555,25.084,0.213,37.627,0.103c2.685-0.023,4.045,0.763,4.848,3.478c2.142,7.251,4.721,14.374,6.927,21.608
	c0.868,2.842,1.894,5.048,5.666,4.654c-3.33,1.781-2.921,4.07-1.976,6.816c2.604,7.56,4.941,15.21,7.494,22.788
	c0.609,1.812,0.375,2.909-1.258,4.083c-12.552,9.023-24.99,18.213-37.609,27.146c-1.59,1.124-4.02,1.435-6.072,1.469
	C62.03,360.426,62.01,360.354,58.843,350.635z M64.415,365.174c-0.375-0.009-0.733-0.854-1.102-1.312
	c0.428-0.246,0.848-0.696,1.283-0.71c2.231-0.072,4.469-0.033,7.408-0.033C69.544,366.156,66.857,365.223,64.415,365.174z
	 M182.969,460.093c-14.058,0.002-28.114,0-42.173,0c-14.273,0-28.549-0.068-42.82,0.059c-2.71,0.023-3.951-0.776-4.805-3.435
	c-8.718-27.165-17.583-54.28-26.405-81.411c-1.311-4.027,0.894-7.259,5.298-7.54c2.585-0.165,5.189-0.049,7.786-0.049
	c15.353-0.003,30.71,0.108,46.062-0.087c3.396-0.044,4.976,0.898,5.927,4.23c2.106,7.372,4.768,14.584,6.975,21.931
	c0.793,2.636,2.146,3.624,4.844,3.589c8.001-0.11,16.005,0.033,24.005-0.075c2.445-0.034,3.681,0.827,4.435,3.193
	c5.388,16.883,10.896,33.727,16.345,50.591c0.296,0.915,0.583,1.885,0.599,2.833C189.115,458.362,187.374,460.093,182.969,460.093z
	 M190.435,448.923c-1.384-4.157-2.792-8.305-4.143-12.47c-3.833-11.815-7.666-23.63-11.414-35.469
	c-0.324-1.026-0.018-2.253-0.005-3.385c0.714,0.962,1.736,1.821,2.092,2.902c4.766,14.462,9.468,28.947,14.08,43.461
	c0.476,1.491,0.274,3.198,0.387,4.806C191.099,448.82,190.765,448.87,190.435,448.923z M179.446,399.859
	c-0.57-1.749,0.068-2.479,1.763-2.481c8.106-0.017,16.217-0.053,24.324,0.003c2.875,0.017,1.594,1.899,1.181,3.183
	c-3.477,10.797-7.001,21.578-10.509,32.367c-0.896,2.758-1.776,5.522-2.665,8.283c-0.233-0.025-0.469-0.048-0.704-0.071
	C188.375,427.38,183.931,413.613,179.446,399.859z M195.348,459.894c-0.459-0.184-1.213-0.255-1.328-0.564
	c-0.932-2.499-2.75-4.933-0.641-8.443c0.944,2.904,1.722,5.124,2.36,7.384C195.871,458.737,195.49,459.348,195.348,459.894z
	 M277.16,460.085c-24.643,0-49.285-0.048-73.931,0.066c-3.065,0.015-4.334-0.954-5.587-3.85c-2.931-6.776-2.597-13.002-0.021-19.892
	c4.385-11.723,7.93-23.764,11.671-35.722c0.777-2.482,1.948-3.449,4.58-3.396c7.455,0.15,14.917-0.015,22.373,0.085
	c3.057,0.041,5.938,0.129,6.868-4.27c0.729,4.753,3.961,4.26,7.003,4.246c7.35-0.031,14.699,0.08,22.049-0.056
	c2.556-0.047,3.844,0.742,4.65,3.299c4.583,14.523,9.443,28.96,13.944,43.508c0.594,1.93,0.028,4.439-0.609,6.491
	C287.195,460.109,287.118,460.085,277.16,460.085z M292.195,459.175c-0.104,0.345-1.008,0.451-1.543,0.671
	c-0.117-0.472-0.436-1.004-0.317-1.405c0.691-2.343,1.487-4.656,2.249-6.979c0.501,0.122,1.005,0.245,1.508,0.366
	C293.478,454.282,292.917,456.753,292.195,459.175z M294.046,438.919c-0.251,0.778-0.594,1.529-1.203,3.086
	c-0.991-3.09-1.727-5.417-2.48-7.739c-3.641-11.198-7.223-22.419-10.973-33.579c-0.883-2.619-0.446-3.445,2.4-3.39
	c7.242,0.144,14.486,0.028,21.729,0.056c3.683,0.013,3.892,0.299,2.811,3.641C302.248,413.638,298.151,426.278,294.046,438.919z
	 M295.786,448.811c-0.354-0.024-0.709-0.046-1.065-0.07c0.084-1.529-0.151-3.157,0.297-4.57c4.688-14.715,9.483-29.396,14.25-44.087
	c0.134-0.409,0.164-0.926,0.433-1.207c0.474-0.49,1.095-0.838,1.657-1.244c0.131,0.639,0.51,1.35,0.352,1.905
	c-0.8,2.805-1.728,5.569-2.629,8.343C304.653,421.525,300.216,435.167,295.786,448.811z M419.752,374.018
	c-8.964,27.765-18.031,55.497-26.967,83.272c-0.767,2.378-2.044,2.848-4.256,2.839c-14.489-0.07-28.98-0.036-43.471-0.036
	c-13.841,0-27.685,0.002-41.522,0c-5.227,0-7.628-3.184-6.049-8.339c2.055-6.718,4.299-13.373,6.465-20.056
	c3.369-10.381,6.796-20.744,10.074-31.154c0.732-2.334,1.918-3.277,4.396-3.24c8.002,0.113,16.005-0.027,24.007,0.074
	c2.666,0.032,4.07-0.87,4.875-3.545c2.343-7.755,5.037-15.403,7.435-23.147c0.689-2.229,1.764-3.033,4.135-3.022
	c17.951,0.094,35.901-0.056,53.849,0.186c2.306,0.034,4.686,1.728,6.811,3.021C420.067,371.194,420.066,373.048,419.752,374.018z
	 M421.822,365.161c-2.473,0.085-5.146,0.956-7.805-2.052c2.977,0,5.194-0.056,7.407,0.044c0.474,0.02,0.923,0.595,1.384,0.914
	C422.481,364.45,422.162,365.151,421.822,365.161z M448.796,284.401c-7.839,24.251-15.759,48.476-23.566,72.736
	c-0.748,2.33-1.954,3.027-4.372,3.276c-7.733,0.794-14.069-1.403-20.204-6.366c-9.572-7.743-19.776-14.71-29.851-21.812
	c-2.325-1.638-2.607-3.086-1.722-5.618c2.533-7.24,4.704-14.607,7.211-21.855c0.951-2.753,1.316-5.033-1.982-6.81
	c3.809,0.422,4.803-1.836,5.668-4.663c2.218-7.232,4.79-14.354,6.931-21.606c0.806-2.729,2.188-3.479,4.859-3.461
	c14.815,0.099,29.631,0.152,44.443-0.033c3.376-0.041,5.7,1.494,8.168,3.273C451.281,276.435,451.37,276.43,448.796,284.401z
	 M452.372,273.198c-0.465-0.016-1.052,0.146-1.375-0.076c-1.978-1.363-3.897-2.812-6.19-4.496c3.642-0.954,5.433,1.265,7.427,2.865
	C452.538,271.737,452.338,272.612,452.372,273.198z M482.838,180.331c-8.934,27.201-17.778,54.436-26.571,81.683
	c-0.807,2.513-1.896,4.099-4.972,3.953c-1.642-0.663-3.504-1.026-4.901-2.033c-14.568-10.477-29.036-21.097-43.613-31.562
	c-1.964-1.409-2.228-2.691-1.488-4.862c2.582-7.565,4.865-15.234,7.5-22.781c0.932-2.671,0.614-4.24-1.839-5.92
	c-6.69-4.578-13.128-9.52-19.756-14.186c-1.817-1.279-2.163-2.476-1.467-4.59c5.619-17.034,11.017-34.141,16.771-51.126
	c0.745-2.201,2.974-4.043,4.876-5.615c0.584-0.482,2.61,0.161,3.569,0.852c12.472,8.951,24.869,18.005,37.286,27.031
	c10.931,7.945,21.82,15.949,32.827,23.786C483.199,176.478,483.652,177.846,482.838,180.331z"/>
</svg>
