<?xml version="1.0" encoding="utf-8"?>
<!-- Generator: Adobe Illustrator 17.0.0, SVG Export Plug-In . SVG Version: 6.00 Build 0)  -->
<!DOCTYPE svg PUBLIC "-//W3C//DTD SVG 1.1//EN" "http://www.w3.org/Graphics/SVG/1.1/DTD/svg11.dtd">
<svg version="1.1" xmlns="http://www.w3.org/2000/svg" xmlns:xlink="http://www.w3.org/1999/xlink" x="0px" y="0px"
	 width="27.803px" height="36px" viewBox="0 0 27.803 36" enable-background="new 0 0 27.803 36" xml:space="preserve">
<g id="Layer_1" display="none">
	<g display="inline">
		<path d="M29.238,0.005H-1.443c-1.465,0-2.655,1.162-2.655,2.596v30.807c0,1.434,1.19,2.598,2.655,2.598h30.681
			c1.468,0,2.663-1.164,2.663-2.598V2.601C31.901,1.167,30.706,0.005,29.238,0.005z"/>
		<path fill="#FFFFFF" d="M1.236,13.501h5.345v17.18H1.236V13.501z M3.91,4.961c1.708,0,3.095,1.387,3.095,3.096
			c0,1.709-1.387,3.097-3.095,3.097c-1.715,0-3.098-1.387-3.098-3.097C0.812,6.348,2.195,4.961,3.91,4.961"/>
		<path fill="#FFFFFF" d="M9.93,13.501h5.118v2.349h0.073c0.712-1.351,2.454-2.775,5.052-2.775c5.406,0,6.405,3.557,6.405,8.184
			v9.422H21.24v-8.354c0-1.992-0.034-4.555-2.774-4.555c-2.778,0-3.202,2.171-3.202,4.413v8.497H9.93V13.501z"/>
	</g>
	
		<image display="inline" overflow="visible" width="504" height="726" xlink:href="6efb1715179491.5628dd083f5e5.jpg"  transform="matrix(1 0 0 1 -662.0981 -345.1841)">
	</image>
</g>
<g id="Layer_3">
	<g>
		<g>
			<path d="M26.827,36.01H0.967C0.433,36.01,0,35.578,0,35.044V0.967C0,0.433,0.433,0,0.967,0h17.32c0.25,0,0.49,0.097,0.67,0.27
				l8.54,8.217c0.189,0.182,0.296,0.434,0.296,0.696v25.86C27.793,35.578,27.36,36.01,26.827,36.01z M1.933,34.077H25.86V9.595
				l-7.962-7.662H1.933V34.077z"/>
		</g>
		<g>
			<path d="M11.278,14.14H5.176c-0.534,0-0.967-0.433-0.967-0.967s0.433-0.967,0.967-0.967h6.101c0.534,0,0.966,0.433,0.966,0.967
				S11.812,14.14,11.278,14.14z"/>
		</g>
		<g>
			<path d="M11.278,17.926H5.176c-0.534,0-0.967-0.433-0.967-0.967s0.433-0.967,0.967-0.967h6.101c0.534,0,0.966,0.433,0.966,0.967
				S11.812,17.926,11.278,17.926z"/>
		</g>
		<g>
			<path d="M23.201,17.926H15.65c-0.534,0-0.967-0.433-0.967-0.967s0.433-0.967,0.967-0.967h7.552c0.534,0,0.967,0.433,0.967,0.967
				S23.735,17.926,23.201,17.926z"/>
		</g>
		<g>
			<path d="M23.201,21.713H15.65c-0.534,0-0.967-0.433-0.967-0.967s0.433-0.967,0.967-0.967h7.552c0.534,0,0.967,0.433,0.967,0.967
				S23.735,21.713,23.201,21.713z"/>
		</g>
		<g>
			<path d="M23.201,24.855H15.65c-0.534,0-0.967-0.433-0.967-0.967s0.433-0.967,0.967-0.967h7.552c0.534,0,0.967,0.433,0.967,0.967
				S23.735,24.855,23.201,24.855z"/>
		</g>
		<g>
			<path d="M23.201,28.641H15.65c-0.534,0-0.967-0.433-0.967-0.967s0.433-0.967,0.967-0.967h7.552c0.534,0,0.967,0.433,0.967,0.967
				S23.735,28.641,23.201,28.641z"/>
		</g>
		<g>
			<path d="M26.836,10.151c-0.002,0-0.006,0-0.009,0h-8.54c-0.534,0-0.967-0.433-0.967-0.967V0.967c0-0.388,0.231-0.738,0.588-0.89
				C18.265-0.074,18.678,0,18.957,0.27l8.463,8.143c0.233,0.177,0.383,0.456,0.383,0.771C27.803,9.718,27.37,10.151,26.836,10.151z
				 M19.254,8.217h5.174l-5.174-4.979V8.217z"/>
		</g>
	</g>
</g>
<g id="Layer_2" display="none">
	<g display="inline">
		<path fill-rule="evenodd" clip-rule="evenodd" fill="#191717" d="M13.901,0.419c-9.954,0-18.026,8.07-18.026,18.026
			c0,7.964,5.165,14.721,12.327,17.104c0.901,0.167,1.232-0.391,1.232-0.867c0-0.43-0.017-1.85-0.024-3.356
			c-5.015,1.091-6.073-2.127-6.073-2.127c-0.82-2.083-2.001-2.638-2.001-2.638c-1.636-1.119,0.123-1.096,0.123-1.096
			c1.81,0.127,2.763,1.858,2.763,1.858c1.608,2.756,4.217,1.959,5.246,1.498c0.162-1.165,0.629-1.96,1.144-2.41
			c-4.004-0.456-8.213-2.001-8.213-8.908c0-1.968,0.704-3.576,1.857-4.838c-0.187-0.454-0.804-2.287,0.175-4.77
			c0,0,1.514-0.484,4.958,1.848c1.438-0.399,2.98-0.6,4.512-0.607c1.532,0.007,3.075,0.207,4.516,0.607
			c3.441-2.332,4.952-1.848,4.952-1.848c0.981,2.483,0.364,4.316,0.177,4.77c1.156,1.262,1.855,2.87,1.855,4.838
			c0,6.923-4.217,8.448-8.231,8.894c0.647,0.559,1.223,1.656,1.223,3.338c0,2.412-0.021,4.353-0.021,4.947
			c0,0.48,0.324,1.042,1.238,0.865c7.158-2.386,12.317-9.141,12.317-17.102C31.927,8.489,23.856,0.419,13.901,0.419z"/>
		<path fill="#191717" d="M2.703,26.3c-0.04,0.09-0.181,0.117-0.309,0.055c-0.131-0.059-0.204-0.181-0.162-0.271
			c0.039-0.092,0.18-0.118,0.31-0.056C2.674,26.087,2.748,26.21,2.703,26.3L2.703,26.3z M2.481,26.136"/>
		<path fill="#191717" d="M3.433,27.115c-0.086,0.08-0.254,0.043-0.368-0.083c-0.118-0.126-0.14-0.294-0.053-0.375
			c0.089-0.08,0.252-0.042,0.37,0.083C3.5,26.867,3.523,27.034,3.433,27.115L3.433,27.115z M3.261,26.93"/>
		<path fill="#191717" d="M4.144,28.153c-0.111,0.077-0.291,0.005-0.403-0.155c-0.111-0.16-0.111-0.353,0.003-0.43
			c0.112-0.077,0.29-0.008,0.403,0.151C4.257,27.882,4.257,28.074,4.144,28.153L4.144,28.153z M4.144,28.153"/>
		<path fill="#191717" d="M5.118,29.156c-0.099,0.109-0.309,0.08-0.463-0.069c-0.158-0.145-0.201-0.352-0.103-0.461
			c0.1-0.109,0.312-0.078,0.467,0.069C5.175,28.84,5.223,29.048,5.118,29.156L5.118,29.156z M5.118,29.156"/>
		<path fill="#191717" d="M6.461,29.738c-0.044,0.141-0.246,0.205-0.45,0.145c-0.204-0.062-0.337-0.227-0.296-0.37
			c0.042-0.142,0.246-0.209,0.452-0.145C6.37,29.43,6.503,29.594,6.461,29.738L6.461,29.738z M6.461,29.738"/>
		<path fill="#191717" d="M7.936,29.846c0.005,0.149-0.168,0.272-0.382,0.275c-0.215,0.005-0.39-0.115-0.392-0.262
			c0-0.15,0.169-0.272,0.385-0.276C7.76,29.579,7.936,29.698,7.936,29.846L7.936,29.846z M7.936,29.846"/>
		<path fill="#191717" d="M9.309,29.612c0.026,0.145-0.123,0.294-0.336,0.333c-0.209,0.038-0.403-0.051-0.43-0.195
			c-0.026-0.149,0.126-0.298,0.335-0.336C9.091,29.378,9.282,29.465,9.309,29.612L9.309,29.612z M9.309,29.612"/>
	</g>
</g>
</svg>
