<?xml version="1.0" encoding="utf-8"?>
<!-- Generator: Adobe Illustrator 17.0.0, SVG Export Plug-In . SVG Version: 6.00 Build 0)  -->
<!DOCTYPE svg PUBLIC "-//W3C//DTD SVG 1.1//EN" "http://www.w3.org/Graphics/SVG/1.1/DTD/svg11.dtd">
<svg version="1.1" id="Layer_1" xmlns="http://www.w3.org/2000/svg" xmlns:xlink="http://www.w3.org/1999/xlink" x="0px" y="0px"
	 width="60px" height="60px" viewBox="0 0 60 60" enable-background="new 0 0 60 60" xml:space="preserve">
<ellipse cx="-8.993" cy="-37.053" rx="30" ry="29.875"/>
<g>
	<path fill="#FFFFFF" d="M-24.865-40.631c-0.711,0.274-1.219,0.914-1.315,1.671c-0.101,0.757,0.219,1.51,0.838,1.956l6.753,4.914
		L5.406-50.964l-21.217,20.901l9.237,6.717C-5.99-22.92-5.233-22.787-4.532-23c0.696-0.213,1.25-0.741,1.504-1.423l9.877-27.039
		c0.101-0.274,0.031-0.584-0.178-0.787c-0.208-0.204-0.512-0.269-0.787-0.163L-24.865-40.631z M-24.865-40.631"/>
	<path fill="#FFFFFF" d="M-20.191-30.454l0.056,0.316l1.311,7.163c0.096,0.535,0.453,0.981,0.95,1.199
		c0.493,0.213,1.068,0.168,1.519-0.126c1.825-1.18,4.213-2.739,4.146-2.83L-20.191-30.454z M-20.191-30.454"/>
</g>
<circle cx="29.912" cy="30.024" r="30"/>
<g id="Layer_3">
	<g>
		<g>
			<path fill="#FFFFFF" d="M165.75-23.946h-25.86c-0.534,0-0.967-0.432-0.967-0.966v-34.077c0-0.534,0.433-0.967,0.967-0.967h17.32
				c0.25,0,0.49,0.097,0.67,0.27l8.54,8.217c0.189,0.182,0.296,0.434,0.296,0.696v25.86
				C166.716-24.378,166.283-23.946,165.75-23.946z M140.856-25.879h23.927v-24.482l-7.962-7.662h-15.965V-25.879z"/>
		</g>
		<g>
			<path fill="#FFFFFF" d="M150.201-45.816h-6.102c-0.534,0-0.967-0.433-0.967-0.967s0.433-0.967,0.967-0.967h6.101
				c0.534,0,0.966,0.433,0.966,0.967S150.735-45.816,150.201-45.816z"/>
		</g>
		<g>
			<path fill="#FFFFFF" d="M150.201-42.03h-6.102c-0.534,0-0.967-0.433-0.967-0.967s0.433-0.967,0.967-0.967h6.101
				c0.534,0,0.966,0.433,0.966,0.967S150.735-42.03,150.201-42.03z"/>
		</g>
		<g>
			<path fill="#FFFFFF" d="M162.124-42.03h-7.551c-0.534,0-0.967-0.433-0.967-0.967s0.433-0.967,0.967-0.967h7.552
				c0.534,0,0.967,0.433,0.967,0.967S162.658-42.03,162.124-42.03z"/>
		</g>
		<g>
			<path fill="#FFFFFF" d="M162.124-38.243h-7.551c-0.534,0-0.967-0.433-0.967-0.967s0.433-0.967,0.967-0.967h7.552
				c0.534,0,0.967,0.433,0.967,0.967C163.092-38.676,162.658-38.243,162.124-38.243z"/>
		</g>
		<g>
			<path fill="#FFFFFF" d="M162.124-35.101h-7.551c-0.534,0-0.967-0.433-0.967-0.967c0-0.534,0.433-0.967,0.967-0.967h7.552
				c0.534,0,0.967,0.433,0.967,0.967C163.092-35.534,162.658-35.101,162.124-35.101z"/>
		</g>
		<g>
			<path fill="#FFFFFF" d="M162.124-31.315h-7.551c-0.534,0-0.967-0.433-0.967-0.967s0.433-0.967,0.967-0.967h7.552
				c0.534,0,0.967,0.433,0.967,0.967C163.092-31.748,162.658-31.315,162.124-31.315z"/>
		</g>
		<g>
			<path fill="#FFFFFF" d="M165.759-49.805c-0.002,0-0.006,0-0.009,0h-8.54c-0.534,0-0.967-0.433-0.967-0.967v-8.217
				c0-0.388,0.231-0.738,0.588-0.89c0.357-0.151,0.77-0.077,1.049,0.193l8.463,8.143c0.233,0.177,0.383,0.456,0.383,0.771
				C166.726-50.238,166.293-49.805,165.759-49.805z M158.177-51.739h5.174l-5.174-4.979V-51.739z"/>
		</g>
	</g>
</g>
<g id="Layer_3_1_">
	<g>
		<g>
			<path fill="#FFFFFF" d="M42.838,48.03h-25.86c-0.534,0-0.967-0.432-0.967-0.966V12.987c0-0.534,0.433-0.967,0.967-0.967h17.32
				c0.25,0,0.49,0.097,0.67,0.27l8.54,8.217c0.189,0.182,0.296,0.434,0.296,0.696v25.86C43.804,47.598,43.371,48.03,42.838,48.03z
				 M17.944,46.097h23.927V21.615l-7.962-7.662H17.944V46.097z"/>
		</g>
		<g>
			<path fill="#FFFFFF" d="M27.289,26.16h-6.102c-0.534,0-0.967-0.433-0.967-0.967s0.433-0.967,0.967-0.967h6.101
				c0.534,0,0.966,0.433,0.966,0.967S27.823,26.16,27.289,26.16z"/>
		</g>
		<g>
			<path fill="#FFFFFF" d="M27.289,29.946h-6.102c-0.534,0-0.967-0.433-0.967-0.967s0.433-0.967,0.967-0.967h6.101
				c0.534,0,0.966,0.433,0.966,0.967S27.823,29.946,27.289,29.946z"/>
		</g>
		<g>
			<path fill="#FFFFFF" d="M39.212,29.946h-7.551c-0.534,0-0.967-0.433-0.967-0.967s0.433-0.967,0.967-0.967h7.552
				c0.534,0,0.967,0.433,0.967,0.967S39.746,29.946,39.212,29.946z"/>
		</g>
		<g>
			<path fill="#FFFFFF" d="M39.212,33.733h-7.551c-0.534,0-0.967-0.433-0.967-0.967s0.433-0.967,0.967-0.967h7.552
				c0.534,0,0.967,0.433,0.967,0.967C40.18,33.3,39.746,33.733,39.212,33.733z"/>
		</g>
		<g>
			<path fill="#FFFFFF" d="M39.212,36.875h-7.551c-0.534,0-0.967-0.433-0.967-0.967c0-0.534,0.433-0.967,0.967-0.967h7.552
				c0.534,0,0.967,0.433,0.967,0.967C40.18,36.442,39.746,36.875,39.212,36.875z"/>
		</g>
		<g>
			<path fill="#FFFFFF" d="M39.212,40.661h-7.551c-0.534,0-0.967-0.433-0.967-0.967s0.433-0.967,0.967-0.967h7.552
				c0.534,0,0.967,0.433,0.967,0.967C40.18,40.228,39.746,40.661,39.212,40.661z"/>
		</g>
		<g>
			<path fill="#FFFFFF" d="M42.847,22.171c-0.002,0-0.006,0-0.009,0h-8.54c-0.534,0-0.967-0.433-0.967-0.967v-8.217
				c0-0.388,0.231-0.738,0.588-0.89c0.357-0.151,0.77-0.077,1.049,0.193l8.463,8.143c0.233,0.177,0.383,0.456,0.383,0.771
				C43.814,21.738,43.381,22.171,42.847,22.171z M35.265,20.237h5.174l-5.174-4.979V20.237z"/>
		</g>
	</g>
</g>
</svg>
